<?xml version="1.0" encoding="utf-8"?>
<!-- Generator: Adobe Illustrator 25.2.3, SVG Export Plug-In . SVG Version: 6.00 Build 0)  -->
<svg version="1.1" id="Capa_1" xmlns="http://www.w3.org/2000/svg" xmlns:xlink="http://www.w3.org/1999/xlink" x="0px" y="0px"
	 viewBox="0 0 620 626" style="enable-background:new 0 0 620 626;" xml:space="preserve">
<style type="text/css">
	.st0{fill:none;stroke:#2C143D;stroke-miterlimit:10;}
	.st1{fill:#08A2A2;}
	.st2{fill:#ACC838;}
	.st3{fill:#43175A;}
	.st4{fill:#9CB129;}
	.st5{fill:#FA8370;}
	.st6{fill:#ECE9D6;}
	.st7{fill:#F1EAC3;}
	.st8{fill:#E2F8B3;}
	.st9{fill:#FA5E58;}
	.st10{fill:#DDD1AC;}
	.st11{fill:#96B73F;}
	.st12{fill:#70A92F;}
	.st13{fill:#FCCB54;}
	.st14{fill:#F6DBCD;}
	.st15{fill:#FDFCFC;}
	.st16{fill:#FEFEFE;}
	.st17{fill:none;stroke:#43175A;stroke-miterlimit:10;}
</style>
<path class="st0" d="M170.2,167.3c-16.9,41.4-17.5,82.1,0.9,103.5c6.9,8,16.9,14.6,16.9,14.6c19.8,13,40,14.7,50.2,14.9"/>
<path class="st1" d="M415,279.5c20.9-1.3,41.9-1.8,62.7,1.1c12.6,1.8,25.3,3.9,35.5,12.9c8.4,7.4,12.4,17.1,14.7,27.6
	c3.3,15.4,2.7,31.1,2.5,46.7c-0.2,18.3-1.2,36.6-4.4,54.6c-5.4,30.4-15.4,58.7-37.7,81.2c-3,3-6.4,5.7-9.6,8.5
	c-5.2,2.8-10.3,5.7-15.6,8.2C434,534,403,541,371.4,546c-18.3,2.9-36.8,4.8-55.4,4.5c-12.3-0.2-24.6,0.6-36.8-1.2
	c-6-0.9-12-2-18.1-2.9c-7.9-3.4-15.9-6.3-23.2-11c-17.8-11.4-31-26.9-41.8-44.7c-14.3-23.6-23.7-49.2-32.2-75.3
	c-3.5-10.7-6.9-21.4-8.3-32.7c-1.8-15,0.3-28.8,11-40.3c5,2.3,10.9,1.7,15.5,5c-5.7,4.9-7.2,12.1-2.3,16.7c0,3.2,1.3,5.1,4.4,6.7
	c2.4,1.2,4.2,0.1,6.3,0.4c3.4,0.5,6.3,2.9,9.9,2.4c-0.1,1.6,1.2,2,2.2,2.3c7.4,1.6,14.8,3.9,22.3,4.4c20.9,1.4,41.8,2.9,62.8,2.1
	c2.1-0.1,4.3,0.1,6.3-1c4.4,0,8.8,0,13.1,0c5.2-0.8,10.6,0,15.7-1.9l-0.1,0.1c2.8-0.1,5.5-0.1,8.3-0.2c5.9-2.1,12.3-1.4,18.4-2.9
	c4.6-1.1,9.4-2,14.1-2.5c4.3-0.4,8.3-1.7,12.3-2.8c3.5,0.9,6.7-1,10.1-1c6.6-1.7,13.6-2.4,19.8-5.6c8.3-2.7,16.6-5.4,24.9-8.1
	c3.9,0,7.3-1.2,10.3-3.6c6.7-2.7,13.5-5.3,20.2-8c4.7-1.2,9-3.3,12.8-6.3c1.6-1.1,3.2-2.3,4.8-3.4c10.1-3.6,18.1-9.9,23-19.5
	c2.8-5.5,0.6-10.5-4.6-13.1c-1-0.9-0.2-2.1-0.5-3.1c1.3-1.1,0.1-2.9,1.6-4.2c1.7-1.5,1.3-4.3,0.7-6.2c-0.5-1.3-3-0.7-4.6-0.5
	c-5,0.9-10.2,1.3-15,2.5c-4,1-8.2,0.5-12,2.3c-0.1-2.4-2.1-2.4-3.6-2.5c-11.5-0.8-22.9-1.5-34.4-2.2c-1.3-0.4-2.5-0.8-3.8-1.2
	c0,0,0,0,0,0c-0.2-1-1-1.1-1.8-1C421.4,283.8,417,283.2,415,279.5z M484,354.4c3.6-0.6,6.7-2.3,8.9-5.3
	C489.7,350.4,486.1,351.1,484,354.4c-1.2,0-2.6-0.4-3.5,1.2C482.3,356.6,483.3,356,484,354.4z M408.1,444.4c0.2-3.2-0.5-7.5-2-11.8
	c-4.1-11.6-16.7-17.3-28.1-12.8c-8.4,3.3-13.8,9.6-17.5,17.3c-1.8,3.7-2.3,4.4-5.3,0.8c-7.3-8.9-19.3-12.4-29.1-8.9
	c-11.5,4.1-18.7,12.4-19.6,24.4c-1.2,17.2,6.1,31,20.2,41.1c10.8,7.7,23.5,11.8,35.1,17.9c4,2.1,6.8,0.8,9.3-2.3
	c8.9-11.2,18.3-22.1,26.2-34C403.3,466.9,408.3,457.2,408.1,444.4z M262.5,532.8c-18.3-7.8-33.3-20-46.7-34.6
	C227.4,515.2,243.7,525.8,262.5,532.8z M513.5,404.8c-0.4,0-0.9,0-1.3,0c-0.1,1.3-0.2,2.6-0.2,3.9c-0.4,13.9-2.5,27.6-6,41.1
	c-0.4,1.4-2.5,3.6-0.5,4.1c2.3,0.6,1.9-2.5,2.4-4c2.5-7.9,3.9-16,5-24.2C513.7,418.7,514.4,411.7,513.5,404.8z M282.3,407.2
	c-21.3-0.3-42.7-0.3-64.1-2.1C239.5,407.5,260.8,409.1,282.3,407.2z M492.9,481.8c6.2-7.1,9-15.7,12.5-24c-0.5-0.2-1-0.4-1.5-0.7
	C500.3,465.3,496.6,473.6,492.9,481.8z M198.8,467c3.4,11.1,8.2,20,14.2,28.5C212.9,493.9,200.9,469,198.8,467z M242.3,508.4
	c-4.5-3.6-7.8-8.4-12.7-11.6C232.8,501.8,236.5,506.2,242.3,508.4z M494.3,458.9c4.9-4,6.9-13.7,4.3-18.2
	C498.7,446.7,496.7,452.2,494.3,458.9z M326.2,403.8c-4.6-0.9-9,0.6-14.3,0.9C317.6,408.5,321.7,404,326.2,403.8z"/>
<path class="st2" d="M253.1,259.3c1.1-2.2,3.4-3.2,5-4.9c4.3-0.8,8.8-1.5,9.9-6.9c0.7,0,1.5,0,2.2,0c2.4,1.5,5,0.5,7.5,0.8
	c1.4,0.4,2.6,1.6,4.4,0.1c2.2-1.7,2.6,0.3,2.9,2.4c-0.6,0.5,0.7-0.6-0.5-0.4c-0.7,0.1-1.3,0.4-1.3,1.2c0,0.7,0,1.4,1,1.3
	c0.8-0.1,0.8-0.9,0.8-2.1c2.5,0,2.1,1.4,1.4,3.2c-1.4,3.4-2.7,6.9-5.3,9.6c-1.3,1-2.7,1.8-3.9,2.9c-4.6,4-4.3,7.4,0.6,11.4
	c2,2.7,4.9,1.2,7.4,1.5c5.5,0.5,11-0.8,16.4,2.1c2.3,1.2,2,7.8,7,3.8c0.2,0.9,0.9,2.4,0.5,2.7c-3.5,2.9-1.1,5.4,0.4,7.9
	c1.6,2.7-1.4,0.8-1.5,1.6c-3.9,3.8-7.7,7.7-13,9.7c-2.4,0.9-5.1,2.4-6.6,4.9c-0.4,1.4-0.8,2.9-1.1,4.3c-1.4,7.1,2.9,14.3,9.8,14.4
	c4.5,0.1,9.2-2.2,13.6-4.2c4.1-1.8,8.2-2,11.8-0.4c3.8,1.7,5.7,5.5,4.6,10.1c-1,1.7-2.1,3.4-3.1,5.1c-1.3,0.8-2.7,1.5-2.5,3.5
	c-2.1,1-4.2,1.3-6.5,0.7c-1.3-0.3-1.3-0.2-3,0.9c-3.2,1.8-6.7,0.5-10.1,0.9c-1.7,0.2-3.4,0.4-1.9,2.5c1.1,1.5,3.1,2.4,4.7,3.6
	c4.2,3.4,9.5,0.9,14.1,2.4c1.5,3.6,0.2,6.6-3,8.2c-3,1.5-0.2,1.7,0.3,2.4c-3.3,1.6-7.1,1.7-10,0.1c-6.1-3.4-12.2-3.9-18.7-2.3
	c-0.1-0.3-0.2-0.5-0.2-0.8c0.7-0.2,1.7-0.1,1.6-1.3c0-0.1-0.2-0.3-0.3-0.3c-1.2-0.1-1.1,0.8-1.3,1.6c-3.2,3.6-3.6,9.4-0.7,12.4
	c0.7,0.7,1.8,1.7,2.4-0.3c2.2-0.4,3,0.7,3,2.8c0.4,3.1-2,2.1-3.3,2.1c-8.3,0-16.6-0.3-24.9-0.1c-3.3,0.1-4.2-1.4-3.9-5.8
	c-1.6,3.6-2.9,4.8-5.4,4.9c-6.8,0.1-13.5-0.4-20.1-2c-4.6-2.7-9.7-3.9-14.8-4.9c-0.3-0.1-0.8,0.5-1.2,0.8c-0.3,0.1-0.6,0.1-0.9,0
	c-0.3-1.3-1.1-2-2.4-1.9c-4.3,0.3-7.6-3.2-12.7-2c-3,0.7-7.2-3.7-8.9-8c0.5-0.3,1.4-0.4,1.5-0.8c0.2-1.1-0.7-1.2-1.5-1.3
	c1-3.3-2.7-5.5-2-8.8c2.2-2.4,2.9-6.2,6.4-7.4c2.9,1,7-1.3,8.8,1.6c2.1,3.5,5.6,5.4,7.8,8.6c1.7,0,3.1-1.4,4.9-0.8
	c2.4,2.3,4.9,2.2,5.7-1.1c0.7-3,0.3-6.3,0.3-9.4c0-1-0.8-1.1-1.7-1.3c-4.8-1-9.3-3.1-13.4-5.6c-1.9-1.2-3.2-3.8-5.2-5.6
	c-1.8-1.6-4.7-3.6-2.8-7c1.9-3.6,4.1-5.4,8.9-4.4c6.3,1.3,11.3,5.7,17.9,6c3.3,0.2,6.5,0.2,7.6-3c1.2-3.2,2.3-7-0.9-10
	c-0.1-1.3-0.2-2.6-0.3-3.9c0.4-2-1.2-2.9-2.1-4.2c0-2.6,0.1-5.2,0.1-7.8l-0.1,0.1c1.1-0.3,1.4-1,1.1-2.1c0,0-0.1,0.1-0.1,0.1
	c0.3,0.1,0.7,0.3,1,0.4c1.8,0.1,0.5-2.2,1.9-2.4c2.5,0,5.2-0.7,7,2c3.1,9.3,3.7,9.9,9.7,9.4c0.1,0.5,0.2,1,0.3,1.5
	c-1.1,0.2-2.3-0.4-3.2,0.5c-0.1,0.1,0.3,0.9,0.6,1.1c1.4,0.5,2-0.5,2.6-1.5c0.7-0.1,1.9-0.1,1.9-0.2c0.5-3.9,3.6-6.5,4.7-10
	c0.4-1.2,0.8-2.5-0.5-3.3c-1.9,0.6-0.3,2.7-1.8,3.3c-1.6-3.1,1.3-4.7,2.6-7c-1.4-0.8-3.9,1.1-3.9-1.7c0.5-0.1,1.3,0.1,1.3-0.8
	c0-0.2-0.4-0.6-0.6-0.6c-0.9,0-0.7,0.8-0.8,1.3c-1.8-0.8-2.1-2.3-2-4c0.5-0.1,1.3,0.1,1.3-0.8c0-0.2-0.4-0.6-0.6-0.6
	c-0.9,0-0.7,0.8-0.8,1.3c-4.8-3.4-6.5-9.9-4.5-14.8C251.6,264.3,253.8,262.3,253.1,259.3z M263.7,358.8c-2,0.2-1.3-2.5-3.5-2.9
	c0,3.1,0,6,0,8.9c0,1.2,0,2.3,0,3.5c0,0.8,0.1,1.8,1.3,1.2c0.3-0.2,0.1-1.2,0.2-1.9c1.5-2.5,0.8-5.9,3.1-8.2
	C265.3,358.9,264.4,358.5,263.7,358.8z M256.9,326.1c-0.6,1.2-6-0.3-2.2,3.6c0.6,0.6,0.1,2.2,0.2,3.4c0.2,2.4-0.3,5,2.7,8.1
	C255.8,335.5,256,330.9,256.9,326.1z M209.9,359.9c-0.8-2.2-3-1-4.2-2.2c-1-1-2.3-2.1-4.9-1.3C203.8,358.9,205.8,361.6,209.9,359.9z
	 M298.6,360.3c-3.5-1.1-5.8-1.4-8.8,0.1C292.8,361.3,295.1,362,298.6,360.3z M274.6,295c-0.2,1.9-1.3,3.9,0.5,5.4
	c0.2,0.1,1-0.2,1.2-0.5C278.4,297.4,273.3,297.4,274.6,295z M308.5,364.2c-0.4-0.9-1.2-0.8-2-0.7c-0.8,0.1-1.2,0.6-0.9,1.2
	c0.2,0.4,1.1,0.6,1.6,0.6C307.9,365.3,308.6,365.1,308.5,364.2z M255.4,276.4c-0.6-0.8-0.9-1.1-1.1-1.5c-0.3,0.3-0.9,0.5-1,0.8
	c-0.2,0.6-0.1,1.4,0.8,1.3C254.6,277,255,276.6,255.4,276.4z M197.4,364.4c0.2,0.3,0.3,0.6,0.5,0.7c0.2,0.1,0.5-0.2,0.8-0.3
	c-0.2-0.3-0.4-0.6-0.6-1C197.9,364,197.6,364.2,197.4,364.4z M302,345.2c0.3-0.1,0.6-0.2,0.8-0.4c0.1-0.2-0.1-0.5-0.2-0.8
	c-0.3,0.1-0.6,0.2-0.7,0.4C301.7,344.6,301.9,344.9,302,345.2z M307.6,344c-0.1,0.3-0.3,0.6-0.2,0.8c0.1,0.2,0.5,0.3,0.7,0.4
	c0.1-0.2,0.3-0.6,0.2-0.7C308.2,344.2,307.9,344.1,307.6,344z M201.8,366.4c-0.2-0.1-0.4-0.2-0.7-0.3c-0.1,0-0.3,0.3-0.3,0.3
	c0.1,0.2,0.2,0.4,0.4,0.6C201.4,366.9,201.6,366.7,201.8,366.4z M252.5,272.9c-0.1-0.3-0.2-0.6-0.5-0.7c-0.1-0.1-0.5,0.1-0.7,0.2
	c0.1,0.3,0.2,0.6,0.4,0.8C251.9,273.2,252.3,273,252.5,272.9z"/>
<path class="st3" d="M261.1,546.4c6,1,12,2.1,18.1,2.9c12.2,1.8,24.6,1,36.8,1.2c18.6,0.2,37.1-1.6,55.4-4.5
	c31.5-5,62.6-12,91.7-25.7c5.3-2.5,10.4-5.5,15.6-8.2c0.8,1.8,1.7,3.6,2.3,5.5c3.1,10,0.6,15.9-8.7,20.4
	c-14.9,7.1-30.2,13-45.9,17.9c-35.6,11.2-72,16.1-109.2,15.1c-13.7-0.4-27.2-1.7-40.8-3.7C266,565.9,258.2,557.8,261.1,546.4z"/>
<path class="st4" d="M281.1,263.6c2.6-2.7,3.9-6.2,5.3-9.6c0.7-1.8,1.1-3.2-1.4-3.6c-0.3-1.7-0.8-3.7-2.9-2c-1.8,1.4-3,0.3-4.4-0.1
	c0.1-0.2,0.1-0.4,0.1-0.6c-2.3-2.9-5.1-1.9-7.9-1c0.1-2.4,0.2-4.8,0.2-7.2c2.5-2.6,4.8-5.4,7.6-7.6c2.2-1.7,4.7-4,7.7-3
	c4.1,1.4,7.9,3.4,10.9,6.9c2.4,2.8,5.9,4.2,9.5,3.9c2.6-0.2,5.2-0.1,7.9-0.1c1.3,3.4,3,6.7,2.2,10.6c-0.5,2.1-2.8,3.7-2,6.3
	c-2.4,5-0.3,9.5,5.1,9.9c4.3,0.3,8.6-0.1,12.9-0.1c7.9,0.1,11,5.6,7.3,12.7c-1.7,3.3-4.7,5.5-7.2,8.1c-1.9,2.3-3.7,4.5-5.1,7.2
	c-1.5,2.8-0.3,3.4,1.9,3c4.6-0.7,9.3-1.6,11.3-6.8c3-1.3,6.3-2.2,7-6.1c1-0.1,2.1,0.2,2.9-0.2c6-3.1,11.2-1.5,16.1,2.3
	c0.2,1.1,0.9,1.7,1.9,2c1.3,3.5,2.1,7.1,1.5,10.9c-0.8,1.7-1.6,3.4-2.5,5.1c-0.4,0.3-0.7,0.6-1.1,0.9c-2.6,2.3-5.9,0.7-8.7,1.7
	c-3.6-3.3-6.6-2.1-9.2,1.3c-3.1,2.4-5.2,5.4-6,9.4c-0.6,3.5,0.1,5.9,4.2,5.9c-6.1,4.6-12.5,8.8-19.2,12.7c1.1-4.6-0.8-8.4-4.6-10.1
	c-3.6-1.6-7.8-1.4-11.8,0.4c-4.3,2-9,4.2-13.6,4.2c-6.9-0.1-11.2-7.3-9.8-14.4c0.3-1.5,0.7-2.9,1.1-4.3c3.5-0.9,6.6-2.8,9.7-4.2
	c4.2-2,9.3-4.5,9.9-10.4c0.2-0.9,3.2,1,1.5-1.6c-1.5-2.5-3.9-5-0.4-7.9c0.3-0.3-0.3-1.8-0.5-2.7c-4.9,4.1-4.7-2.6-7-3.8
	c-5.5-2.9-11-1.5-16.4-2.1c-2.5-0.2-5.4,1.2-7.4-1.5c0,0,0.1-0.3,0.1-0.3c1.4-1.3,1-2-0.8-2.1c-4.4-7.3,4.8-8,6.4-13
	C282.5,263,281.8,263.3,281.1,263.6z M292.7,260.8c3.7-5.7,3.6-8.8-0.3-11.1C293.5,253.3,291.7,256.6,292.7,260.8z"/>
<path class="st4" d="M254.1,304.4c-0.1-0.5-0.2-1-0.3-1.5c-0.1-0.4-0.3-1.2-0.4-1.2c-5.1,0.5-6.6-2.7-7.3-6.9c-0.2-1-0.2-2.6-2-1.3
	c-1.7-2.7-4.5-1.9-7-2c-0.6-4.7-2.9-0.6-3.8-0.4c-2.2,0.6-2.1,3.3-3.2,5c0.6,0.1,1.2,0.2,1.9,0.3c0.7,2.2-0.9,4.8,1.1,6.8
	c0.9,1.3,2.5,2.2,2.1,4.2c-3,2.6-3,6.8,0.1,9c1-0.8,1.3-1.7,0.2-2.7c0-0.8,0-1.6,0-2.4c3.2,3,2.1,6.8,0.9,10c-1.2,3.2-4.4,3.1-7.6,3
	c-6.6-0.3-11.6-4.7-17.9-6c-4.9-1-7,0.8-8.9,4.4c-1.8,3.4,1,5.4,2.8,7c2,1.8,3.3,4.4,5.2,5.6c4.1,2.5,8.6,4.6,13.4,5.6
	c0.9,0.2,1.7,0.3,1.7,1.3c0,3.2,0.5,6.4-0.3,9.4c-0.8,3.2-3.3,3.3-5.7,1c-1.9-1.5-3.7-2.3-4.9,0.8c-2.2-3.2-5.7-5.1-7.8-8.6
	c-1.8-3-5.9-0.6-8.8-1.6c0-0.4,0.1-1.3,0.1-1.3c-3.6-0.3-7.3,4.7-6.5,8.7c-0.7,3.2,3,5.5,2,8.8l-0.1,0.1c-0.4,0.1-1.1,0.2-1.2,0.4
	c-0.3,0.9,0.5,1.2,1.2,1.5l0.1,0.1c1.7,4.2,5.9,8.7,8.9,8c5.1-1.2,8.4,2.3,12.7,2c1.3-0.1,2.2,0.6,2.4,1.9c-5.5,2.8-11-0.4-16.6,0.2
	c-3.6,0.5-6.5-1.9-9.9-2.4c-2.1-0.3-3.9,0.8-6.3-0.4c-3.2-1.6-4.4-3.5-4.4-6.7c-0.1-3.5,2.1-6.1,3.3-9.1c1.2-2.9,1.6-5.3-1-7.5
	c-4.6-3.4-10.5-2.8-15.5-5c-5.6-7.5-2.5-15.5,6.9-18.1c4.8-1.3,9.9-1.2,14.4-3.6c2.5-1.3,4.5-2.8,4.5-5.9c0-3.3-2.1-5.1-4.8-6.2
	c-2.3-1-4.7-1.5-7-2.6c-3.1-1.5-5.9-3.5-5.3-7.5c0.6-4.2,3.1-6.9,7.1-8c1.7-0.5,3.6-0.9,5.4-0.2c3.8-0.7,6.7,2.2,10.3,2.4
	c4.5,4.2,9.9,5.7,15.9,5.7c1.1,0,1.9-0.5,2.1-1.7c2,0.4,2.9-1.2,4-2.4c4.4-3.6,4.8-6.2,1.1-9.7c-3.3-3.1-7.5-3.6-11.8-4.2
	c-4-0.5-8.6-1.7-9.2-6.6c-0.5-4.4,3-6.5,6.9-7.5c1-0.1,1.9-0.1,2.9-0.2c6.3,0.1,12.9,2.2,18.7-2.2c1.6-2.9,3.6-5.6,4.8-8.6
	c3-7.5,11.5-6.8,15.1-1.7c1.4,2,2.9,3.9,4.4,5.8c0.8,2.9-1.5,5-2.5,7.3c-2,4.9-0.3,11.4,4.5,14.8l0,0c-0.1,1.7,0.2,3.2,2,4l0,0
	c0,2.8,2.5,0.9,3.9,1.7c-1.4,2.3-4.2,3.9-2.6,7c1.5-0.5-0.1-2.7,1.8-3.3c1.3,0.9,0.9,2.1,0.5,3.3c-1.1,3.5-4.2,6.2-4.7,10
	C256,304.4,254.8,304.4,254.1,304.4L254.1,304.4z M225,282.2c-2.8-5.3-7.8-7.3-13-8.9c-0.7-0.2-1.4-0.2-1.6,0.6
	c-0.3,0.7,0,1.5,0.7,1.6C216.4,276.4,220.5,279.7,225,282.2z M223.2,342.4c-1.4,1.9-1.4,3.3,0,5.1
	C223.2,345.6,223.2,344.2,223.2,342.4z M191.7,356.8c-0.3-0.2-0.7-0.5-1-0.7c-0.1,0.3-0.5,0.6-0.4,0.8c0.1,0.4,0.5,0.9,0.8,1
	C191.6,358,191.8,357.5,191.7,356.8z"/>
<path class="st5" d="M313.9,239.6c-2.6,0-5.2-0.1-7.8,0.1c-3.6,0.3-7.2-1.1-9.5-3.9c-3-3.5-6.8-5.4-10.9-6.9c-3.1-1.1-5.6,1.2-7.7,3
	c-2.8,2.2-5.1,5-7.6,7.6c-0.3-2-1.6-2-3.3-2c-4.5-0.1-9-0.5-12.9-3.3c10.8-10.8,22.9-20.2,34.7-29.8c14.7-11.9,29.9-23.1,45.3-34.1
	c2.4-0.4,2.7-3.2,4.7-4c1-0.5,2.1-1.1,3.1-1.6c1.9-1.1,3.8-2,5.6-3.2c7.3-4.6,14.5-9.3,21.7-14c1.7-1.1,4.5-2.4,4.6,0.3
	c0.2,3.5,2.7,6.4,1.9,10c-2.1,0.8-1.5,2.6-1.5,4.2c-0.1,6.2-0.3,12.4-2,18.4c-2.8,5.8-2,12.7-5.7,18.3c-0.4,2.7-2.9,4.8-2.4,7.7
	l0-0.1c-2.6,0.7-2.4,3.7-4.1,5.1c-0.5,0.5-1.1,0.8-1.4,1.4c-2.6,5-6.1,8.9-10.4,12.7c-5.1,4.4-11.4,5.7-16.7,9.2
	c-3.5,2.4-8.1,2.1-11.4,5.1c-0.9,0.8-2.1,0.6-3.1-0.5C315.9,238.1,314.9,239.3,313.9,239.6z M323.4,187.8c0.3-0.4,0.6-0.7,0.9-1.1
	c1.9-1.6,3.7-3.3,4.7-7.1c-3,2.4-4.7,4-5.3,6.5c-0.4,0.3-0.7,0.7-1,1c-0.3,0.3-0.6,0.7-0.9,1c-1,0.3-1.7,0.9-2,2
	c-0.3,0.3-0.7,0.6-1,0.9c-0.3,0.4-0.7,0.7-1,1.1c-2.1,0.5-3.7,1.5-4.5,4.2c2.7-0.6,4-2,5.1-3.6c0.4-0.3,0.8-0.6,1.1-0.9
	c0.3-0.4,0.6-0.7,0.9-1.1c0.7-0.7,1.4-1.3,2-2C322.7,188.4,323,188.1,323.4,187.8z M343.6,178.9c0.4,1.2,0.8,2.5,2.1,3.1
	c0.3,0.9,0.3,1.9,1.4,2.3c0.2,0.1,0.7-0.1,0.8-0.3c0.3-1.3-0.6-2-1.5-2.7c-0.3-1.2-0.9-2.3-2.1-2.9c-0.3-1.5-1.6-1.9-2.9-2.2
	c-3.2-2.8-6.4-2.5-9.5,0.2c-0.8,0.3-1.6,0.5-1.6,1.5c0,0.2,0.4,0.5,0.6,0.5c1,0.1,1.3-0.8,1.6-1.5c2.8-0.8,5.6-0.5,8.3-0.2
	C341.5,177.7,342.3,178.6,343.6,178.9z M325.9,224.6c0.9-0.3,1.9-0.6,2.8-1c3.4-1.7,7.5-2.6,4.7-8.4c-1.5-3,1.5-4.3,4.5-3.2
	c1.9,0.7,3.6,0.9,4.6-1.3c1-2.4-1-2.8-2.3-3.6c-1.7-1-3.1-2.1-2.6-4.3c0.7-2.6,2.9-2.6,4.8-2.1c3.8,1,4-1.3,3.5-3.8
	c-0.4-2.4-1.6-4.2-4.6-4.3c-2.7-0.2-5.4-1.6-3.1-4.8c3.2-4.4-0.6-4-2.6-4.1c-4,0-6.3,2.5-7.4,6.2c-2,6.4-6.8,10.4-13.4,10.6
	c-4.4,0.1-8.5,1.2-12.7,2.2c-7.6,1.8-10.6,10.6-5.8,16c-0.3,0.6-0.5,1.3-0.9,1.6c-1.5,1.3-1.8,3-0.7,4.3c1.5,1.7,3.2,0.5,4.7-0.5
	c0.7-0.4,1.1-1.1,1.7-1.7c0.9,2.7,2.8,3.4,4.8,1.6c2.8-2.4,4.7-2,6.2,1.2c0.5,1,1.5,1,2.5,1.3c4.6,1.2,4.1-2.9,5.6-5
	c0,2.3-0.2,4.6,0.1,6.9c0.3,2.1,1.7,3.8,3.8,3.8c2.9,0,1.8-2.5,2-4.1C326.1,226.9,325.9,225.7,325.9,224.6z M291.1,216.7
	c-0.2-3.3-0.1-6.6,0-9.9C288.5,210.2,288.3,213.5,291.1,216.7z M286.7,220.8c-0.4-3.9-0.8-6.9-1.1-9.9
	C284,214.2,283.2,217.4,286.7,220.8z"/>
<path class="st6" d="M248.1,180.4c-3.2-0.8-4.4-3.9-6.5-5.9c-7.1-6.7-15.2-12.4-21.9-19.5c-2.3-2.4-2.6-3.9-0.3-6.6
	c7.2-8.4,14.1-17.1,21.1-25.7c1.8-2.2,2.8-4.2,6.5-1.1c2.5,2.1,7.5,1.3,11.3,2.8c5.1,2,10.8,2.1,15.6,5.8c2.8,2.1,3.3,5.6,6.3,7.2
	c-0.1,0.1-0.1,0.3-0.2,0.4c0.1-0.1,0.1-0.3,0.2-0.4c0.5,0,1.2-0.1,1.5,0.1c5.9,5,11.9,10,17.7,15.2c1.5,1.3-1,1.7-1.1,2.7
	c-6-2.1-13.1,0.3-18.5-4.7c-2.1-2-2.6,0.6-2.9,1.7c-1.2,4.4-4.4,6.9-8.2,8.6c-4.1,1.9-7.2,4.7-8.4,9.2c-0.6,2.2-1.9,3.2-4.3,3.9
	C252.5,175,249.3,176.7,248.1,180.4z"/>
<path class="st7" d="M338.7,166.4c-2,0.8-2.4,3.6-4.7,4c-4.5-5.3-9-10.4-11.8-16.9c-3.2-7.4-3.9-14.9-4.4-22.9
	c-0.9-15.4,5.3-27.8,15.5-37.9c8.1-8,18.3-12.8,30.3-14.6c9.2-1.4,17.8-1,25.9,2.6c8.1,3.6,16.8,6.8,22.8,14
	c0.1,3.2-4.4,2.4-4.7,5.3c4.6-3.9,4.4-3.7,8.3,1.3c1.8,2.4,1.6,6.7,5.8,7.1c1.1,0.2,1.3,1,1.4,1.9c-3.3,0.3-1.8,2-1.2,3.8
	c2.1,7.1,3.9,14.3,3.1,21.7c-0.3,2.7,0.3,4.3,2.7,5.3c0.5,1.6-0.2,2.3-1.8,2.4c-0.8-0.3-1.2-0.9-2.1,0.5c-1.5,2.4-1.3,5.5-3.7,7.4
	c-0.2-0.2-0.4-0.4-0.6-0.5c0,0.4,0,0.7,0,1.1c0.6,1,0.4,1.9-0.2,2.8c-3,4.4-6.1,8.7-9,13.2c-0.9,1.4-2.6,1-3.5,2.2
	c-4.5,6.1-11.1,8.9-18,11.4c-1.4,0.5-4.3,0.4-3,3.5c-2.4,1.5-4.9,1.9-7.7,1.4c-0.2-3.3,0.4-6.7-0.8-9.9c9.1-1.2,17.5-4.6,24.2-10.6
	c6-5.3,9.5-12.6,12.9-19.9c2.6-5.6,2.7-11.6,2.6-17c-0.3-9.1-3.4-18.1-9.6-25.5c-3.5-4.2-6.9-8.2-11.8-11.1
	c-10.7-6.3-21.9-5.7-33.4-3.8c-0.3-1.3-1.5-1.5-2.3-1.2c-3.5,1.4-7.5,0.3-10.9,3.5c-3.2,3.1-7.8,4.6-10.9,8.3
	c-5.3,6.2-9,12.4-11.2,19.8c-1.9,6.5-2.7,12.9-1,19.5c0.7,2.7,1.3,5.4-2.9,6.8c3.9-1.6,4.8,0.5,5.7,3c2.1,6,4.7,11.7,10.6,15.1
	l0-0.1C339,164.4,338.9,165.4,338.7,166.4z"/>
<path class="st6" d="M443.3,216.2c-6.3,2.7-13.2,2.7-19.8,4.1c-3.3,0.7-6.8,0.5-10.2,1.7c-5,1.9-7.3,0.4-8.4-4.9
	c-2.1-9.8-3.7-19.6-6-29.4c-0.9-3.6,2.2-2.2,3-3.3c3-4.7,8.2-6.3,12.3-9.5c6-4.8,13.2-5.9,20.5-6.5c6.4-0.5,12.6-1.9,18.9-3.4
	c1.3-0.3,2.2-0.4,3.3,0.2c0.5,0.1,1,0.2,1.4,0.4c0.2,0.1,0.4,0.3,0.6,0.4c-2.7-0.3-3.1,2.6-4.4,3.2c-4.3,2.2-6.6,6.6-11,8.4
	c-2.7-0.8-4.9,1.2-7.8,1.5c5.4-1.2,5.5,2,5.4,5.6c-0.1,2.6,0.4,5.3,0.6,8c-1.7,2.9,2.6,4.9,1.3,7.8
	C440.8,205.9,443.5,211,443.3,216.2z"/>
<path class="st7" d="M138.1,249.5c-15.6-5.4-26.6-15.4-34.1-30.3c-5.3-10.5-3.8-21.3-3.5-32c0.1-2.7-0.1-7.7,4.4-9.5
	c1.5-0.6-0.3-2.2,0.4-3.9c5.2-12.4,14.6-19.9,26.4-25.5c6.8-3.3,14.2-4.8,21.1-4.7c5.2,0,11.3-0.1,16.8,2.6
	c7.4,3.5,15.6,5.5,21.9,11.2c0.7,0.7,1.2,1.6,1.8,2.3c0.3-0.1,0.5,0.1,0.5,0.4c0.2,0.1,0.4,0.3,0.4,0.5c1.4,1.3-1.7,1.7-0.7,2.6
	c4.4,3.7,5.7,9.2,8.4,13.5c3.9,6.1,3.1,12.4,5,18.4c1.8,5.6,0.1,7.2-5.6,8.6c-0.5,0.1-1,0.6-1.6,0.9c2.1,1.1,4.6-1.5,6.1,0.8
	c1.6,2.5-2.9,11.2-5.9,11.7c-1-2.3-3-4-3.3-6.7c1.7-3.3,1.9-6.7,0.3-10.1c2.7-0.7,3.8-3.1,2.7-4.9c-2.8-4.4-1.5-9.4-3.3-14.1
	c-3.5-8.8-9.1-15.4-16.4-21.3c-4.8-3.9-10.6-4.5-15.8-6.8c0.1-0.3,0.3-0.6,0.4-0.9c0-0.1-0.2-0.4-0.3-0.4c-6,0.1-12-1.4-17.9,0.4
	c-5.4,0.3-10.4,1.5-15.2,4.5c-4.4,2.9-9.1,5.3-12.2,9.8c-1.5,2.2-3.1,3.1-6,1c0.6,2.1,3.6,2.6,1.7,4.6c-2.3,2.3-1.8,7.7-8.3,6.1
	c2.7,1.6,3.8,2.3,3.4,5c-0.4,2.4-2.3,4-2.4,6c-0.5,9.8,0,19.4,4.8,28.3c0.6,1.2,1.3,2.3,1.8,3.5c1.7,3.6,3.9,6.7,8,7.8
	c2.1,1.1,2.1,4.1,3.7,4.9c5.3,2.9,10.5,6.3,16.3,8.2c-1.1,2.4-2.3,4.8-3.4,7.1C138.4,249.6,138.3,249.6,138.1,249.5z"/>
<path class="st8" d="M517.9,228.5c0.8-0.1,1.6-0.1,2.1,0.8c-1.4,3.2,1.7,2.6,2.9,3.1c10.7,4.7,14.5,9.4,14.1,18
	c-4.2,7.3-11.3,10.4-19,11.5c-3.5,0.5-6.6,1.9-10,2.2c-3.1-2.5-10.3-2.4-12.9,0.1c-0.4,0-0.9,0-1.3,0c-2.1-4-5.7-0.9-8.4-1.8
	c-2.5,2.1-4.9,0.3-7.2-0.4c-7.8-2.4-15.9-4-22.2-9.9c-7.7-7.2-6.9-14.9,2.6-19.9c9.2-4.8,19.1-6.7,29.4-5.8c0.3,2.6,3.6,3.4,3.9,6
	c-0.6,0-1.2,0-1.8,0c-1.4-0.7-2.8-1.6-4.2-1.9c-1-0.3-2.6-0.2-3.2,0.5c-1.1,1.1,1.3,1.6,1,2.8c-3-0.7-5.7-0.3-7.6,2.5
	c-4.5,1.2,1.5,2.8-0.1,4.1l0,0c-3.8-1.7-5.9,0.2-7.6,3.4c2.4,1.3,6.2-0.6,6.6,1.6c1.1,5.3,4.1,3.9,7.3,3.3c1.2,0.6,2.5,1.2,3.7,1.8
	c-0.5,4.6,2.2,4.4,5.2,3.5c1-0.3,1.6-1.7,2.9-1.6l-0.1-0.1c-0.2,4.2,1.6,6.3,5.9,6.1c1.3,0,2-0.6,1.9-2c0-0.7,0-1.3,0-2
	c0.7,0,1.4-0.1,2.1-0.1c1.3-0.1,2.8,0.6,3.6-0.8c1.2-1.9-0.9-2.9-1.5-4.3c1.8,0.1,3.8,1,4.7-1.6c2.2,0.8,4.5,0.9,6.9,0.6
	c0.8-0.1,2.7-0.3,1.1-1.5c-2.1-1.6-0.8-1.9,0.4-2.6c1.5-0.9,3-1.7,5-2.9c-2.8-1.2-6.2-0.5-7.1-2.9c-2.2-5.6-5.5-4-9.1-2
	c0.1-1.5-1.3-1.6-2.1-2.2c0.6-3.3-1.1-4.2-3.9-3.8c-3,0.4-4.4-0.6-4.1-3.7c6-0.4,11.5,1.6,17.2,3C516.5,230,518,231.5,517.9,228.5z
	 M530,250.5c2.2-0.6,3.6-2,3.8-4.3c0-0.7-0.6-1.3-1.2-1C530.6,246.3,529.6,248.1,530,250.5c-0.8,0.1-1.6,0.1-1.5,1.2
	c0,0.1,0.2,0.3,0.3,0.3C529.9,252,529.9,251.2,530,250.5z M476,256.5c4,2.9,8.5,3.9,13.3,3.1C484.9,258.4,480.9,255.4,476,256.5
	c-2.6-3.3-6.9-3.7-10.1-5.9c-1.3-0.9-2.8-3.3-5.8-1.1C465,253.2,469.6,256.6,476,256.5z"/>
<path class="st5" d="M228.9,263.8c-5.8,4.4-12.4,2.3-18.7,2.2c1.3-0.7,2.6-1.4,3.8-2.2c7.9-5.3,8.1-11.6,0.6-17.8
	c-0.4-1-1-1.7-2.1-2c-0.7-2.4-2-4.4-4.1-5.8c-1-2.2-1.7-4.6-3.9-6.1c-0.4-0.8-0.1-2.1-1.4-2.3c-0.2,0-0.6,0.3-0.7,0.5
	c-0.2,1.1,0.6,1.7,1.4,2.4c0.8,2.3,1.7,4.7,3.9,6.2c1.1,2.2,1.9,4.5,4.2,5.7c0.2,1.1,0.9,1.8,1.9,2.1c7.1,9.9,4.8,12.7-5.1,17.4
	c-1,0.5-1.7,0.9-1.6,2.2c-3.9,1-7.4,3.1-6.9,7.5c0.5,4.9,5.2,6,9.2,6.6c4.3,0.6,8.5,1.1,11.8,4.2c3.7,3.4,3.3,6-1.1,9.7
	c-1.4-3.1-4-1.2-6.1-1.6c-3.6-1.2-7.2-2.4-10.8-3.6c-0.4-1.3-1.5-1.6-2.6-2c-8.5-3.4-15.9-8.5-22.6-14.7c4.7-6.4,9.4-12.7,14-19.1
	c2.3,0.8,2.3,2.2,0.9,3.7c-2.3,2.4-2,3.1,1.4,3.8c3.7,0.8,5.5-0.2,6.7-3.7c1.1-3.3,3.9-3.7,5.5-1c1.7,2.9,2.3,1.3,3.2,0
	c2.3-3.3,1.3-8.2-3.4-10.4c-4.3-2-6.4-5.2-8.1-9.1c-0.9-2.7,2.1-4.2,1.8-6.7c3.1-2.6,3.8-6.7,6.5-9.6c5,6.8,7.7,14.9,11.6,22.3
	C222,249.6,224.1,257.4,228.9,263.8z"/>
<path class="st9" d="M377.2,176.4c1.3,3.2,0.7,6.6,0.8,9.9c-2.6,0.3-1.8,2.4-2,3.8c-4.1,28.2-17.9,49.5-44.4,61.5
	c-5.5,2.5-11.4,4.4-17.6,4.8c-0.8-2.5,1.5-4.1,2-6.3c0.9-3.9-0.8-7.2-2.2-10.6c1-0.4,2-1.5,3.1-0.3c0.9,1.1,2.2,1.3,3.1,0.5
	c3.2-3,7.9-2.7,11.4-5.1c5.2-3.6,11.6-4.9,16.7-9.2c4.3-3.8,7.9-7.7,10.4-12.7c0.3-0.5,0.9-0.9,1.4-1.4c0.2,0.6,0.4,1.6,1.2,0.5
	c1.3-1.7,2.7-3.4,3-5.6c0,0,0,0.1,0,0.1c1.5-1.1,2.1-2.9,2.6-4.6c0.3-0.8,3.1-2.4-0.2-3.1c3.6-5.6,2.8-12.5,5.7-18.3
	c0.8,2.9,1.5,1.6,1.8-0.1c0.7-4.3,1.3-8.7,1.9-13c0.4,0,0.8,0.1,1.2,0.1C377.1,170.5,377.2,173.5,377.2,176.4z"/>
<path class="st8" d="M357.3,307c2.8-1,6.2,0.6,8.7-1.7c2.9,4.6,8.5,1.7,12.1,4.4c1,0.7,2.2,1,3.2,0.1c0.4-0.3,0.6-1.2,0.4-1.7
	c-0.4-1.2-1.6-1.8-2.8-1.6c-4.2,0.5-8.1-0.6-11.9-2.1c0.8-1.7,1.6-3.4,2.5-5.1c2-0.5,4-1.2,6.1-0.9c1.3,1,2.8,1.1,4.4,1
	c-0.8,1.3-2.9,2.4-1.4,4.1c1.3,1.5,3.3,1.1,5,0.3c0.9-0.4,1.6-1,2.4-1.6c-0.2,3.2,0.9,5.5,4.3,6.1c3.8,0.7,3.7-2,3.9-4.6
	c0.1-1,1-1.2,1.8-1.4c1.7-0.2,2.8,3.1,5,0.5c1.7-2-0.4-2.4-1-3.5c1.2-0.4,2.4-0.7,3.6-1.1c1.1,0,2.3,0,3.4,0.1
	c2,0.1,4.1-0.5,4.3-2.4c0.3-2.7-2.4-1.1-3.7-1.7c-0.6-0.3-1.1-0.6-1.7-0.9c2.2-0.6,4.4-1.2,6.8-1.1c1,0.1,2.7,0.4,2.7-1.2
	c0-1.2-1.2-1.9-2.3-2.4c-1.5-0.7-4.2,0.4-4.6-1c-1.3-5-5.1-2.8-8-3.3c-1-0.1-2-0.2-2.7-1.1c-0.5-3-0.7-6.2-5.1-3.5
	c-1.4,0.9-2.1,0.3-3-1.2c-1.7-3.3-6-3.2-7.8,0.1c-0.9,1.7-1.8,1.9-3.1,1c-3.2-2.1-3.9,0.4-5,2.4c-1.2,1.1-4.6,1.1-2.1,4.1
	c-2,0-4,0.1-5.9,0.1c-4.9-3.8-10.1-5.4-16.1-2.3c-0.8,0.4-1.9,0.2-2.9,0.2c8.4-6.9,18.7-7.8,28.8-9.1c4,0,8.1,0.1,12.1,0.1
	c4.7,0.6,9.3,1.7,14.1,1.1c4.5,0,8.2,3.2,12.8,3.1c2,3.7,6.4,4.3,9.2,6.9c0.3,0.9,0.9,1.2,1.8,1l0,0c2,4.1,5.7,7.7,3.4,12.8
	c-6.2,3.8-13.4,4.1-20.1,5.9c-10.3,2.8-20.5,6-31.1,7.2C371,312,364.2,309.4,357.3,307z M420.9,299.7c3.7,0.5,4.9-0.7,4.4-4.3
	C423.9,296.8,422.4,298.3,420.9,299.7z"/>
<path class="st10" d="M248.1,180.4c1.2-3.8,4.4-5.4,7.7-6.3c2.5-0.7,3.7-1.7,4.3-3.9c1.2-4.5,4.3-7.3,8.4-9.2c3.8-1.8,7-4.2,8.2-8.6
	c0.3-1.1,0.8-3.7,2.9-1.7c5.4,5,12.5,2.7,18.5,4.7c0.7,1.3,2.1,0.8,3.1,1.1c3.4,1.1,3.9,3.3,1.2,5.8c-7.7,7.3-15.5,14.5-23.1,21.9
	c-1.9,1.9-3.6,2.1-6.2,1.4C264.9,183.7,256.5,182.2,248.1,180.4z"/>
<path class="st11" d="M475,135c-2.5-2.4-4.3-5.3-5.8-8.4c-1.6-3.5-2.2-7,0.6-10.1c2.8-3.1,6.4-2.3,9.7-1.2
	c10.7,3.8,15.8,12.3,18.7,22.6c1.9,6.9,2.3,13.8-2.3,19.9c-4.3,5.7-13,6.3-15.6,1c-1.7-3.4-3.6-7.1-3-11.2c2.5-3.2,2-10.6-0.8-12.8
	C476.1,134.6,475.4,134.9,475,135z M493.8,150.4c0.2,2-2.4,3.6-0.9,6c4.6-7.3,4.3-17.5-0.6-23.4c-1.4,2.9,1.6,4.9,1.5,7.5
	C491.5,143.1,491.5,147.8,493.8,150.4z"/>
<path class="st11" d="M286.2,71.6c3.1-3.3,6.8-5.4,11.5-5c0.3,0.6,0.5,1.6,0.8,1.7c3.9,0.4,7.4-1.1,10.7-2.6
	c1.3-0.6-0.1-1.5-1.1-1.8c3.3-3.5,7.6-5.6,11.7-8c4.7-2.7,10,0.5,10.1,6.2c0.1,6.3-2.7,11.6-7.1,15.9c-6.3,6.1-13.7,10.1-22.7,10.5
	c-1.1-1.9-0.2-3.2,3.2-3.6c3.4-0.4,6.4-1.4,8.9-4c-5.5,1.4-11,2.8-16.7,3c-2.6,0.1-0.2,1.9-0.2,2.9c-5.1,1.8-8,0.2-11.1-6.1
	c1.7-1,3.3-2.1,5.6-3.5c-3.2-0.1-5-0.6-3.7-3.4C286.6,72.7,287.1,72.2,286.2,71.6z"/>
<path class="st12" d="M488.1,226.4c-10.4-0.9-20.2,1-29.4,5.8c-9.5,5-10.3,12.7-2.6,19.9c6.3,5.9,14.4,7.6,22.2,9.9
	c2.3,0.7,4.7,2.6,7.2,0.4c0.5,0.3,1.1,0.7,1.6,1c0,0,0.7,0.4,1.5,0.8c1.2,0.6,8.1,1,17.5-0.1c0.5,0,1.2,0,2-0.1
	c3.4-0.3,6.5-1.7,10-2.2c6.9-1,6.2-1.3,8.5-2.3c2.7-1.1,6.7-3.5,10.5-9.2c0-0.1,0.1-2.3,1.5-3.6c0.3-0.2,0.6-0.4,1.2-0.4
	c2,7.1-3.6,13.8-11.9,18c-15.4,7.9-31.6,8.1-48.1,4.9c-10-1.9-19.4-5.7-27-12.9c-9.4-9-8.3-18.4,2.9-25.2
	c10.8-6.5,22.9-7.3,35.1-7.4c9.3-0.1,18.2,2.4,27.2,4.5c0.1,3-1.5,1.5-2.8,1.1c-5.7-1.4-11.2-3.4-17.2-3
	C494.6,226.2,491.4,226,488.1,226.4z"/>
<path class="st12" d="M263.1,54.5c5.3,4.5,6.4,9.4,4,16c-5.1,13.7-15.8,22.3-27.9,29.2c-13,7.4-27,11-42.1,9.1
	c-3.4-0.4-6.5-1.5-9.3-3.3c-7.1-4.6-8-12.9-2.7-21.3c6.6-10.5,16-17.9,26.9-23.3c0.7,1.3,1.2,0.5,1.7-0.2c0.5,1.7-1.1,1.8-1.8,2.6
	c-10.2,5.3-18.9,12-25,22.1c-4.3,7.2-1.6,14.9,6.5,17.1c11.7,3.1,22.8,0.1,33.1-4.4c8.6-3.7,16.8-8.6,24.2-14.7
	c5-4.2,9.7-8.5,12.3-14.6c1.9-4.4,2.5-9-1-13.1C262.4,55.2,262.7,54.8,263.1,54.5z"/>
<path class="st10" d="M442.9,200.6c1.3-2.9-3-4.8-1.3-7.8c2.7-1.8,0.5-4.2,0.7-6.3c0.3-2.9-1.8-6.1,1.1-8.7c4.4-1.8,6.7-6.3,11-8.4
	c1.3-0.7,1.7-3.6,4.4-3.2c-0.2-0.1-0.4-0.3-0.6-0.4c-0.5-0.2-0.9-0.2-1.4-0.4c1.6-0.8,3.1-1.6,5.4-2.8c-1.3,10.6,1.5,20.1,1.9,29.8
	c0.2,5.5-0.9,9.7-5.8,12.5c-4.8,2.7-7.8,8.1-13.5,9.5C443.2,210,444.7,205.1,442.9,200.6z"/>
<path class="st12" d="M200.2,229.8c0.3,2.5-2.8,4-1.8,6.7c-1.2,5.9-4.4,11-6.2,16.6c-4.7,6.4-9.4,12.7-14,19.1
	c-3.1,1.4-6.1,2.9-8,5.9c-6.9,3.4-13,8.3-21.3,8.6c-9.5,0.3-14.2-3.3-15.3-12.8c-0.8-7.4,0.9-14.5,3.7-21.3c0.4-1.1,1-2.1,0.9-3.3
	c0.1,0.2,0.3,0.2,0.5,0.1c0.7-0.1,1.3,0.1,1.6,0.9c-2.8,7.5-5.7,14.9-4.2,23.1c1.2,6.3,5.5,9.2,11.9,8.1c6.7-1.2,12.4-4.2,17.4-8.7
	c0.3-0.2,0.6-0.4,0.9-0.5l-0.1,0c2.5-0.4,3.9-2,5-4.1l0,0c0.7,0,1-0.4,1-1l0,0c0.7,0,1-0.4,1-1l0,0c0.7,0,1-0.4,1-1l0,0
	c2-1.2,3.8-2.5,3.8-5.2c5.8-6.5,10.5-13.9,13.1-22.1c1.9-5.9,5.2-11.3,4.4-18.1c-0.9-7.8-3.5-11.1-11.2-11.7c0-0.6,0-1.1-0.1-1.7
	c5.1-1.4,8.8,1.7,12.7,4.1c0.3,2.6,2.3,4.4,3.3,6.7C202.7,221.5,198.8,225.7,200.2,229.8z"/>
<path class="st13" d="M385.9,264.6c-7.7-0.1-16.9-8.4-17.8-15.3c-0.5-3.9,2.3-5.4,4.9-6.6c7.2-3.5,14.5-6.7,21.8-9.8
	c4.9-2.1,9.7,1.1,9.1,6.5c-0.9,7.8-3.1,15.3-9,21.2C392.2,263.4,389.3,265.2,385.9,264.6z M390.2,244.3c-0.3,2,0.1,3.7,2.5,4.1
	c3.1,0.5,7.8-4.5,8.3-8.6c0.2-1.8,0.1-3.3-2.3-3.5C395.2,235.8,390.7,240,390.2,244.3z"/>
<path class="st13" d="M136.1,311.5c-2.9-3.9-1.8-8.9,0.1-13.3c3.1-7.5,8.8-8,15.2-7.6c2,0.1,4.5-0.5,5,2.8c0.2,1.3,1.6,0.6,2.5,0.7
	c4.1,0.6,6.4,4.6,4.2,8c-3.7,5.9-6.1,12.4-9.1,18.7c-1.6,3.3-3.7,7.2-7.8,7.4c-3.8,0.2-5.3-3.9-7.2-6.7c-1.6-2.4-2.4-5-1.9-8
	c1.3-3.6,2.1-7.2,0-11.7C135.4,305.4,136.5,308.5,136.1,311.5z M149.2,317.6c-0.3-5.4-1.4-8.2-3-7.7c-4.3,1.5-4.5,5.2-4.1,9
	c0.1,1.1,0.5,2.2,0.9,3.3c0.6,1.5,1.6,2.5,3.4,2.3c1.8-0.2,2.6-1.5,2.8-3C149.4,320.3,149.2,318.9,149.2,317.6z"/>
<path class="st9" d="M170.1,278.2c1.9-3,4.9-4.5,8-5.9c6.7,6.1,14.1,11.3,22.6,14.7c1.1,0.4,2.2,0.8,2.6,2c2.5,4.3,7.3,3.6,11,5.2
	c0.4,0.2-0.1-1-0.3-1.5c2.1,0.3,4.7-1.5,6.1,1.6c-1.1,1.2-2,2.8-4,2.4c-6.1-0.7-12-2.6-18-4c-3.6-0.1-6.5-3.1-10.3-2.4
	c0-2.5-2.4-2.5-3.8-3.1C179.1,284.6,174.5,281.6,170.1,278.2z"/>
<path class="st3" d="M200.2,229.8c-1.4-4.2,2.6-8.3,0-12.5c3-0.5,7.5-9.2,5.9-11.7c-1.5-2.3-4,0.3-6.1-0.8c0.6-0.4,1-0.8,1.6-0.9
	c5.7-1.5,7.3-3.1,5.6-8.6c-1.9-6-1.1-12.3-5-18.4c-2.8-4.3-4-9.9-8.4-13.5c-1-0.9,2.1-1.2,0.7-2.6c12.1,12.4,17.6,26.9,15.3,44.6
	c-0.7,5.1-2.6,9.9-2.9,15C204,223.1,203.2,227.3,200.2,229.8z"/>
<path class="st3" d="M385.7,185c-1.3-3.1,1.7-3,3-3.5c6.9-2.5,13.5-5.2,18-11.4c0.9-1.2,2.6-0.8,3.5-2.2c2.9-4.5,6-8.8,9-13.2
	c0.6-0.9,0.8-1.8,0.2-2.8c0.2-0.2,0.4-0.4,0.6-0.6c2.4-1.9,2.2-5,3.7-7.4c0.9-1.4,1.3-0.8,2.1-0.5c0.9,6.7-2.4,12.2-5.7,17.5
	C412.2,173.7,400.6,181.8,385.7,185z"/>
<path class="st13" d="M490,201.3c0.1,4.5-2.6,7.1-7.5,7.1c-4.7,0-7.3-2.8-7.2-8c0.1-4.1,3.6-7.8,7.5-7.7
	C486.5,192.7,489.9,196.9,490,201.3z"/>
<path class="st13" d="M297.9,114.4c0,1.3,0.2,2.7-0.1,3.9c-0.5,2-1.7,3.5-3.8,4c-2.2,0.5-3.9-0.5-5.1-2.2
	c-2.8-3.6,1.5-12.2,4.1-13.3c2.6-1,3.9,1.1,4.7,3.1c0.5,1.3,0.2,2.9,0.3,4.4C298,114.4,298,114.4,297.9,114.4z"/>
<path class="st3" d="M123.3,286.3c-0.4,3.3-2.2,5.4-6,5.4c-3.7,0-6.5-2.7-6.1-6.2c0.4-3.6,2.5-5.9,6.2-5.8
	C121.2,279.6,123.2,281.9,123.3,286.3z"/>
<path class="st3" d="M159.9,120.3c0.3-3.7,2.2-5.8,5.9-6c3.5-0.2,6.4,2.8,6.3,6.2c-0.1,3.4-3.1,6.3-6.5,6.1
	C162.3,126.5,159.8,123.7,159.9,120.3z"/>
<path class="st9" d="M254,234.3c3.9,2.8,8.4,3.2,12.9,3.3c1.7,0,3,0,3.3,2c-0.1,2.4-0.2,4.8-0.2,7.2c0,0.2,0.1,0.5,0.1,0.7l0.1,0.1
	c-0.7,0-1.5,0-2.2,0c-0.6,0.3-1.3,0.6-1.9,0.9c-2.1-4.8-7.7-5.8-10.5-9.7C254.7,237.5,251.3,236.9,254,234.3z"/>
<path class="st1" d="M340.2,290.5c-2,5.2-6.6,6.1-11.3,6.8c-2.2,0.3-3.4-0.3-1.9-3c1.4-2.7,3.2-5,5.1-7.2c3.1-0.2,6.3-0.4,9.4-0.6
	C341.7,288,339.4,288.7,340.2,290.5z"/>
<path class="st12" d="M340.2,290.5c-0.8-1.8,1.6-2.5,1.4-4c7.2-8.4,17-11,27.4-12.1c2.3,0.6,4.8-0.7,7,0.9
	c-10.1,1.3-20.4,2.2-28.8,9.1C346.4,288.2,343.2,289.2,340.2,290.5z"/>
<path class="st3" d="M427.6,141c-2.4-1-3-2.5-2.7-5.3c0.8-7.4-1-14.6-3.1-21.7c-0.5-1.8-2-3.4,1.2-3.8
	C427.7,120.1,428.9,130.4,427.6,141z"/>
<path class="st13" d="M438.1,142.8c-0.3-3.5,1.2-5.9,4.2-5.8c2.8,0.1,5.1,2.7,5.4,5.5c0.3,3-2.6,5-5,5.1
	C440.2,147.7,437.3,146.2,438.1,142.8z"/>
<path class="st11" d="M539.8,246.5c-2.7,0.1-1,3.2-2.7,4c0.3-8.6-3.5-13.3-14.1-18c-1.2-0.5-4.3,0.1-2.9-3.1
	c7.8,3.1,15.1,6.8,19.2,14.8C539.5,244.8,539.6,245.7,539.8,246.5z"/>
<path class="st3" d="M96.5,190.4c-0.1,2.6-1.6,4-4,4.1c-2.5,0-4-1.5-4-4c-0.1-2.5,1.5-4,4-4C94.9,186.4,96.2,187.9,96.5,190.4z"/>
<path class="st7" d="M295.3,86.6c0-1-2.4-2.8,0.2-2.9c5.7-0.2,11.2-1.6,16.7-3c-2.5,2.6-5.5,3.6-8.9,4c-3.4,0.4-4.3,1.8-3.2,3.6
	C297.3,91.2,296.5,88.4,295.3,86.6z"/>
<path class="st3" d="M421.6,108.4c-4.2-0.4-4-4.7-5.8-7.1c-3.9-5-3.7-5.2-8.3-1.3c0.3-2.9,4.8-2.1,4.7-5.3
	C416.2,98.7,420.3,102.6,421.6,108.4z"/>
<path class="st11" d="M216.3,59.7c4-5,10.3-5.2,15.7-7.2c1.4-0.5,2.9-0.7,4.3-1c0.6,0.3,1.3,0.7,1.9,1l0,0c-1.6,1.4-3.7,1.3-5.6,1.9
	c-5,1.6-10.2,2.6-14.5,6c-0.6,0-1.3-0.1-1.9-0.1C216.3,60.1,216.3,59.9,216.3,59.7z"/>
<path class="st11" d="M376,275.3c-2.2-1.6-4.7-0.3-7-0.9c8-1.7,16-1.8,24,0c-1.6,0.4-3.5-0.6-4.9,0.9C384,275.3,380,275.3,376,275.3
	z"/>
<path class="st11" d="M263.1,54.5c-0.4,0.4-0.7,0.8-1.1,1.2c-7.4-5-15.8-2.9-23.9-3.1c0,0,0,0,0,0c0.1-0.6,0.3-1.1,0.4-1.7
	c6.9,2.2,14.1-1.4,20.9,1.4C260.8,52.8,262.2,53.2,263.1,54.5z"/>
<path class="st3" d="M475,135c0.5-0.1,1.2-0.5,1.4-0.3c2.9,2.3,3.3,9.6,0.8,12.8C476.7,143.4,476.7,139,475,135z"/>
<path class="st14" d="M266.1,248.4c0.6-0.3,1.3-0.6,1.9-0.9c-1.1,5.4-5.6,6.1-9.9,6.9C259.1,250.2,262.3,248.9,266.1,248.4z"/>
<path class="st3" d="M308.1,63.8c1,0.3,2.4,1.2,1.1,1.8c-3.3,1.6-6.8,3.1-10.7,2.6c-0.3,0-0.5-1.1-0.8-1.7
	C301.2,65.9,304.9,65.7,308.1,63.8z"/>
<path class="st4" d="M286.2,71.6c0.9,0.7,0.4,1.2,0,2c-1.3,2.8,0.5,3.3,3.7,3.4c-2.3,1.4-4,2.5-5.6,3.5
	C283.6,77.2,282.1,73.8,286.2,71.6z"/>
<path class="st12" d="M442.9,200.6c1.8,4.4,0.2,9.4,2,13.8c-0.2,0.9-0.3,1.9-1.7,1.8C443.5,211,440.8,205.9,442.9,200.6z"/>
<path class="st12" d="M388.1,275.3c1.4-1.5,3.3-0.5,4.9-0.9c3.3-0.3,6.4,0.4,9.2,2C397.4,277.1,392.8,276,388.1,275.3z"/>
<path class="st6" d="M136.1,311.5c0.4-3-0.7-6.1,1.1-9.7c2.1,4.4,1.3,8,0,11.7C136.8,312.8,136.5,312.1,136.1,311.5z"/>
<path class="st8" d="M216.3,59.7c0.1,0.2,0,0.4-0.1,0.6c-0.7,1.4-1.6,0.3-2.4,0.2c-0.5,0.7-0.9,1.5-1.7,0.2
	C213.1,59,214.4,58.4,216.3,59.7z"/>
<path class="st8" d="M238.5,50.8c-0.1,0.6-0.3,1.1-0.4,1.7c-0.6-0.3-1.3-0.7-1.9-1C236.7,50.5,237.6,50.6,238.5,50.8z"/>
<path class="st3" d="M193.8,160.2c0-0.3-0.2-0.5-0.5-0.4C193.4,160.1,193.6,160.2,193.8,160.2z"/>
<path class="st5" d="M378.2,313.4c10.6-1.2,20.8-4.4,31.1-7.2c6.7-1.8,13.9-2.2,20.1-5.9c2.2,0.2,4.4,0.2,6.5-0.6
	c10.6-2.1,21.2-4.2,31.8-6.3c3.7-1.8,8-1.4,12-2.3c4.8-1.2,10-1.6,15-2.5c1.5-0.3,4.1-0.8,4.6,0.5c0.6,1.8,1,4.7-0.7,6.2
	c-1.6,1.3-0.4,3.1-1.6,4.2c-1.8,0.1-2.2,1.5-3,2.8c-1.9,2.9-2.2,6.4-4.3,9.4c-5.7,8.3-10.7,17.1-17.7,24.5
	c-3.5,2.8-7.5,5.1-10.5,8.6c-6.7,2.7-13.5,5.3-20.2,8c-6.1,0.7-12.3,0.4-19.5-0.3c1.9,1,2.7,1.5,3.5,1.9c-9.4,0.7-18.4-1.6-27.1-4.6
	c-5.4-1.8-11.2-3.7-15.4-7.3c-3.1-2.7-7.3-3.4-10.1-6.9c-2.2-2.7-7.2-3-9.6-6c-2.3-2.7-7.3-3.1-7-8c0.4-0.4,0.8-0.8,1.2-1.1
	c3-0.7,5.9-1.4,8.9-2.2C370.3,317.1,374.9,316.7,378.2,313.4z M419.2,338.5c-0.4,2.4-0.8,4.8-1,7.2c-0.2,1.8,0.8,2.7,2.6,2.6
	c1.5,0,3,0,3.1-2.1c0.1-1.3,0.2-2.6,0.2-3.9c1.8,0,3.7,0.4,5.5,0c2.8-0.7,7.9,0.4,5.5-5.7c-0.5-1.2,0.6-2.1,1.7-2.7
	c1.3-0.7,2.9-0.8,3.5,0.6c2,4.3,4.5,1.8,6.9,0.7c0.6,0.1,1.3,0.1,1.9,0.2c1.5,0.4,3.3,1.7,4.4-0.2c0.9-1.7,0.4-3.5-1.2-4.9
	c-0.6-0.5-1.1-1.2-1.6-1.9c4.5-3.2,4.8-7,0.8-9.8c-3-2.1-3-4.8-0.1-6.1c4-1.8,1.4-3.1,0-3.8c-4.6-2.4-8.5-0.4-11.5,3.1
	c-4,4.7-8.9,5.3-14.4,3.8c-3.7-1-7.3-2-11-3c-8.4-2.1-14.6,1.8-15.1,9.4c-0.1,1.6,0.1,2,1.7,2c5.4,0.1,6,1,3.1,5.3
	c-0.8,1.3-1.3,2.2-0.4,3.5c1,1.6,2,1.3,3.3,0.5c3.2-2.1,4.1,0.2,4.8,2.6C413.3,340.9,415.1,341.5,419.2,338.5z M425.4,310.5
	c0.8,1.1,1.5,0.8,2.3,0.6c6.6-1.6,12.6-4.8,18.7-7.8c6.9-3.3,10.8-1.6,12.9,5.9c0.5,1.6,0.2,3.6,2,5.4c1.6-5.2-0.6-8.9-3.3-12.1
	c-2.5-3-6.2-3.9-9.9-2.2c-5,2.2-9.9,4.5-14.7,7C430.8,308.7,427.5,308,425.4,310.5z M400.6,312c-4.9,2.4-6.2,5.4-3.9,9.1
	C397.5,317.7,398.8,314.8,400.6,312z M393.1,312.3c-2.4,3.1-3.7,5.9-2.7,9.9c1.8-1.7,1.5-3.3,1.8-4.7
	C392.5,316,394.6,315,393.1,312.3z"/>
<path class="st6" d="M357.2,320.5c-0.4,0.4-0.8,0.8-1.2,1.1c-1,0.2-1.6,0.8-1.7,1.8c-0.8,1.3-2.1,2.7,0.7,3.1c1.7,5.2,5,9.5,8,14
	c3.9,5.8,9.8,9.6,14,15.1c-0.4,3.8-0.3,7.7,0.5,11.5c0.4,2,0.1,3-1.4,4c-4.1,1-8,2.3-12.3,2.8c-4.7,0.5-9.5,1.4-14.1,2.5
	c-6.1,1.5-12.4,0.8-18.4,2.9c-0.1-1.6-0.3-3.1-0.4-4.7c-1-5.5-1.4-11.2-3.2-16.4c-1.4-4-0.3-8.7-3.5-12.1c0.9-0.7,0.8-1.4,0.1-2.2
	c-0.1-0.8-0.2-1.6-0.3-2.3c1-1.7,2.1-3.4,3.1-5.1c6.6-3.9,13-8.1,19.2-12.7C349.6,321.4,352.9,319.4,357.2,320.5z"/>
<path class="st9" d="M354.3,323.4c0.1-1.1,0.7-1.7,1.7-1.8c-0.3,4.9,4.7,5.3,7,8c2.5,3,7.5,3.3,9.6,6c2.8,3.5,6.9,4.2,10.1,6.9
	c4.2,3.6,10,5.4,15.4,7.3c8.7,3,17.7,5.3,27.1,4.6c1.8,0,3.6-0.1,5.3,0.1c1.9,0.2,0.8,1.1,0.4,1.9c-8.3,2.7-16.6,5.4-24.9,8.1
	c-4.4-0.1-8.9,1.8-13.3-0.1c-5.5-2.4-10-6.8-15.7-8.7c-4.2-5.5-10.1-9.3-14-15.1c-3-4.5-6.3-8.8-8-14
	C355,325.4,355.3,324.3,354.3,323.4z"/>
<path class="st4" d="M324.2,346c3.2,3.4,2.2,8.1,3.5,12.1c1.8,5.2,2.2,10.9,3.2,16.4c-3.8-0.2-7.1,0.4-7.9,4.9c0,0,0.1-0.1,0.1-0.1
	c-2.9-0.6-7.3,2.6-8.2-4.1c0,5.9-5.8,2.9-7.5,6c-4.4,0-8.8,0-13.1,0c0-1.7-0.7-2.8-2.6-2.9c0-2-0.8-3.2-3-2.8
	c-3.2-3.4-3.4-7.2-1.4-11.3c6.5-1.6,12.6-1.2,18.7,2.3c2.9,1.7,6.7,1.5,10-0.1c1.2-1.1,2.6-2.1,3.6-3.3c2.2-2.7,2.4-5.3-0.9-7.3
	c-4.6-1.6-9.8,1-14.1-2.4c-1.5-1.2-3.6-2.1-4.7-3.6c-1.5-2,0.3-2.3,1.9-2.5c3.4-0.3,6.9,0.9,10.1-0.9
	C316.2,349.1,320.2,349,324.2,346z"/>
<path class="st3" d="M291.7,378.4c1.9,0.1,2.6,1.1,2.6,2.9c-2,1.1-4.1,0.9-6.3,1c-21,0.9-41.9-0.6-62.8-2.1
	c-7.5-0.5-14.9-2.8-22.3-4.4c-1-0.2-2.3-0.7-2.2-2.3c5.5-0.6,11.1,2.6,16.6-0.2c0.3,0.1,0.6,0.1,0.9,0c4.8,3.3,10.2,4.5,16,4.2
	c6.6,1.6,13.3,2.2,20.1,2c2.6-0.1,3.8-1.3,5.4-4.9c-0.3,4.3,0.6,5.8,3.9,5.8c8.3-0.2,16.6,0.1,24.9,0.1
	C289.7,380.4,292.1,381.4,291.7,378.4z"/>
<path class="st3" d="M467.7,293.4c-10.6,2.1-21.2,4.2-31.8,6.3c-5.2-1.9-3.9-7.5-6.2-11c11.5,0.7,22.9,1.4,34.4,2.2
	C465.7,291,467.6,291,467.7,293.4z"/>
<path class="st9" d="M471.9,336.1c7-7.4,11.9-16.3,17.7-24.5c2.1-3,2.3-6.5,4.3-9.4c0.9-1.3,1.2-2.7,3-2.8c0.3,1-0.5,2.2,0.5,3.1
	C493,314.3,490.1,327,479,335c-1.6,1.1-3.2,2.3-4.8,3.4C472.7,338.4,471.8,337.7,471.9,336.1z"/>
<path class="st3" d="M479,335c11.1-8,14-20.7,18.4-32.5c5.1,2.6,7.4,7.6,4.6,13.1C497.1,325.1,489.1,331.4,479,335z"/>
<path class="st6" d="M262.5,532.8c-18.8-7.1-35.1-17.6-46.7-34.6C229.2,512.8,244.2,525.1,262.5,532.8z"/>
<path class="st10" d="M377,355.6c5.8,2,10.2,6.3,15.7,8.7c-2.2,1.9-4.3,3.8-6.5,5.7c-3.4,0-6.6,1.9-10.1,1c1.5-1,1.8-2,1.4-4
	C376.7,363.3,376.6,359.5,377,355.6z"/>
<path class="st6" d="M513.5,404.8c0.9,7,0.2,14-0.7,20.9c-1,8.2-2.5,16.3-5,24.2c-0.5,1.5-0.1,4.7-2.4,4c-2-0.5,0.1-2.7,0.5-4.1
	c3.6-13.5,5.6-27.1,6-41.1c0-1.3,0.1-2.6,0.2-3.9C512.7,404.7,513.1,404.7,513.5,404.8z"/>
<path class="st3" d="M282.3,407.2c-21.4,1.9-42.8,0.3-64.1-2.1C239.5,406.9,260.9,406.9,282.3,407.2z"/>
<path class="st6" d="M492.9,481.8c3.7-8.2,7.4-16.4,11.1-24.7c0.5,0.2,1,0.4,1.5,0.7C502,466.1,499.1,474.7,492.9,481.8z"/>
<path class="st6" d="M198.8,467c2.1,2.1,14.1,26.9,14.2,28.5C207,486.9,202.2,478.1,198.8,467z"/>
<path class="st3" d="M182.3,347.4c2.6,2.2,2.2,4.7,1,7.5c-1.2,3-3.4,5.7-3.3,9.1C175,359.4,176.6,352.3,182.3,347.4z"/>
<path class="st6" d="M242.3,508.4c-5.8-2.2-9.5-6.6-12.7-11.6C234.5,500,237.8,504.9,242.3,508.4z"/>
<path class="st3" d="M386.2,370.1c2.2-1.9,4.3-3.8,6.5-5.7c4.4,1.9,8.9,0,13.3,0.1C399.8,367.7,392.9,368.4,386.2,370.1z"/>
<path class="st6" d="M494.3,458.9c2.4-6.7,4.4-12.2,4.3-18.2C501.1,445.2,499.1,454.9,494.3,458.9z"/>
<path class="st3" d="M430.9,356.4c0.5-0.8,1.5-1.7-0.4-1.9c-1.8-0.2-3.6-0.1-5.3-0.1c-0.8-0.5-1.6-0.9-3.5-1.9
	c7.2,0.7,13.4,1,19.5,0.3C438.2,355.2,434.8,356.4,430.9,356.4z"/>
<path class="st12" d="M429.8,288.6c2.3,3.5,1,9.1,6.2,11c-2.1,0.9-4.3,0.9-6.5,0.6c2.3-5.2-1.4-8.8-3.4-12.8
	C427.3,287.8,428.5,288.2,429.8,288.6z"/>
<path class="st3" d="M471.9,336.1c-0.1,1.6,0.8,2.3,2.3,2.3c-3.8,3-8.1,5.1-12.8,6.3C464.4,341.3,468.4,339,471.9,336.1z"/>
<path class="st3" d="M323,379.4c0.8-4.5,4.2-5.1,7.9-4.9c0.1,1.6,0.3,3.1,0.4,4.7C328.6,379.3,325.8,379.3,323,379.4z"/>
<path class="st3" d="M307.4,381.3c1.6-3.1,7.4-0.1,7.5-6c0.9,6.6,5.3,3.5,8.2,4.1C318,381.3,312.6,380.4,307.4,381.3z"/>
<path class="st3" d="M326.2,403.8c-4.5,0.2-8.6,4.7-14.3,0.9C317.2,404.5,321.6,402.9,326.2,403.8z"/>
<path class="st3" d="M484,354.4c2-3.4,5.7-4,8.9-5.3C490.7,352.1,487.6,353.8,484,354.4L484,354.4z"/>
<path class="st3" d="M484,354.4c-0.7,1.6-1.7,2.2-3.5,1.2C481.4,354,482.8,354.4,484,354.4C484,354.4,484,354.4,484,354.4z"/>
<path class="st12" d="M426.1,287.5c-0.9,0.2-1.5-0.1-1.8-1C425.1,286.3,425.8,286.5,426.1,287.5z"/>
<path class="st3" d="M308,297.5c-0.6,6-5.7,8.4-9.9,10.4c-3.1,1.5-6.3,3.4-9.7,4.2c1.6-2.5,4.2-4,6.6-4.9
	C300.4,305.2,304.1,301.3,308,297.5z"/>
<path class="st3" d="M277.9,277.6c0,0-0.1,0.3-0.1,0.3c-5-4-5.2-7.4-0.6-11.4c1.2-1.1,2.6-1.9,3.9-2.9c0.7-0.3,1.4-0.6,2.4-1.1
	c-1.5,5-10.7,5.7-6.4,13C277.4,276.2,277.7,276.9,277.9,277.6z"/>
<path class="st11" d="M234.1,377.5c-5.8,0.3-11.1-0.9-16-4.2c0.4-0.3,0.9-0.8,1.2-0.8C224.4,373.6,229.6,374.7,234.1,377.5z"/>
<path class="st3" d="M287.3,364.3c-1.9,4.1-1.8,7.8,1.4,11.3c-0.6,1.9-1.8,0.9-2.4,0.3c-2.9-3-2.5-8.8,0.7-12.4l0.1,0.1
	C287.1,363.8,287.2,364.1,287.3,364.3z"/>
<path class="st3" d="M324.2,346c-3.9,3-8,3.1-12.2,0.5c1.6-1.1,1.7-1.2,3-0.9c2.3,0.6,4.4,0.3,6.5-0.7c0.8-0.8,2.7,1.4,2.8-1.1
	C325,344.6,325,345.3,324.2,346z"/>
<path class="st3" d="M244,293.5c1.8-1.4,1.8,0.2,2,1.3c0.7,4.2,2.2,7.4,7.3,6.9c0.1,0,0.3,0.8,0.4,1.2
	C247.8,303.4,247.2,302.8,244,293.5z"/>
<path class="st3" d="M318.7,355.9c3.3,2.1,3.2,4.6,0.9,7.3c-1,1.3-2.4,2.2-3.6,3.3c-0.5-0.7-3.3-0.9-0.3-2.4
	C318.9,362.5,320.2,359.5,318.7,355.9z"/>
<path class="st3" d="M256.9,326.1c-0.9,4.8-1,9.4,0.7,15.1c-3-3.1-2.4-5.7-2.7-8.1c-0.1-1.1,0.4-2.8-0.2-3.4
	C250.8,325.8,256.3,327.4,256.9,326.1z"/>
<path class="st10" d="M261.8,367.7c-0.1,0.6,0.1,1.7-0.2,1.9c-1.2,0.6-1.3-0.4-1.3-1.2c0-1.2,0-2.3,0-3.5c0-2.9,0-5.8,0-8.9
	c2.2,0.4,1.5,3.1,3.5,2.9C258.8,360.9,261.3,364.5,261.8,367.7z"/>
<path class="st11" d="M231.9,296.4c-0.6-0.1-1.2-0.2-1.9-0.3c1.1-1.7,1-4.4,3.2-5c0.9-0.2,3.2-4.3,3.8,0.4c-1.4,0.2-0.2,2.5-1.9,2.4
	c-0.1-0.4-0.2-0.8-0.3-1.2c-0.2,0.3-0.5,0.5-0.7,0.8c0,0,0.1-0.1,0.1-0.1c-1.3,0.2-1.3,1.1-1.1,2.1c0,0,0.1-0.1,0.1-0.1
	C232.7,295.8,232.3,296.1,231.9,296.4z"/>
<path class="st3" d="M191.2,350.6c-0.8-4,2.9-9,6.5-8.7c0,0,0,0.8-0.1,1.3C194,344.4,193.4,348.1,191.2,350.6z"/>
<path class="st6" d="M209.9,359.9c-4,1.8-6.1-1-9.1-3.4c2.6-0.9,3.9,0.3,4.9,1.3C206.9,358.8,209.1,357.7,209.9,359.9z"/>
<path class="st3" d="M261.8,367.7c-0.5-3.2-2.9-6.8,1.9-8.9c0.7-0.3,1.6,0.1,1.1,0.7C262.6,361.8,263.3,365.1,261.8,367.7z"/>
<path class="st12" d="M235.2,316.4c-3.1-2.2-3.1-6.4-0.1-9c0.1,1.3,0.2,2.6,0.3,3.9c0,0.8,0,1.6,0,2.4
	C235.3,314.6,235.3,315.5,235.2,316.4z"/>
<path class="st4" d="M298.6,360.3c-3.5,1.8-5.8,1.1-8.8,0.1C292.8,358.9,295.1,359.2,298.6,360.3z"/>
<path class="st3" d="M274.6,295c-1.3,2.4,3.8,2.4,1.8,4.9c-0.3,0.3-1.1,0.6-1.2,0.5C273.2,298.9,274.3,296.9,274.6,295z"/>
<path class="st3" d="M231.9,296.4c0.4-0.3,0.8-0.7,1.3-1c0,2.6-0.1,5.2-0.1,7.8C231,301.2,232.6,298.6,231.9,296.4z"/>
<path class="st4" d="M308.5,364.2c0.1,0.9-0.6,1.1-1.2,1.1c-0.6,0-1.4-0.2-1.6-0.6c-0.4-0.6,0.1-1.1,0.9-1.2
	C307.3,363.5,308.1,363.4,308.5,364.2z"/>
<path class="st10" d="M277.9,247.8c0,0.2,0,0.4-0.1,0.6c-2.5-0.3-5.2,0.7-7.5-0.8c0,0-0.1-0.1-0.1-0.1
	C272.7,247.6,275.3,247.7,277.9,247.8z"/>
<path class="st4" d="M324.3,343.8c0,2.6-2,0.4-2.8,1.1c-0.2-1.9,1.2-2.7,2.5-3.5C324.1,342.2,324.2,343,324.3,343.8z"/>
<path class="st12" d="M214.2,353.4c1.1-3.2,3-2.3,4.9-0.8C217.3,352,215.9,353.4,214.2,353.4z"/>
<path class="st4" d="M254.1,304.5c-0.6,1-1.1,2.1-2.6,1.5c-0.3-0.1-0.7-1-0.6-1.1C251.8,304,253,304.6,254.1,304.5
	C254.1,304.4,254.1,304.5,254.1,304.5z"/>
<path class="st4" d="M255.4,276.4c-0.4,0.2-0.8,0.6-1.2,0.6c-0.9,0-1-0.7-0.8-1.3c0.1-0.3,0.6-0.5,1-0.8
	C254.5,275.2,254.8,275.6,255.4,276.4z"/>
<path class="st4" d="M285.1,251.3c0,0.8-0.1,1.5-0.8,1.6c-0.9,0.2-1-0.6-1-1.3c0.1-0.8,0.7-1,1.3-1.2
	C285.8,250.3,284.5,251.3,285.1,251.3z"/>
<path class="st4" d="M197.4,364.4c0.2-0.2,0.4-0.4,0.6-0.5c0.2,0.3,0.4,0.6,0.6,1c-0.3,0.1-0.6,0.3-0.8,0.3
	C197.7,365,197.6,364.6,197.4,364.4z"/>
<path class="st4" d="M193.2,359.3c0.8,0.2,1.7,0.3,1.5,1.3c-0.1,0.4-1,0.5-1.5,0.8c0,0-0.1-0.1-0.1-0.1c0-0.6,0-1.3,0-1.9
	L193.2,359.3z"/>
<path class="st4" d="M287,363.4c0.2-0.7,0.2-1.7,1.3-1.6c0.1,0,0.3,0.2,0.3,0.3C288.7,363.4,287.8,363.3,287,363.4
	C287.1,363.5,287,363.4,287,363.4z"/>
<path class="st4" d="M257.1,285.4c0.1-0.5-0.1-1.3,0.8-1.3c0.2,0,0.6,0.4,0.6,0.6C258.4,285.6,257.7,285.4,257.1,285.4
	C257.1,285.5,257.1,285.4,257.1,285.4z"/>
<path class="st4" d="M302,345.2c-0.1-0.3-0.3-0.6-0.2-0.8c0.1-0.2,0.5-0.3,0.7-0.4c0.1,0.3,0.3,0.6,0.2,0.8
	C302.6,345,302.2,345.1,302,345.2z"/>
<path class="st4" d="M307.6,344c0.3,0.2,0.6,0.2,0.7,0.5c0.1,0.1-0.1,0.5-0.2,0.7c-0.3-0.1-0.6-0.2-0.7-0.4
	C307.3,344.6,307.6,344.2,307.6,344z"/>
<path class="st4" d="M201.8,366.4c-0.2,0.2-0.4,0.4-0.6,0.6c-0.1-0.2-0.3-0.4-0.4-0.6c0-0.1,0.2-0.3,0.3-0.3
	C201.4,366.2,201.6,366.3,201.8,366.4z"/>
<path class="st4" d="M255.1,281.4c0.1-0.5-0.1-1.3,0.8-1.3c0.2,0,0.6,0.4,0.6,0.6C256.4,281.6,255.6,281.3,255.1,281.4
	C255.1,281.4,255.1,281.4,255.1,281.4z"/>
<path class="st4" d="M252.5,272.9c-0.3,0.1-0.6,0.3-0.8,0.2c-0.2-0.1-0.3-0.5-0.4-0.8c0.2-0.1,0.6-0.3,0.7-0.2
	C252.3,272.3,252.4,272.6,252.5,272.9z"/>
<path class="st3" d="M233.1,295.5c-0.3-1-0.2-1.8,1.1-2.1C234.5,294.5,234.2,295.2,233.1,295.5z"/>
<path class="st3" d="M234.1,293.5c0.2-0.3,0.5-0.5,0.7-0.8c0.1,0.4,0.2,0.8,0.3,1.2C234.8,293.8,234.4,293.6,234.1,293.5z"/>
<path class="st3" d="M357.2,320.5c-4.3-1.1-7.6,0.9-10.9,3.2c-4.2,0-4.8-2.4-4.2-5.9c0.7-4,2.9-7,6-9.4c3.6,3,7.8,5.1,12.1,7.2
	c2,1,4.8,0.2,6,2.8C363.1,319,360.2,319.8,357.2,320.5z"/>
<path class="st12" d="M366.1,318.3c-1.2-2.6-4-1.8-6-2.8c-4.2-2.1-8.4-4.1-12.1-7.2c2.7-3.4,5.6-4.6,9.2-1.3
	c6.9,2.3,13.8,4.9,20.9,6.3C374.9,316.7,370.3,317.1,366.1,318.3z"/>
<path class="st6" d="M375.6,298.5c-2.1-0.3-4.1,0.4-6.1,0.9c0.6-3.8-0.2-7.4-1.5-10.9c1.6,0.1,2.9,0.6,4,1.8
	c-0.2,1.7-0.2,3.3,2.2,3.4c1.6,0,3.7-0.4,4.2,1.4C379,296.7,376.4,297.1,375.6,298.5z"/>
<path class="st6" d="M367.1,304.4c3.8,1.5,7.7,2.5,11.9,2.1c1.2-0.1,2.4,0.4,2.8,1.6c0.2,0.5,0,1.4-0.4,1.7c-1,0.8-2.2,0.6-3.2-0.1
	c-3.6-2.7-9.2,0.1-12.1-4.4C366.3,305,366.7,304.7,367.1,304.4z"/>
<path class="st15" d="M372,290.2c-1.1-1.2-2.4-1.7-4-1.8c-1-0.3-1.7-0.9-1.9-2c2,0,4-0.1,5.9-0.1c2.2,0,5.4,0.2,5.3,2.5
	C377.2,291.8,373.9,289.8,372,290.2z"/>
<path class="st10" d="M292.7,260.8c-0.9-4.2,0.8-7.5-0.3-11.1C296.2,252,296.4,255.1,292.7,260.8z"/>
<path class="st3" d="M277.9,247.8c-2.6-0.1-5.2-0.2-7.7-0.3c-0.1-0.2-0.1-0.5-0.1-0.7C272.8,245.8,275.6,244.9,277.9,247.8z"/>
<path class="st2" d="M277.9,277.6c-0.3-0.7-0.5-1.4-0.8-2.1C279,275.7,279.4,276.3,277.9,277.6z"/>
<path class="st14" d="M214.6,246c7.5,6.2,7.3,12.6-0.6,17.8c-1.2,0.8-2.5,1.5-3.8,2.2c-1,0.1-1.9,0.1-2.9,0.2
	c-0.2-1.2,0.6-1.7,1.6-2.2c9.9-4.7,12.1-7.5,5.1-17.4C214.1,246.5,214.4,246.2,214.6,246z"/>
<path class="st6" d="M225,282.2c-4.6-2.5-8.6-5.8-14-6.7c-0.6-0.1-1-0.9-0.7-1.6c0.3-0.8,1-0.8,1.6-0.6
	C217.2,274.9,222.2,276.9,225,282.2z"/>
<path class="st14" d="M198.2,292.5c6,1.5,11.8,3.3,18,4c-0.2,1.1-0.9,1.7-2.1,1.7C208.1,298.2,202.7,296.7,198.2,292.5z"/>
<path class="st2" d="M223.2,342.4c0,1.9,0,3.3,0,5.1C221.8,345.6,221.8,344.2,223.2,342.4z"/>
<path class="st2" d="M191.7,356.8c0.1,0.7-0.1,1.2-0.7,1.1c-0.3-0.1-0.6-0.6-0.8-1c-0.1-0.2,0.2-0.5,0.4-0.8
	C191,356.3,191.4,356.6,191.7,356.8z"/>
<path class="st2" d="M193,359.5c0,0.6,0,1.3,0,1.9c-0.7-0.3-1.4-0.6-1.2-1.5C191.9,359.6,192.6,359.6,193,359.5z"/>
<path class="st2" d="M235.2,316.4c0.1-0.9,0.1-1.8,0.2-2.7C236.5,314.7,236.2,315.5,235.2,316.4z"/>
<path class="st15" d="M393.1,139.5c4.2,0.8,5.9-1.5,6-5.1c0.1-3.4-1.8-5.8-5.3-6c-4.5-0.2-7.1,2.2-6.9,6
	C387.2,138.1,388.9,140.4,393.1,139.5z"/>
<path class="st9" d="M296.3,218.6c-4.8-5.5-1.8-14.3,5.8-16c4.2-1,8.3-2.1,12.7-2.2c6.6-0.2,11.4-4.2,13.4-10.6
	c1.1-3.7,3.4-6.3,7.4-6.2c2.1,0,5.8-0.3,2.6,4.1c-2.3,3.2,0.4,4.6,3.1,4.8c3,0.2,4.2,1.9,4.6,4.3c0.5,2.6,0.3,4.8-3.5,3.8
	c-2-0.5-4.2-0.5-4.8,2.1c-0.5,2.2,0.9,3.3,2.6,4.3c1.4,0.8,3.4,1.2,2.3,3.6c-1,2.3-2.6,2-4.6,1.3c-3-1-6,0.2-4.5,3.2
	c2.9,5.9-1.3,6.7-4.7,8.4c-0.9,0.5-1.9,0.7-2.8,1c-1.5-1.9-1.7-6-5.8-3.1c-1.4,2.1-1,6.3-5.6,5c-1-0.3-2-0.2-2.5-1.3
	c-1.5-3.2-3.4-3.6-6.2-1.2c-2.1,1.8-3.9,1-4.8-1.6c1.4-3.1,2.5-6-2.8-5.9c-0.9,0.3-1.1,1.1-1.2,1.9
	C296.8,218.5,296.5,218.6,296.3,218.6z"/>
<path class="st13" d="M320.1,221.5c4.1-2.9,4.3,1.2,5.8,3.1c0,1.1,0.2,2.3,0.1,3.4c-0.1,1.6,0.9,4.1-2,4.1c-2.1,0-3.6-1.7-3.8-3.8
	C320,226.1,320.2,223.8,320.1,221.5z"/>
<path class="st3" d="M375.6,157.9c0.2,0.8,0.3,1.7,0.5,2.5c-0.1,2.3-0.2,4.6-0.3,7c-0.6,4.3-1.2,8.7-1.9,13c-0.3,1.7-1,3-1.8,0.1
	c1.7-6,2-12.2,2-18.4C374.2,160.5,373.6,158.7,375.6,157.9z"/>
<path class="st13" d="M298.2,216.5c5.3-0.1,4.3,2.8,2.8,5.9c-0.6,0.6-1,1.3-1.7,1.7c-1.5,1-3.3,2.2-4.7,0.5c-1.1-1.3-0.8-3,0.7-4.3
	c0.4-0.4,0.6-1.1,0.9-1.6c0.3-0.1,0.5-0.1,0.8-0.2C297.9,218.1,298.1,217.3,298.2,216.5z"/>
<path class="st14" d="M291.1,216.7c-2.8-3.2-2.6-6.5,0-9.9C291.1,210.1,290.9,213.4,291.1,216.7z"/>
<path class="st14" d="M286.7,220.8c-3.5-3.4-2.7-6.6-1.1-9.9C286,213.9,286.3,216.9,286.7,220.8z"/>
<path class="st14" d="M340.9,176.7c-2.8-0.4-5.6-0.6-8.3,0.1c-0.2-0.2-0.4-0.4-0.6-0.6c3.1-2.7,6.3-3,9.5-0.2
	C341.2,176.3,341,176.5,340.9,176.7z"/>
<path class="st3" d="M366.4,198.8c3.3,0.8,0.4,2.3,0.2,3.1c-0.5,1.6-1.1,3.4-2.6,4.6C363.6,203.5,366.1,201.5,366.4,198.8z"/>
<path class="st14" d="M323.7,186c0.6-2.5,2.3-4.1,5.3-6.5c-1.1,3.8-2.8,5.5-4.7,7.1C324.1,186.4,323.9,186.2,323.7,186z"/>
<path class="st3" d="M364.1,206.4c-0.3,2.2-1.6,4-3,5.6c-0.8,1-1,0-1.2-0.5C361.7,210.1,361.5,207.1,364.1,206.4z"/>
<path class="st14" d="M318.2,192.6c-1.1,1.6-2.4,3-5.1,3.6c0.8-2.7,2.4-3.7,4.5-4.2C317.9,192.3,318,192.4,318.2,192.6z"/>
<path class="st3" d="M339.1,163.4c1.6-0.8,1.7,1.1,2.7,1.4c-1,0.5-2.1,1.1-3.1,1.6C338.9,165.4,339,164.4,339.1,163.4z"/>
<path class="st14" d="M346.3,181.2c0.8,0.7,1.7,1.4,1.5,2.7c0,0.2-0.5,0.3-0.8,0.3c-1.1-0.3-1.1-1.4-1.4-2.3
	C345.9,181.7,346.1,181.4,346.3,181.2z"/>
<path class="st14" d="M341.4,176.1c1.3,0.3,2.5,0.7,2.9,2.2c-0.2,0.2-0.4,0.4-0.7,0.5c-1.2-0.3-2-1.2-2.7-2.2
	C341,176.5,341.2,176.3,341.4,176.1z"/>
<path class="st14" d="M345.7,181.9c-1.3-0.6-1.7-1.8-2.1-3c0.2-0.2,0.4-0.4,0.7-0.5c1.2,0.6,1.8,1.7,2.1,2.9
	C346.1,181.4,345.9,181.7,345.7,181.9z"/>
<path class="st14" d="M332.5,176.9c-0.4,0.7-0.6,1.5-1.6,1.5c-0.2,0-0.6-0.4-0.6-0.5c0-1,0.8-1.2,1.6-1.5
	C332.1,176.5,332.3,176.7,332.5,176.9z"/>
<path class="st14" d="M319.7,190.1c0.3-1.1,0.9-1.7,2-2c0.2,0.2,0.4,0.4,0.6,0.6c-0.7,0.7-1.4,1.3-2,2
	C320.1,190.5,319.9,190.3,319.7,190.1z"/>
<path class="st14" d="M317.7,192.1c0.3-0.4,0.7-0.7,1-1.1c0.2,0.2,0.5,0.5,0.7,0.7c-0.4,0.3-0.8,0.6-1.1,0.9
	C318,192.4,317.9,192.3,317.7,192.1z"/>
<path class="st14" d="M324.2,186.6c-0.3,0.4-0.6,0.7-0.9,1.1c-0.3-0.2-0.5-0.5-0.8-0.7c0.4-0.3,0.7-0.7,1-1
	C323.9,186.2,324.1,186.4,324.2,186.6z"/>
<path class="st14" d="M323.4,187.8c-0.4,0.3-0.7,0.6-1.1,0.9c-0.2-0.2-0.4-0.4-0.6-0.6c0.3-0.3,0.6-0.7,0.9-1
	C322.9,187.3,323.1,187.5,323.4,187.8z"/>
<path class="st14" d="M318.7,191c0.3-0.3,0.7-0.6,1-0.9c0.2,0.2,0.4,0.4,0.6,0.6c-0.3,0.4-0.6,0.7-0.9,1.1
	C319.1,191.5,318.9,191.3,318.7,191z"/>
<path class="st16" d="M280.1,137.5c-0.1,0.1-0.1,0.3-0.2,0.4C279.9,137.8,280,137.6,280.1,137.5
	C280.1,137.5,280.1,137.5,280.1,137.5z"/>
<path class="st3" d="M362.1,88.5c-31.6,9.3-43.9,45.6-24,72.3c0.6,0.8,2.2,1.3,1,2.7c-5.9-3.4-8.5-9.1-10.6-15.1
	c-0.9-2.5-1.8-4.7-5.7-3c4.2-1.4,3.6-4.1,2.9-6.8c-1.7-6.6-0.8-13.1,1-19.5c2.2-7.4,5.9-13.6,11.2-19.8c3.1-3.7,7.7-5.2,10.9-8.3
	c3.3-3.2,7.3-2.2,10.9-3.5C360.6,86.9,361.8,87.2,362.1,88.5z"/>
<path class="st3" d="M419.5,151.9c0-0.4,0-0.7,0-1.1c0.2,0.2,0.4,0.4,0.6,0.5C420,151.6,419.7,151.8,419.5,151.9z"/>
<path class="st12" d="M443.5,177.9c-2.9,2.6-0.9,5.8-1.1,8.7c-0.2,2.1,2,4.5-0.7,6.3c-0.2-2.7-0.6-5.3-0.6-8c0.1-3.6,0-6.8-5.4-5.6
	C438.6,179.1,440.7,177.1,443.5,177.9z"/>
<path class="st5" d="M174.7,163.1c7.7,10.1,12.9,21.6,19.4,32.3c1,1.7,2,3.4,2.9,5.2c1.6,3.4,1.5,6.8-0.3,10.1
	c-3.9-2.4-7.5-5.5-12.7-4.1c-5.9-1.1-9.7,2.7-13.7,5.9c-0.9,1-1.7,2.1-2.6,3.1c-1.5-0.2-2.8-0.8-4.4,0.8c-1.5,1.6-3,3.5-5.3,4.2
	c-0.3-6,0.9-11.8,1.8-17.6c0.5-3.4,0.4-7,4.3-8.7c0.8-0.4,1.2-1.5,0.7-2.1c-1.9-2.5-0.6-4.1,1.2-5.7c1.2-1,1.3-2.6,0.8-3.6
	c-1.5-2.9,0.3-4.1,2.1-5.4C171.4,172.7,174,168.3,174.7,163.1z M193.3,199.6c-2.8-2.9-6-2.6-10.7-1.3
	C186.8,200,190.2,198.8,193.3,199.6z M185.2,203.8c3.4,0.8,5.5,1,8.2,0C190.7,202.2,188.7,202.2,185.2,203.8z M196.3,205.8
	c-0.5-0.5-0.7-1-1.1-1.2c-0.2-0.1-0.6,0.1-0.9,0.2c0.1,0.4,0.2,1,0.5,1.1C195.1,206.2,195.6,205.9,196.3,205.8z"/>
<path class="st3" d="M146.5,153.7c-11.5,3.7-21.5,9.5-28.1,20c-11.3,17.9-11.4,35.3,3.7,55.6c-4.1-1.1-6.3-4.2-8-7.8
	c-0.6-1.2-1.2-2.4-1.8-3.5c-4.8-8.9-5.3-18.6-4.8-28.3c0.1-2,2-3.6,2.4-6c0.4-2.7-0.7-3.5-3.4-5c6.5,1.6,6-3.8,8.3-6.1
	c1.9-1.9-1-2.4-1.7-4.6c2.9,2.1,4.5,1.2,6-1c3-4.5,7.8-6.9,12.2-9.8c4.7-3.1,9.8-4.2,15.2-4.5c0,0.1-0.1,0.3-0.1,0.4
	C146.3,153.2,146.4,153.5,146.5,153.7z"/>
<path class="st11" d="M142,242.4c1.1-1.8,2.7-3.4,2.3-5.8c1-0.1,1.9-0.2,2.9-0.3c0.2,0.5,0.4,1.1,0.6,1.6c-3.4,3.7-4.6,8.6-7.6,12.5
	c-0.3-0.7-0.8-1-1.6-0.9C139.7,247.2,140.9,244.8,142,242.4z"/>
<path class="st11" d="M146.5,153.7c-0.1-0.2-0.1-0.5-0.2-0.7c0-0.1,0-0.3,0.1-0.4c5.9-1.8,11.9-0.3,17.9-0.4c0.1,0,0.3,0.3,0.3,0.4
	c-0.1,0.3-0.3,0.6-0.4,0.9C158.3,153.3,152.4,152.9,146.5,153.7z"/>
<path class="st12" d="M510.9,247.7c-0.9,2.6-2.9,1.7-4.7,1.6c-2-1-4-2.8-5.9,0.2c-0.1,1.4-1.1,1.8-2.3,2c-1.4-0.3-2.7,0.2-4,0.8
	c0,0,0.1,0.1,0.1,0.1c-0.7-4.4-2.2-5.2-6-3c-0.7,0.4-1.4,0.7-2.1,1.1c-1.2-0.6-2.5-1.2-3.7-1.8c1.6-0.5,3.2-0.9,3.6-2.9
	c0.1-0.8-0.5-1.5-1.1-1.2c-4.4,1.6-5.7-3.1-8.8-4.2c0,0,0,0,0,0c3-0.2,6.1,1.1,9.2-0.7c-2.5-3.4-5.8-3.4-9.1-3.4
	c1.9-2.8,4.6-3.2,7.6-2.5c4.6,3.9,6.7,3.8,8.2-0.4c2.2,0.6,5.7-3,6.5,2.3c0.2,1.2,2.3,0.8,3.5,0.3c1.3-0.6,2.3-1.9,3.9-1.8
	c0.9,0.6,2.2,0.7,2.1,2.2c-1.5,0.1-2.5,1-2.3,2.5c0.3,1.8,1.9,1.4,3.1,1.3c1.1-0.1,2.1-0.5,3.2-0.8c0.6,0.2,1.5,0.1,1.8,0.9
	c-2.2,1.9-4.3,4.1-7.7,4.3C507.3,246.9,509.3,247,510.9,247.7z"/>
<path class="st15" d="M510.9,247.7c-1.6-0.7-3.6-0.8-4.8-3.1c3.4-0.3,5.4-2.4,7.7-4.3c0.7-0.1,1.3-0.6,0.9-1.2
	c-0.8-1-1.8-0.8-2.6,0.3c-1.1,0.3-2.1,0.8-3.2,0.8c-1.2,0.1-2.8,0.5-3.1-1.3c-0.2-1.5,0.8-2.3,2.3-2.5c3.6-2,6.9-3.7,9.1,2
	c0.9,2.4,4.3,1.7,7.1,2.9c-2.1,1.2-3.6,2.1-5,2.9c-1.2,0.7-2.5,1.1-0.4,2.6c1.6,1.1-0.3,1.4-1.1,1.5
	C515.4,248.6,513.1,248.5,510.9,247.7z"/>
<path class="st15" d="M505.9,234.2c-1.7-0.1-2.6,1.2-3.9,1.8c-1.2,0.5-3.3,0.9-3.5-0.3c-0.7-5.3-4.3-1.7-6.5-2.3l0.1,0.1
	c0-0.3-0.1-0.7-0.1-1c-0.3-2.7-3.5-3.4-3.9-6c3.3-0.4,6.6-0.3,9.8,0.3c-0.3,3.1,1.1,4.2,4.1,3.7C504.8,230,506.5,230.9,505.9,234.2z
	"/>
<path class="st15" d="M476,240.5c3.1,1.1,4.4,5.8,8.8,4.2c0.6-0.2,1.2,0.5,1.1,1.2c-0.4,2-2,2.4-3.6,2.9c-3.2,0.7-6.2,2-7.3-3.3
	c-0.4-2.2-4.3-0.3-6.6-1.6C470.1,240.6,472.2,238.8,476,240.5z"/>
<path class="st6" d="M476,256.5c-6.4,0.1-11-3.3-15.9-7c2.9-2.2,4.5,0.2,5.8,1.1C469.1,252.8,473.4,253.2,476,256.5L476,256.5z"/>
<path class="st15" d="M486.1,250.5c0.7-0.4,1.4-0.7,2.1-1.1c3.8-2.2,5.3-1.5,6,3c-1.3-0.1-1.9,1.3-2.9,1.6
	C488.3,254.9,485.5,255.1,486.1,250.5z"/>
<path class="st15" d="M492,233.4c-1.5,4.2-3.7,4.3-8.2,0.4c0.3-1.2-2.1-1.7-1-2.8c0.6-0.6,2.2-0.7,3.2-0.5c1.5,0.4,2.8,1.3,4.2,1.9
	C490.6,233.1,490.8,234.4,492,233.4L492,233.4z"/>
<path class="st15" d="M494.1,252.3c1.2-0.6,2.5-1.2,4-0.8c1.3,1,2,2.8,3.9,3c0,0.7,0,1.3,0,2c-1.2,0.1-1.9,0.8-1.9,2
	C495.7,258.6,493.8,256.4,494.1,252.3z"/>
<path class="st15" d="M476.1,236.4c3.3,0.1,6.6,0,9.1,3.4c-3.1,1.8-6.2,0.5-9.2,0.7C477.6,239.1,471.6,237.6,476.1,236.4z"/>
<path class="st3" d="M506,264.3c-6.4,3.2-12.8,2.8-18.9-0.7c2.4-0.9,4.4,1.7,6.8,0.8c0.4,0,0.9,0,1.3,0
	C498.8,264.3,502.4,264.3,506,264.3z"/>
<path class="st15" d="M500.3,249.4c1.9-2.9,3.9-1.2,5.9-0.2c0.7,1.4,2.7,2.3,1.5,4.3c-0.9,1.4-2.4,0.7-3.6,0.8
	C503.4,252.2,501.7,251,500.3,249.4z"/>
<path class="st6" d="M476.1,256.4c4.9-1,8.9,2,13.3,3.2C484.5,260.4,480,259.4,476.1,256.4C476,256.5,476.1,256.4,476.1,256.4z"/>
<path class="st6" d="M506,264.3c-3.6,0-7.2,0-10.8,0c2.6-2.6,9.7-2.7,12.9-0.1C507.4,264.2,506.7,264.2,506,264.3z"/>
<path class="st6" d="M530,250.4c-0.3-2.4,0.6-4.1,2.6-5.3c0.6-0.4,1.3,0.2,1.2,1C533.7,248.5,532.2,249.8,530,250.4L530,250.4z"/>
<path class="st6" d="M500.3,249.4c1.4,1.5,3.1,2.8,3.8,4.9c-0.7,0-1.4,0.1-2.1,0.1c-1.9-0.2-2.6-2-3.9-3
	C499.2,251.3,500.2,250.9,500.3,249.4z"/>
<path class="st6" d="M493.8,264.3c-2.4,0.9-4.4-1.7-6.8-0.8c-0.5-0.3-1.1-0.7-1.6-1C488.2,263.4,491.8,260.3,493.8,264.3z"/>
<path class="st6" d="M500,258.4c0.1-1.2,0.7-1.9,1.9-2C502,257.8,501.3,258.4,500,258.4z"/>
<path class="st6" d="M530,250.5c-0.1,0.7-0.1,1.6-1.2,1.5c-0.1,0-0.3-0.2-0.3-0.3C528.4,250.5,529.3,250.6,530,250.5
	C530,250.4,530,250.5,530,250.5z"/>
<path class="st12" d="M492,233.5c-1.3,0.9-1.4-0.3-1.9-1c0.6,0,1.2,0,1.8,0C492,232.8,492,233.1,492,233.5z"/>
<path class="st9" d="M192.2,253.2c1.8-5.7,5-10.8,6.2-16.6c1.7,3.9,3.8,7,8.1,9.1c4.7,2.2,5.7,7.1,3.4,10.4c-0.9,1.3-1.5,2.9-3.2,0
	c-1.6-2.7-4.3-2.4-5.5,1c-1.2,3.5-2.9,4.4-6.7,3.7c-3.4-0.7-3.7-1.4-1.4-3.8C194.5,255.4,194.4,253.9,192.2,253.2z"/>
<path class="st3" d="M214.1,292.6c0.2,0.5,0.6,1.7,0.3,1.5c-3.7-1.6-8.6-0.9-11-5.2C206.9,290.2,210.5,291.4,214.1,292.6z"/>
<path class="st14" d="M212,244.6c-2.4-1.2-3.2-3.6-4.2-5.7c0.2-0.2,0.4-0.5,0.7-0.7c2.1,1.4,3.3,3.4,4.1,5.8
	C212.3,244.2,212.2,244.4,212,244.6z"/>
<path class="st14" d="M204.5,232.1c2.1,1.5,2.8,3.9,3.9,6.1c-0.2,0.2-0.4,0.4-0.7,0.7c-2.2-1.5-3.1-3.8-3.9-6.2
	C204.1,232.5,204.3,232.3,204.5,232.1z"/>
<path class="st14" d="M203.8,232.7c-0.7-0.6-1.6-1.2-1.4-2.4c0-0.2,0.5-0.5,0.7-0.5c1.3,0.2,1,1.5,1.4,2.3
	C204.3,232.3,204.1,232.5,203.8,232.7z"/>
<path class="st14" d="M212.5,244c1.1,0.3,1.8,1,2.1,2c-0.2,0.2-0.5,0.4-0.7,0.7c-1-0.4-1.7-1-1.9-2.1
	C212.2,244.4,212.3,244.2,212.5,244z"/>
<path class="st7" d="M375.8,167.3c0.1-2.3,0.2-4.6,0.3-7c1,2.3,2.6,4.5,0.9,7.1C376.6,167.4,376.2,167.4,375.8,167.3z"/>
<path class="st12" d="M372,290.2c1.9-0.4,5.1,1.5,5.3-1.4c0.1-2.2-3.1-2.4-5.3-2.5c-2.6-3,0.9-3,2.1-4.1c1.9,1.2,3.7,2.6,5.7,3.6
	c1.4,0.7,3.6,1.2,3.9-1.1c0.6-5.2,4.3-0.8,6.1-2.2c1.9,7.1,5.4,1.1,8.2,0.9c0.7,0.9,1.7,1,2.7,1.1c0.2,1.9-3.9,2-2.3,4
	c1.8,2.4,4.6,0.2,7.1,0.3c-0.5,1-0.9,1.8-1.4,2.6c-0.2,0.7,0.1,1.9-1.1,1.8c-1.5-0.1-3.5-1.4-3.8,1.1c-0.2,1.8,1.9,1.9,3.1,2.6
	c0.5,0.3,0.9,0.9,1.3,1.3c-1.2,0.4-2.4,0.7-3.6,1.1c-1.4-0.7-2.8-1.9-4.3-2.1c-1.7-0.2-4.4-0.3-2.7,3.1c-2.3-0.1-4.6-0.1-6.8-0.2
	c-1.4-5.2-3.9-2.1-6.2-0.8c-1.6,0-3.1-0.1-4.4-1c0.8-1.4,3.4-1.7,2.9-3.5c-0.5-1.8-2.7-1.4-4.2-1.4
	C371.9,293.5,371.9,291.9,372,290.2z"/>
<path class="st15" d="M398,283.4c-2.8,0.1-6.2,6.2-8.2-0.9c-1.8,1.4-5.5-3-6.1,2.2c-0.3,2.4-2.5,1.9-3.9,1.1c-2-1-3.8-2.3-5.7-3.6
	c1.1-2,1.8-4.6,5-2.4c1.3,0.9,2.2,0.6,3.1-1c1.8-3.3,6-3.4,7.8-0.1c0.8,1.6,1.5,2.1,3,1.2C397.3,277.2,397.6,280.4,398,283.4z"/>
<path class="st15" d="M404.2,291.4c0.4-0.8,0.8-1.6,1.4-2.6c-2.4,0-5.2,2.2-7.1-0.3c-1.6-2.1,2.5-2.1,2.3-4c2.9,0.5,6.7-1.7,8,3.3
	c0.4,1.5,3.1,0.4,4.6,1c1.1,0.5,2.3,1.2,2.3,2.4c-0.1,1.7-1.7,1.3-2.7,1.2c-2.4-0.2-4.6,0.5-6.8,1.1
	C406,292.2,405.4,291.5,404.2,291.4z"/>
<path class="st6" d="M386.2,300.3c2.3,0.1,4.6,0.1,6.8,0.2c1.5,0,2.9,0,3,2c-0.8,0.1-1.7,0.4-1.8,1.4c-0.2,2.5,0,5.3-3.9,4.6
	c-3.4-0.6-4.5-2.9-4.3-6.1C386.1,301.6,386.1,300.9,386.2,300.3z"/>
<path class="st6" d="M404.2,291.4c1.3,0.1,1.8,0.8,1.9,2c0.6,0.3,1.1,0.6,1.7,0.9c1.3,0.6,3.9-1.1,3.7,1.7c-0.2,1.9-2.3,2.5-4.3,2.4
	c-1.1-0.1-2.3-0.1-3.4-0.1c-0.4-0.5-0.8-1-1.3-1.3c-1.2-0.7-3.4-0.8-3.1-2.6c0.3-2.5,2.3-1.3,3.8-1.1
	C404.2,293.4,403.9,292.1,404.2,291.4z"/>
<path class="st15" d="M386.2,300.3c0,0.7-0.1,1.4-0.1,2c-0.8,0.5-1.6,1.1-2.4,1.6c-1.7,0.8-3.7,1.2-5-0.3c-1.5-1.7,0.6-2.8,1.4-4.1
	C382.2,298.2,384.7,295,386.2,300.3z"/>
<path class="st15" d="M396,302.4c-0.1-2-1.5-2-3-2c-1.7-3.3,1-3.2,2.7-3.1c1.5,0.2,2.9,1.3,4.3,2.1c0.6,1.1,2.6,1.5,1,3.5
	C398.9,305.6,397.7,302.2,396,302.4z"/>
<path class="st6" d="M420.9,299.7c1.4-1.4,3-2.9,4.4-4.3C425.8,298.9,424.6,300.1,420.9,299.7z"/>
<path class="st6" d="M493.8,140.5c0.1-2.6-2.9-4.6-1.5-7.5c4.9,6,5.2,16.2,0.6,23.4c-1.5-2.4,1.1-4.1,0.9-6
	C494.2,147.1,494.2,143.8,493.8,140.5z"/>
<path class="st4" d="M493.8,140.5c0.4,3.3,0.4,6.6,0,9.9C491.5,147.8,491.5,143.1,493.8,140.5z"/>
<path class="st8" d="M238.1,52.5c8.1,0.2,16.5-1.9,23.9,3.1c3.5,4.1,2.9,8.7,1,13.1c-2.6,6.1-7.3,10.4-12.3,14.6
	c-7.3,6.1-15.6,11-24.2,14.7c-10.4,4.5-21.5,7.5-33.1,4.4c-8.1-2.2-10.8-9.8-6.5-17.1c6-10.1,14.8-16.8,25-22.1
	c0,2.9,1.9,3.9,4.3,4.5c-0.2,0.3-0.4,0.6-0.6,0.8c-0.8,0-1.7-0.1-2.5,0c-1.7,0.3-4-1-4.8,1.4c-1.1,3.2,2.9,1.9,3.6,3.5
	c-4.2-0.9-6.1,1.9-7.9,4.9c-0.6,2.4-1.3,4.8-1.9,7.3c-0.5,1-1.6,2-0.7,3.2c0.9,1.2,2.1,0.2,3.2-0.1c1.7-0.5,4.7-1.6,4.8-1.3
	c3.2,6.8,4.9,0.4,7.1-0.8c1.4-0.1,2.9-0.2,4.3-0.4c0.8,1.7,2.1,2.8,3.9,1.9c2.2-1,3.6-2.8,3.2-5.5c0.7-0.3,1.4-0.7,2.1-1
	c-0.2,2.3-0.6,5.1,2.7,5.3c2.8,0.3,3.5-1.9,3.3-4.3c-0.1-1.4,0.7-2,2-2.3c3.9-1,3.5-3.4,1.9-6.1c-0.3-1,1.2-1.9,0.1-2.9
	c0.9-1.6,2.8-0.6,3.9-1.5c0.9-0.6,2.3-1.1,1.7-2.5c-0.4-1.1-1.6-1-2.5-0.8c-0.8,0.1-1.6,0.4-2.4,0.5c-0.6-0.3-1.2-0.6-1.8-0.9
	c2.4-2,6.2-1.2,8.2-4.1c0.6-0.9,1-1.9,0.4-2.7c-0.8-1.2-1.7-0.2-2.5,0.2c-1.7,0.9-3.4,1.8-5.1,2.8l-0.1-0.1
	c-0.2-1.3,0.7-3.1-1.4-3.8c-1.6-0.5-2.4,0.8-3.4,1.6c-1.1,1-2.1,2.1-3.1,3.1c-1-2-2.6-0.7-4-0.8c-0.5-1.4,0.6-3.9-1.9-3.8
	c-1.9,0.1-3.8,1.3-4.2,3.6c-0.2,1-0.1,2-0.1,3c-0.6,0.1-1.3,0.1-1.9,0.2c0.6-2.3-2-3.3-2.1-5.2c4.3-3.4,9.5-4.3,14.5-6
	C234.4,53.8,236.5,53.9,238.1,52.5z M213.4,98c0-0.3,0-0.6,0-1c-5.5,0-11.1,0-16.6,0c0,0.3,0,0.6,0,1C202.3,98,207.9,98,213.4,98z
	 M213.9,95c3.1,2,5.3,1.6,7.6,0C219.3,95,217.2,95,213.9,95z M226,92.2c-0.8,0.6-1.2,0.9-1.5,1.1c0.3,0.3,0.5,0.8,0.8,0.9
	c0.6,0.2,1.3,0.1,1.3-0.8C226.6,93,226.2,92.6,226,92.2z"/>
<path class="st15" d="M218,60.4c0.1,2,2.7,2.9,2.1,5.2c-0.7,1.9-2.1,2.3-3.9,2.1c-2.4-0.6-4.3-1.6-4.3-4.5c0.7-0.8,2.4-1,1.8-2.6
	c0.8,0.1,1.7,1.2,2.4-0.2C216.8,60.3,217.4,60.4,218,60.4z"/>
<path class="st8" d="M140.2,250.5c3-3.9,4.3-8.8,7.6-12.5c0.6,3.3,3.4,2.3,5.5,2.6c0.7,0.6,1.4,1.2,2.1,1.8
	c-6.2,0.4-7.6,1.7-6.2,6.1c-0.5,2.1-1,4.2-1.5,6.4c-0.7,2.8,1.9,4.4,2.6,6.7c0.1,1.5-2.2,3.4-0.2,4.4c2,1,2.9-1.4,3.9-2.8
	c0.6-0.7,0.1-2.9,1.9-1.9c4.9,2.8,5.4-1,6.5-4.1c1.2-0.9,2.5-1.9,3.7-2.8c2.9,4.6,4.5,0.7,5.7-1.2c0.9-1.5,1.2-2.9,3.3-2.7
	c2.7,0.2,4.7-1.4,4.7-3.8c0-3.4-3.2-1.6-5-2.2c-0.3-0.1-0.7-0.1-1-0.1c0-0.5,0-1.1,0-1.6c1.7-0.2,3.4-0.2,4.8-1.8
	c2.4-2.7,2-4.2-1.7-4.6c0.1-1.2,0.1-2.5,1-3.5c-0.3-2.4,6.4-6.3-1.7-7.1c1.5-2.1,2.6-4.2,1-7c-3.7,2.4-5.9,5.2-5.2,9.7
	c-0.6-0.6-1.3-1.2-1.9-1.9c-0.5-1.7,0.5-3.6-0.7-5.3c-3.6,2.8-3.4,6.7-3.7,10.5c-1-1.1-0.5-4.6-3.6-2.2c-5.5-2.2-5.9-1.8-6.1,4.9
	c-2.3,0-4.7,0.1-7,0.1c0.8-1.4,1.6-2.7,2.3-4.1c1.6,0.1,2.3-1.2,3.1-2.2c3.8-4.9,8.4-8.9,13.2-12.7c0.9-1,1.7-2.1,2.6-3.1
	c4.8-0.6,8.8-3.9,13.8-4.2c7.7,0.6,10.3,3.9,11.2,11.7c0.8,6.8-2.5,12.2-4.4,18.1c-2.7,8.3-7.3,15.6-13.1,22.1
	c-1.5,1.6-3.4,2.8-3.9,5.2c0,0,0,0,0,0c-0.9-0.2-1.2,0.1-1,1c0,0,0,0,0,0c-0.9-0.2-1.2,0.1-1,1c0,0,0,0,0,0c-0.9-0.2-1.2,0.1-1,1
	c0,0,0,0,0,0c-2.4,0.5-3.9,2.1-5,4.1c0,0,0.1,0,0.1,0c-0.3,0.2-0.6,0.4-0.9,0.5c-5,4.5-10.7,7.5-17.4,8.7
	c-6.4,1.1-10.8-1.7-11.9-8.1C134.4,265.4,137.3,257.9,140.2,250.5z M156.2,272.5c1.1-0.3,2.6,0.5,3.3-1c0.1-0.2-0.4-0.8-0.8-0.9
	c-1.5-0.4-2.5,0.1-2.7,1.8c-1.1,0.3-2.6-0.6-3.3,1c-0.1,0.2,0.4,0.8,0.8,0.9C155,274.6,156,274.2,156.2,272.5z"/>
<path class="st11" d="M184.2,208.3c-4.9,0.3-8.9,3.6-13.8,4.2c4-3.2,7.8-7,13.7-5.9C184.1,207.1,184.2,207.7,184.2,208.3z"/>
<path class="st3" d="M166.1,272.5c1.1-2,2.7-3.6,5-4.1C170,270.4,168.5,272,166.1,272.5z"/>
<path class="st3" d="M174,265.4c0.4-2.4,2.3-3.6,3.9-5.2C177.9,262.9,176.1,264.2,174,265.4z"/>
<path class="st3" d="M165.3,273c0.3-0.2,0.6-0.4,0.9-0.5C165.9,272.6,165.6,272.8,165.3,273z"/>
<path class="st3" d="M173,266.4c-0.2-0.9,0.1-1.2,1-1C174.1,266,173.7,266.4,173,266.4z"/>
<path class="st3" d="M172,267.4c-0.2-0.9,0.1-1.2,1-1C173.1,267,172.7,267.4,172,267.4z"/>
<path class="st3" d="M171,268.4c-0.2-0.9,0.1-1.2,1-1C172.1,268,171.7,268.4,171,268.4z"/>
<path class="st3" d="M390.2,244.3c0.5-4.3,5-8.5,8.5-8.1c2.4,0.3,2.5,1.8,2.3,3.5c-0.5,4.1-5.2,9.1-8.3,8.6
	C390.3,248,389.9,246.3,390.2,244.3z"/>
<path class="st3" d="M149.2,317.6c0,1.3,0.2,2.6,0,3.9c-0.2,1.5-1,2.8-2.8,3c-1.8,0.2-2.8-0.8-3.4-2.3c-0.4-1.1-0.8-2.2-0.9-3.3
	c-0.4-3.8-0.2-7.5,4.1-9C147.8,309.4,148.9,312.3,149.2,317.6z"/>
<path class="st9" d="M447.3,335.3c-2.4,1-4.9,3.5-6.9-0.7c-0.6-1.4-2.2-1.3-3.5-0.6c-1.1,0.6-2.2,1.4-1.7,2.7c2.3,6-2.7,5-5.5,5.7
	c-1.7,0.4-3.6,0-5.5,0c0-0.6,0-1.2,0-1.8c2.8-1.2,0.5-2.1-0.2-3.1c-2.1-2-3.5-0.5-4.8,1.1c-4.2,2.9-5.9,2.4-7.2-2.3
	c-0.7-2.4-1.6-4.7-4.8-2.6c-1.3,0.8-2.3,1.1-3.3-0.5c-0.9-1.4-0.4-2.3,0.4-3.5c2.9-4.3,2.4-5.2-3.1-5.3c-1.6,0-1.8-0.4-1.7-2
	c0.5-7.6,6.7-11.5,15.1-9.4c3.7,0.9,7.4,2,11,3c5.6,1.5,10.4,0.9,14.4-3.8c3-3.5,6.9-5.4,11.5-3.1c1.4,0.7,4,2,0,3.8
	c-2.9,1.3-2.9,4,0.1,6.1c4,2.8,3.7,6.6-0.8,9.8c-1.9-0.9-2.9-4.5-5.7-2.3c-2.6,2-0.2,4.1,0.7,6.1c0.1,0.3,0.2,0.6,0.2,1
	c0.3,0.4,0.7,0.7,1,1.1C447.2,334.7,447.3,335,447.3,335.3z"/>
<path class="st14" d="M425.4,310.5c2.1-2.4,5.4-1.8,8-3.1c4.8-2.5,9.8-4.8,14.7-7c3.8-1.7,7.4-0.8,9.9,2.2c2.6,3.2,4.8,6.9,3.3,12.1
	c-1.8-1.9-1.5-3.8-2-5.4c-2.1-7.5-6-9.2-12.9-5.9c-6.1,2.9-12.1,6.1-18.7,7.8C426.9,311.2,426.1,311.5,425.4,310.5z"/>
<path class="st13" d="M446.2,333.3c-0.1-0.3-0.1-0.7-0.2-1c-0.9-2-3.4-4-0.7-6.1c2.8-2.1,3.8,1.5,5.7,2.3c0.5,0.6,1,1.3,1.6,1.9
	c1.5,1.4,2.1,3.2,1.2,4.9c-1.1,1.9-2.9,0.6-4.4,0.2c-0.6-0.2-1.3-0.2-1.9-0.2c-0.1-0.3-0.1-0.6-0.2-0.9
	C446.8,334,446.5,333.6,446.2,333.3z"/>
<path class="st13" d="M424.2,340.6c0,0.6,0,1.2,0,1.8c-0.1,1.3-0.2,2.6-0.2,3.9c-0.1,2.1-1.6,2.1-3.1,2.1c-1.8,0.1-2.8-0.8-2.6-2.6
	c0.3-2.4,0.7-4.8,1-7.2c1.3-1.6,2.6-3.1,4.8-1.1C424.1,338.5,424.1,339.5,424.2,340.6z"/>
<path class="st14" d="M400.6,312c-1.8,2.8-3.2,5.6-3.9,9.1C394.4,317.4,395.7,314.4,400.6,312z"/>
<path class="st14" d="M393.1,312.3c1.5,2.7-0.6,3.7-0.9,5.2c-0.3,1.4,0,3-1.8,4.7C389.4,318.2,390.7,315.5,393.1,312.3z"/>
<path class="st5" d="M354.3,323.4c1,0.9,0.7,2,0.7,3.1C352.2,326.1,353.5,324.7,354.3,323.4z"/>
<path class="st3" d="M393.1,139.5c-4.2,0.9-5.8-1.4-6.1-5.1c-0.2-3.8,2.3-6.3,6.9-6c3.5,0.2,5.4,2.6,5.3,6
	C399,138,397.3,140.3,393.1,139.5z"/>
<path class="st5" d="M298.2,216.5c-0.1,0.8-0.3,1.6-1.2,1.9C297.1,217.6,297.3,216.8,298.2,216.5z"/>
<path class="st9" d="M151.4,230.4c-0.8,1.4-1.6,2.7-2.3,4.1c-0.6,0.6-1.2,1.2-1.9,1.8c-1,0.1-1.9,0.2-2.9,0.3
	c-3.8-20.2-0.2-39,11.7-55.9c4.5-6.4,9.3-12.8,16.8-16.2c-0.4,4.5-4.7,7.9-3.8,12.7c-1.9,1.3-3.7,2.6-2.1,5.4
	c0.6,1.1,0.4,2.6-0.8,3.6c-1.8,1.6-3.1,3.2-1.2,5.7c0.5,0.6,0.1,1.8-0.7,2.1c-3.9,1.8-3.7,5.3-4.3,8.7c-0.9,5.8-2.2,11.6-1.8,17.6
	c-1.1,2.7-3.8,4.1-5.3,6.4C152.3,227.8,149.2,228.3,151.4,230.4z"/>
<path class="st3" d="M169.1,177.3c-0.9-4.9,3.4-8.2,3.8-12.7c0.3-1,1-1.4,1.9-1.5C174,168.3,171.4,172.7,169.1,177.3z"/>
<path class="st12" d="M151.4,230.4c-2.2-2.1,0.8-2.7,1.4-3.5c1.5-2.3,4.1-3.7,5.3-6.4c2.3-0.7,3.8-2.6,5.3-4.2
	c1.5-1.6,2.8-1,4.4-0.8c-4.9,3.8-9.5,7.8-13.2,12.7C153.8,229.3,153.1,230.6,151.4,230.4z"/>
<path class="st14" d="M193.3,199.6c-3.1-0.8-6.5,0.4-10.7-1.3C187.3,197,190.5,196.7,193.3,199.6z"/>
<path class="st6" d="M185.2,203.8c3.5-1.6,5.5-1.6,8.2,0C190.7,204.8,188.7,204.5,185.2,203.8z"/>
<path class="st6" d="M196.3,205.8c-0.7,0.1-1.2,0.4-1.5,0.2c-0.3-0.2-0.3-0.7-0.5-1.1c0.3-0.1,0.7-0.3,0.9-0.2
	C195.5,204.9,195.8,205.3,196.3,205.8z"/>
<path class="st6" d="M147.2,236.4c0.6-0.6,1.2-1.2,1.9-1.8c2.3,0,4.7-0.1,7-0.1c0,0.7,0,1.4,0.1,2.1c0.1,2.1-0.8,3.5-2.9,4.1
	c-2.1-0.4-4.8,0.7-5.5-2.6C147.6,237.4,147.4,236.9,147.2,236.4z"/>
<path class="st8" d="M512,239.4c0.8-1.1,1.8-1.3,2.6-0.3c0.4,0.5-0.2,1.1-0.9,1.2C513.5,239.4,512.7,239.6,512,239.4z"/>
<path class="st12" d="M216.2,67.7c1.8,0.2,3.3-0.2,3.9-2.1c0.6-0.1,1.3-0.1,1.9-0.2c3.1,2.9,4.1,2.5,6.2-2.7c1.4,0,3-1.2,4,0.8
	c-0.5,0.8-1.6,1.8-0.7,2.6c1.1,1.1,2.8,0.7,3.6-0.3c1.9-2.6,2.8-0.2,4,0.6c0.6,0.3,1.2,0.6,1.8,0.9c-4.6,2-4.6,2-4.8,4.4
	c1,1.2,2.1,0.8,3.2,0.1c0.3-0.1,0.6-0.2,1-0.2c1.1,1-0.4,1.9-0.1,2.9c-1.8,0.5-3.5,1.4-5.5,1.3c-1.4-0.1-3,0.8-2.2,2.3
	c1.6,2.9-1.6,2.5-2.2,3.8c-0.7,0.3-1.4,0.7-2.1,1c-3.8-2.5-4.7-2.1-7.1,3.6c-1.4,0.1-2.9,0.2-4.3,0.4c0.2-1.5,2.5-2.9,1-4.4
	c-1.2-1.1-2.7,0.4-4,1c-1.7,0.8-2.9-1.7-4.6-0.7c-0.1-0.1-0.3-0.2-0.3-0.4c0-0.1,0.1-0.3,0.2-0.4c0.9-0.4,1.7-0.8,2.6-1.2
	c1.3-0.6,3-1.3,2.5-3.1c-0.5-1.7-2.2-0.7-3.4-0.9c-2.4-0.3-4,2.1-6.4,1.8c1.8-3,3.7-5.8,7.9-4.9c2.2,0.4,4.4-0.1,5.5-1.9
	c0.8-1.2-1.5-1.8-1.9-3C215.9,68.3,216,68,216.2,67.7z"/>
<path class="st15" d="M209.1,82.5c1.7-1,2.9,1.5,4.6,0.7c1.3-0.6,2.8-2.1,4-1c1.6,1.5-0.8,2.9-1,4.4c-2.2,1.2-3.8,7.6-7.1,0.8
	c-0.1-0.3-3.2,0.8-4.8,1.3c-1.1,0.3-2.3,1.2-3.2,0.1c-0.9-1.1,0.2-2.2,0.7-3.2C204.2,83.8,207,84,209.1,82.5z"/>
<path class="st15" d="M230.2,81.7c0.6-1.3,3.8-0.9,2.2-3.8c-0.8-1.5,0.8-2.4,2.2-2.3c2,0.1,3.7-0.8,5.5-1.3c1.6,2.7,2,5.1-1.9,6.1
	c-1.3,0.3-2.1,0.9-2,2.3c0.2,2.5-0.5,4.6-3.3,4.3C229.5,86.8,230,84.1,230.2,81.7z"/>
<path class="st15" d="M239.1,66.3c-1.2-0.7-2.1-3.2-4-0.6c-0.8,1.1-2.5,1.4-3.6,0.3c-0.9-0.9,0.2-1.8,0.7-2.6c1-1.1,2-2.1,3.1-3.1
	c0.9-0.9,1.8-2.1,3.4-1.6c2.1,0.6,1.1,2.4,1.4,3.8c-0.3,0.3-0.5,0.6-0.8,0.9c0.2,0.1,0.3,0.3,0.5,0.4c0.1-0.4,0.2-0.8,0.4-1.2
	c1.7-0.9,3.4-1.8,5.1-2.8c0.8-0.5,1.7-1.5,2.5-0.2c0.6,0.9,0.2,1.8-0.4,2.7C245.3,65.2,241.5,64.3,239.1,66.3z"/>
<path class="st6" d="M209.1,82.5c-2.1,1.5-4.9,1.3-6.8,3.1c0.6-2.4,1.3-4.8,1.9-7.3c2.4,0.4,4.1-2,6.4-1.8c1.2,0.1,2.9-0.8,3.4,0.9
	c0.5,1.8-1.1,2.4-2.5,3.1c-0.9,0.4-1.8,0.8-2.6,1.2c-0.1,0.1-0.2,0.3-0.2,0.4C208.8,82.3,209,82.4,209.1,82.5z"/>
<path class="st15" d="M228.3,62.7c-2,5.2-3.1,5.7-6.2,2.7c0-1-0.1-2,0.1-3c0.4-2.3,2.3-3.5,4.2-3.6
	C228.9,58.8,227.8,61.3,228.3,62.7z"/>
<path class="st15" d="M215.7,68.5c0.4,1.2,2.7,1.8,1.9,3c-1.1,1.9-3.3,2.3-5.5,1.9c-0.8-1.7-4.7-0.3-3.6-3.5
	c0.8-2.4,3.1-1.1,4.8-1.4C214,68.4,214.8,68.5,215.7,68.5z"/>
<path class="st15" d="M221,86.3c2.4-5.7,3.3-6.1,7.1-3.6c0.4,2.7-1,4.5-3.2,5.5C223.1,89.1,221.8,88,221,86.3z"/>
<path class="st15" d="M213.4,98c-5.5,0-11.1,0-16.6,0c0-0.3,0-0.6,0-1c5.5,0,11.1,0,16.6,0C213.4,97.3,213.4,97.7,213.4,98z"/>
<path class="st15" d="M240.2,71.5c-0.3,0.1-0.6,0.2-1,0.2c-1.1,0-2.1-0.1-3.2-0.1c0.2-2.5,0.2-2.5,4.8-4.4c0.8-0.2,1.6-0.4,2.4-0.5
	c1-0.2,2.1-0.3,2.5,0.8c0.6,1.5-0.8,1.9-1.7,2.5C242.9,70.9,241.1,69.9,240.2,71.5z"/>
<path class="st15" d="M213.9,95c3.2,0,5.4,0,7.6,0C219.2,96.6,217,97,213.9,95z"/>
<path class="st15" d="M226,92.2c0.2,0.4,0.5,0.8,0.5,1.2c0,0.9-0.7,1-1.3,0.8c-0.3-0.1-0.5-0.6-0.8-0.9
	C224.9,93.1,225.2,92.8,226,92.2z"/>
<path class="st12" d="M153.2,240.6c2.1-0.5,3-1.9,2.9-4.1c5.9,1,6.2-2.8,6-7c3.1-2.4,2.6,1.2,3.6,2.2c3.7,0.1,4-2.6,4.4-5.2
	c0.6,0.6,1.3,1.2,1.9,1.9c0.9,0.3,2.8,0,1.2,1.8c-1,1.2-2.2,2.7-1.2,3.8c1.4,1.5,2.8-0.1,4.1-1.1c0.4-0.3,1.2-0.1,1.8-0.1
	c-0.9,1-0.9,2.3-1,3.5c-1.7,0.2-3,1.4-4.1,2.5c-1.2,1.4-2.1,3.2,0.9,3.8c0,0.5,0,1.1,0,1.6c-2.3,0.7-1.9,4.8-3.4,4.4
	c-6.6-1.6-3.7,3.3-4.4,5.7c-1.2,0.9-2.5,1.9-3.7,2.8c-0.4-1.5,0.9-3.8-0.7-4.5c-2.1-0.8-2.6,1.7-3.6,3.1c-0.5,0.7-1,1.9-2.1,0.7
	c-1.3-1-1.7-1.9-0.4-3.3c0.8-0.8,1.3-2.2,0.3-3.1c-1.2-1.1-2.4,0.2-3.4,0.8c-1.8,1-2.6,3.3-4.9,3.9c0.5-2.1,1-4.2,1.5-6.4
	c5.5-1.4,6.7-2.6,6.2-6.1C154.6,241.8,153.9,241.2,153.2,240.6z"/>
<path class="st15" d="M166.1,254.4c0.7-2.4-2.2-7.3,4.4-5.7c1.5,0.4,1.1-3.7,3.4-4.4c0.3,0,0.7,0,1,0.1c1.8,0.6,5-1.2,5,2.2
	c0,2.4-2.1,4-4.7,3.8c-2.1-0.1-2.4,1.3-3.3,2.7C170.6,255.1,169,259,166.1,254.4z"/>
<path class="st15" d="M178,232.8c-0.6,0-1.4-0.2-1.8,0.1c-1.3,1-2.7,2.6-4.1,1.1c-1-1.1,0.1-2.6,1.2-3.8c1.6-1.8-0.2-1.6-1.2-1.8
	c-0.8-4.5,1.5-7.3,5.2-9.7c1.5,2.8,0.5,4.9-1,7C184.4,226.5,177.7,230.4,178,232.8z"/>
<path class="st15" d="M155.9,256.5c1.2,1.2,1.7,0,2.1-0.7c1-1.4,1.4-3.9,3.6-3.1c1.7,0.6,0.4,2.9,0.7,4.5c-1.1,3.1-1.6,6.8-6.5,4.1
	c-1.8-1-1.3,1.2-1.9,1.9c-1,1.3-1.9,3.8-3.9,2.8c-2-1,0.3-2.9,0.2-4.4C152.5,260.2,153.1,257.2,155.9,256.5z"/>
<path class="st6" d="M155.9,256.5c-2.8,0.7-3.4,3.7-5.7,5c-0.7-2.3-3.3-3.8-2.6-6.7c2.2-0.6,3-2.9,4.8-3.9c1-0.6,2.2-1.9,3.4-0.8
	c0.9,0.9,0.4,2.3-0.3,3.1C154.2,254.6,154.6,255.5,155.9,256.5z"/>
<path class="st15" d="M162.2,229.5c0.1,4.2-0.2,8-6,7c0-0.7,0-1.4-0.1-2.1C156.3,227.7,156.7,227.4,162.2,229.5z"/>
<path class="st15" d="M173.9,242.7c-3-0.6-2.2-2.5-0.9-3.8c1-1.1,2.3-2.3,4.1-2.5c3.7,0.4,4.1,1.8,1.7,4.6
	C177.3,242.4,175.6,242.4,173.9,242.7z"/>
<path class="st15" d="M155.3,242.3c0.5,3.5-0.7,4.7-6.2,6.1C147.7,244.1,149.1,242.7,155.3,242.3z"/>
<path class="st15" d="M170.3,226.5c-0.5,2.6-0.7,5.4-4.4,5.2c0.3-3.8,0.2-7.8,3.7-10.5C170.7,223,169.8,224.9,170.3,226.5z"/>
<path class="st6" d="M156.1,272.4c0.2-1.6,1.2-2.1,2.7-1.8c0.3,0.1,0.8,0.7,0.8,0.9c-0.7,1.5-2.2,0.7-3.3,1L156.1,272.4z"/>
<path class="st6" d="M156.2,272.5c-0.2,1.7-1.2,2.1-2.7,1.8c-0.3-0.1-0.8-0.7-0.8-0.9c0.7-1.5,2.2-0.7,3.3-1
	C156.1,272.4,156.2,272.5,156.2,272.5z"/>
<path class="st5" d="M424.2,340.6c-0.1-1-0.1-2.1-0.2-3.1C424.7,338.4,426.9,339.3,424.2,340.6z"/>
<path class="st5" d="M446.2,333.3c0.3,0.4,0.7,0.7,1,1.1C446.8,334,446.5,333.6,446.2,333.3z"/>
<path class="st8" d="M236.1,71.6c1.1,0,2.1,0.1,3.2,0.1C238.1,72.4,237.1,72.8,236.1,71.6z"/>
<path class="st8" d="M240.1,62.5c-0.1,0.4-0.2,0.8-0.4,1.2c-0.2-0.1-0.3-0.3-0.5-0.4C239.5,63.1,239.8,62.8,240.1,62.5
	C240.1,62.5,240.1,62.5,240.1,62.5z"/>
<path class="st3" d="M259.6,547.5c75.8,8.8,148-1.1,217.1-34c7.2,9.9,4.9,19.9-6.7,25.4c-50.7,24.1-104.1,35.2-160.2,32.3
	c-11.3-0.6-22.5-1.8-33.8-3.1C263.1,566.6,257.3,558.9,259.6,547.5z"/>
<path class="st3" d="M197.4,365.9c6.5,2.4,12.9,5.1,19.5,7.1c4,1.2,8.2,1.5,12.3,3.2c-1.8,0-3.7,0-5.5,0c0,0.3-0.1,0.6-0.1,1
	c9.9,0.9,19.7,2,29.6,2.6c1,0.1,3.3-2.3,3.2-3.4c-0.8-7.8-5.7-12-13.6-12.5c-3.9-0.3-7.7-1.1-11.6-1.7c0.1-0.5,0.2-0.9,0.3-1.4
	c5,0.5,10,0.9,14.9,1.5c6,0.8,8.9,5.3,11.4,10.7c4.1-12.5-2.8-22.9-4.3-34c-1.5-11.4-8.1-20.6-10.8-31.2c3.3,1.6,3.4,1.8,5.7,9.1
	c1.1,3.5,2.3,7.1,3.5,11.1c6-7.6,11.5-14.2,16.4-21.1c4.4-6.2,4.6-13.1-0.3-18.4c-9.8-10.8-7.7-20.1,2.5-31c1.6-1.7,3.4-3.3,5.2-4.9
	c0.3,0.3,0.6,0.6,1,0.9c-2.1,2.4-4.3,4.6-6.3,7.1c-9.2,11.2-8.7,17.1-1.5,26.1c2.5,3.1,3.9,7.1,5.8,10.9c6.3-2.9,13.2-6.1,20.2-9.2
	c0.2,0.2,0.4,0.5,0.5,0.7c-2.5,1.7-4.8,4.2-7.5,4.9c-8.5,2.3-14.7,6.9-18.8,14.9c-2.2,4.2-6,7.4-9.1,11.1
	c-5.7,6.8-6.2,14.4-3.8,22.5c1.6,5.6,3.3,11.1,4.7,15.6c5.1-2.4,10.1-5.8,15.7-7c8.2-1.9,15.2-4.4,18.3-13.2c0.8,4.7-1.7,8-5,9.8
	c-4.7,2.5-10,4.2-15.2,5.7c-8.1,2.2-13.1,6.5-13.9,15.3c-0.3,3.7-1.6,7.4-2.6,11.7c10.4,0,20.3,0,30.5,0c-0.9-0.9-1.9-1.8-2.9-2.8
	c-3.6-3.5-4.5-8.5-2.1-12.8c2.4-4.3,6.8-6,12.1-4.4c4,1.2,7.7,3.2,11.7,4.2c2.1,0.5,4.7,0.4,6.6-0.6c1.5-0.8,2.9-3.2,2.9-4.9
	c0-1-2.6-2.6-4.2-3c-3.9-0.9-8-0.8-11.7-2.2c-1.9-0.7-4.2-3.9-4-5.7c0.2-1.7,3.1-4.1,5.2-4.5c2.6-0.5,5.6,0.3,8.2,1.2
	c4.1,1.5,7.9,1.7,11.5-1.2c0.4,0.4,0.7,0.8,1.1,1.2c-1.1,1.1-2.2,3.1-3.3,3.1c-3.4-0.1-6.8-0.8-10.2-1.4c-2.1-0.4-4.2-1.3-6.3-1.2
	c-1.5,0.1-3,1.5-4.5,2.3c1,1.5,1.8,3.9,3.2,4.3c3.6,1.1,7.6,0.8,11.2,1.9c2.3,0.7,5.3,2.3,6,4.2c0.7,1.9-0.2,6-1.8,6.9
	c-2.5,1.6-6.2,2.1-9.3,1.8c-3.2-0.3-6.3-2-9.3-3.3c-4-1.7-8.4-3.2-11.5,0.5c-1.7,2.1-2.4,6.3-1.6,9.1c1.2,4.5,5.6,6.4,10.1,6.8
	c4.1,0.3,8.3,0.2,12.5-0.2c1.3-0.1,2.5-1.6,3.8-2.3c0.9-0.5,1.9-0.7,2.8-1c-0.2,1-0.5,2-0.7,3.2c6.2,1.4,9.2-3.7,13.3-7.2
	c1,2.1,2,4.1,3.3,6.7c14.6-2.3,29.3-4.7,44.3-7.1c0.2-3,0.4-5.5,0.5-8.1c0.2,0,0.3,0,0.5,0c0.3,2.2,0.5,4.5,0.8,6.9
	c5.6-0.7,10.9-1.3,14.9-7.7c-3.5-0.3-6.3-0.6-8.5-0.8c0.5-4.8-4.6-4.4-7.4-7.1c-0.4,1.7-0.6,2.8-0.9,3.9c-0.2-0.2-0.5-0.4-0.5-0.6
	c0.3-3.4-1-5.7-3.6-8.1c-3.9-3.6-7-8-10.6-11.8c-1.8-1.9-4.1-3.2-6.1-4.8c-0.4,0.3-0.7,0.5-1.1,0.8c1-0.4,2-0.7,3.4-1.2
	c-1.3-3.2-2.7-6.3-4-9.4c0.2-0.3,0.4-0.5,0.5-0.8c1.9,1.3,3.8,2.5,5.7,3.9c20.3,15.4,43.2,24.1,68.5,26.5
	c13.6,1.3,25.6-4.9,36.2-12.2c16.8-11.7,26.6-28.9,33-48.1c0.5-1.5,1-3,1.5-4.5c0.5,0.1,1,0.2,1.6,0.4c-0.7,2.8-1.2,5.7-2.1,8.3
	c-1,2.7-1.1,4.7,1.4,6.9c4.1,3.7,4.4,8,1.8,13.2c-3.7,7.3-10.2,11.7-16.8,15.9c-24.8,15.9-52.5,25.4-80.7,32.7
	c-22.5,5.8-45.5,9.6-68.3,13.8c-8,1.5-16.2,1.8-24.4,2.2c-27.3,1.1-54.6,2.9-81.8-0.9c-13-1.8-25.7-5.3-38.5-8
	c-0.7-0.1-1.2-0.9-1.5-2.3c6.5,0.9,13,1.8,19.8,2.7c-3.9-2.7-7.5-5.1-11-7.5L197.4,365.9z M418.9,355.3c-12.6-3.9-26-8-39.5-12.2
	C392.2,350.1,405.4,355,418.9,355.3z"/>
<path class="st3" d="M408.5,94.5c15.2,14,21,31.3,16.1,51.4c-5.7,23.4-20.4,35.1-50.4,41c-5,36.7-23.9,61.4-61.3,69.5
	c0.3-4.8,0.5-9.2,0.8-14.3c4.9-1.5,10.4-3.2,15.9-4.8c0-0.2-0.1-0.4-0.1-0.6c-8.3,1.7-16.6,3.4-25,5.1c-0.1-0.6-0.2-1.1-0.3-1.7
	c4.8-0.9,9.5-2,14.3-2.8c29.5-5,44.3-24.6,50.2-52c2.3-10.9,1.7-22.4,2.4-33.7c0.1-1.6,0-3.2,0-4.8c0.4,0,0.8,0,1.2-0.1
	c1.1,12.5,2.2,24.9,3.3,37.2c7.3,0.9,9.5-0.2,10-4.4c3.8,5.1,6.3-0.7,10.2-0.5c-1.1-2-1.8-3.3-2.5-4.5c0.2-0.2,0.4-0.4,0.6-0.6
	c0.8,1.3,1.5,2.5,2.1,3.5c8.5-3.6,16.3-11.9,15.9-14.4c2.7-3.7,4.8-6.5,7.1-9.6c-2.3-1.3-3.8-2.2-5.3-3.1c0.1-0.2,0.1-0.4,0.2-0.7
	c1.6,0.6,3.1,1.1,5.5,1.9c1.1-4,2.2-8,3.4-12.5c-2.6,0-4.4,0-6.1,0c0-0.3,0-0.6-0.1-0.8c2-0.3,4-0.5,6.3-0.9
	c0.5-8.4-0.1-16.5-3.2-24.2C417,106.5,414,99.7,408.5,94.5z"/>
<path class="st3" d="M515.1,335.8c-48.3,32-101.1,52.8-157.6,64.2c-54,10.9-108.3,12.6-162.8,2.9
	C309.3,417.7,416.1,395.4,515.1,335.8z"/>
<path class="st17" d="M249.5,82.3c-14.7,13.5-32.1,20.4-51.9,21.6"/>
<path class="st3" d="M197.3,366.1c-5.8-2.4-8.9-6.9-9.2-12.9c-0.3-5,3.3-10.3,7.9-11.6c2.4-0.6,5.1,0.3,7.6,0.1
	c3.9-0.3,3.5,2.4,4.6,4.7c1.1,2.3,4,4.5,6.5,5.1c1.6,0.4,5.3-1.8,5.6-3.4c0.6-2.7,0.3-7-1.5-8.5c-3.1-2.6-7.5-4.3-11.5-5
	c-5.5-1-8.6-4.2-8.9-9.1c-0.2-2.7,1.8-7.1,3.9-8.1c3.4-1.5,7.9-1.2,11.8-0.7c2.6,0.3,5,2.5,7.6,3.6c4.4,1.9,9-0.4,9.2-5.2
	c0.1-3-1.3-6.1-1.7-9.2c-0.3-2.5-0.1-5-0.1-8c-13.7,9.9-26.7,10.9-30.8,3.7c5.5,0.4,11.8,1.7,17.8,0.9c6.5-0.8,11.2-5.4,13.7-11.3
	c1.6-0.2,2.9,0,3.9-0.5c5.6-2.8,8.9-1.6,10.9,4.6c1.1,3.5,1.8,7.3,6.6,6.2c4.5-1,6.9-4.4,5.9-8.9c-1.1-4.6-2.8-9.1-4.7-13.4
	c-2.6-5.6-5.8-11-3.3-17.5c0.3-0.7,0.9-1.3,1.9-1.9c-3.5,10.6,3.6,18,7.2,26.4c2.1,4.8,2.2,9.6-0.9,14.2c-2,2.9-4.8,4.7-7.9,3.4
	c-2.4-1.1-4.9-3.4-5.9-5.8c-1.5-3.2-1.7-7.1-6.7-6c-3.2,0.6-5.6,5.1-5,9.3c0.5,3.6,1.6,7.2,1.7,10.8c0.3,10-6.2,13.9-15.1,9.6
	c-3.3-1.6-6.9-3-10.6-3.7c-3.8-0.7-6.4,1.5-7,5.3c-0.7,4.1,0.9,7.3,4.9,8.6c2.7,0.9,5.5,1.2,8.3,1.9c8.1,2.2,12.3,11.3,7.7,16.9
	c-3.2,3.9-7.9,4.5-11.8,1.1c-1.4-1.2-2.6-2.6-3.5-4.2c-2.6-4.1-6.1-5.6-10.6-3.7c-3.9,1.7-6.5,6.9-4.7,11.4
	c1.4,3.7,4.3,6.8,6.5,10.2C197.4,365.9,197.3,366.1,197.3,366.1z"/>
<path class="st3" d="M261.5,250.4c1.3-0.9,2.5-1.8,3.9-2.8c-4.8-3.8-9.3-7.3-13.8-10.9c0.1-0.4,0.2-0.8,0.4-1.3
	c5.8,1.1,11.6,2.3,17.9,3.5c-0.9,2.4-1.6,4.5-2.2,6.1c3.8,1,7.7,1.2,10.9,2.9c8.5,4.5,9,12.3,1.6,18.2c-1.2,0.9-2.4,1.8-3.4,2.8
	c-3.2,3.3-2.3,7.9,2.2,8.9c3.6,0.8,7.6,0.8,11.3,0.3c5.7-0.9,10.1,0.8,13.3,5.4c3.7,5.1,5,10.4,2.8,16.8c-1.6,4.6-5.1,5.8-8.6,7.6
	c-2.5,1.3-5.1,2.3-7.5,3.9c-4,2.6-4.9,7.6-2.6,12.4c1.9,4,6.2,5.7,10.8,4.3c5.2-1.6,10.3-3.6,15.6-4.8c5.2-1.2,9.3,1.1,12.5,5.4
	c0.9,1.2,2.4,2,4.1,3.3c-1,0.9-2.4,2.3-4.1,3.9c-3.6-10.8-7.9-12.8-18.2-8.9c-2.9,1.1-5.9,2.2-8.9,3.1c-5.8,1.7-11.7-0.7-14-5.6
	c-2.8-6.1-1.2-12,4.5-15.6c3.1-1.9,6.5-3.3,9.5-5.3c5.5-3.6,7.3-8.9,5.3-14.6c-2.1-6-7-9.4-13.3-9.2c-3.5,0.1-7,0.6-10.4,0.3
	c-3.7-0.4-7.1-1.8-8.1-6.1c-1.1-4.9,2.1-8.2,5.3-10.2c3.6-2.3,5.8-4.6,4.7-8.6c-1.3-4.5-4.7-7.5-9.5-7.4
	C269.5,248.4,265.7,249.6,261.5,250.4z"/>
<path class="st3" d="M379,314.6c-10.1,2.3-19.6,4.4-29,6.7c-1.5,0.4-2.8,1.8-4.4,2.2c-1.7,0.4-4,0.9-5.1,0c-1-0.8-1.3-3.4-0.9-4.9
	c1.4-5.3,4.4-9.7,9.4-12.1c1.6-0.8,4.1-0.4,6,0.1c7.5,2,14.8,4.3,22.2,6.6C377.6,313.4,377.9,313.8,379,314.6z"/>
<path class="st3" d="M357.2,86c3.8,0,6.9,0,10.5,0c0.2-1.8,0.3-3.3,0.5-4.9c0.2,0,0.4,0,0.6-0.1c0.2,1.5,0.5,3,0.7,4.7
	c1.9,0.2,3.6,0.4,5.4,0.6c-39.5-0.9-64.9,46.2-36,79.6c-4.2-4.1-8.2-8.2-10.8-13.8c-2.5-5.5-4.3-11.2-4.5-17.4
	c-1.9-0.3-3.5-0.5-6.4-0.9c2.7-0.5,4.2-0.8,6-1.1c0.2-2.5,0.4-5.1,0.6-8c-1.7-0.3-3.1-0.6-4.9-1c0.8-0.4,1.3-0.8,1.6-0.7
	c2.9,0.5,4.1-0.7,4.8-3.6c1.6-7.2,5.2-13.2,10.2-18.6c3.2-3.5,6.8-6.4,10.9-8.7c1.1-0.6,1.8-2,2.9-3.2
	C351.8,90.2,356.1,88.7,357.2,86z"/>
<path class="st3" d="M161.4,229.6c3.2,4.9,3.7,4.8,8.5-0.8c-0.1,1.9-0.1,2.8-0.2,3.8c-0.1,0.9-0.3,1.8-0.6,3.1
	c1.7,0.1,3,0.2,4.8,0.3c-2.6,2.6-6.2,4.5-3.6,8.7c0.3,0.4-0.8,2.4-1.3,2.4c-5.2,0.3-5.6,4.3-6.4,9.1c-3.4-8.2-5.5-1.7-8.5,0.5
	c0.3-2.8,0.6-4.8,1-8.4c-3.6,2.3-5.8,3.8-8.1,5.3c-0.3-0.2-0.5-0.4-0.8-0.6c1.1-1.2,2.1-2.7,3.5-3.7c2.6-1.9,7.2-2.6,3.7-7.7
	c-0.4-0.6,1.2-3.7,1.7-3.6C161.2,238.6,160.4,233.8,161.4,229.6z"/>
<path class="st3" d="M121.2,162.3c-0.6-0.8-1.6-2-2.6-3.2c0.2-0.2,0.3-0.3,0.5-0.5c1.2,1,2.5,1.9,3.4,2.6c5-2.3,10-4.5,14.7-7
	c1.2-0.6,1.9-2.1,2.7-3.1c2.7,3.8,6.3,0.7,9.8,0.8c0.2-1.8,0.3-3.4,0.5-5.5c2.1,2-1.2,7.1,4.8,5.8c-20,2.2-34.9,10.9-42.7,29.3
	c-7.7,18.3-3.5,34.9,8.5,50.2c-9.3-8.2-14.3-18.5-15.4-30.9c-1.9-0.1-3.5-0.2-6.5-0.4c2.7-0.6,4.3-1,6.1-1.4
	c0.3-2.6,0.5-5.2,0.8-8.1c-1.6-0.5-3.1-1-5.7-1.8c2.7-0.1,4.3-0.2,5.2-0.3c2.2-5,3.9-9.8,6.5-14.2
	C114.5,170.5,117.9,166.7,121.2,162.3z"/>
<path class="st3" d="M426.6,288.1c14.2,1.2,27.9,2.4,41.6,3.6c0,0.6,0.1,1.2,0.1,1.8c-2.3,0.5-4.5,0.9-6.8,1.4
	c-9.3,1.9-18.6,3.7-27.8,5.7c-3.3,0.7-5,0.2-5.1-3.7C428.5,294.3,427.5,291.8,426.6,288.1z"/>
<path class="st3" d="M391.4,140.8c-3.8-0.5-6.2-2.4-6.1-6.1c0.1-3.7,2.3-5.8,6-5.8c3.7,0.1,5.9,2.2,5.9,5.9
	C397.3,138.7,394.8,140.3,391.4,140.8z"/>
<path class="st3" d="M158.1,120.9c0.5-3.7,2.5-5.9,6.2-5.8c3.7,0.1,5.8,2.4,5.7,6.1c-0.1,3.6-2.4,5.9-6.1,5.8
	C160.3,126.8,158.3,124.5,158.1,120.9z"/>
<path class="st3" d="M121.4,286.4c-0.4,3.4-2.1,5.7-5.9,5.7c-3.8,0-5.9-2.2-6-5.8c0-3.6,2.2-6,5.9-6
	C119.1,280.3,121.1,282.4,121.4,286.4z"/>
<path class="st3" d="M399.5,239c-0.4,5.1-5.6,10.6-8.6,9.8c-1.1-0.3-2.4-2.3-2.4-3.5c-0.1-4,4.9-9.3,8.1-8.6
	C398,236.9,399,238.5,399.5,239z"/>
<path class="st3" d="M150,318.6c-2.4,2.7-4.2,4.7-6,6.6c-1.3-2.6-3.6-5.1-3.7-7.7c-0.1-2.2,2.4-4.4,3.7-6.6
	C145.7,313.2,147.5,315.5,150,318.6z"/>
<path class="st3" d="M181,347.7c5.3,6.7-1.9,11.2-2.1,17.3C173.1,359.7,174.1,352.5,181,347.7z"/>
<path class="st3" d="M476.2,147.4c-1.2-4.5-1.7-9.3-3.7-13.4c-2-4.2-4.6-8-3.1-13.4c2.4,5.9,4.9,11.4,6.8,17.1c1,3,0.8,6.4,1.2,9.6
	C477.1,147.3,476.7,147.3,476.2,147.4z"/>
<path class="st3" d="M96.2,191.1c-2.6,1.8-4.4,3.8-5.5,3.5c-1.6-0.5-2.7-2.6-4-4c1.3-1.2,2.6-3.2,4-3.3
	C92.2,187.2,93.6,189.2,96.2,191.1z"/>
<path class="st3" d="M327.4,280.9c-3.5,6.2-6.4,11.3-9.3,16.4C316.3,292.9,320.2,285.5,327.4,280.9z"/>
<path class="st3" d="M239.5,421.1c-7-1.1-14-2.3-20.9-3.4c0.1-0.7,0.2-1.3,0.3-2c7,1.1,14,2.2,21,3.3
	C239.7,419.7,239.6,420.4,239.5,421.1z"/>
<path class="st3" d="M348.3,280.7c-3.4,4.4-6.1,7.8-8.8,11.3c-0.3-0.3-0.7-0.6-1-0.8C339.8,286.6,343.6,283.9,348.3,280.7z"/>
<path class="st3" d="M184.8,333c-4.1,2.1-8.2,4.3-12,6.3C173.7,333.7,180.1,330.3,184.8,333z"/>
<path class="st3" d="M472.6,225.9c7.5,0,15,0,22.6,0c0,0.1,0,0.2,0,0.3c-7.5,0-14.9,0-22.4,0C472.8,226.1,472.7,226,472.6,225.9z"/>
<path class="st17" d="M322,59.1"/>
<path class="st17" d="M456,257c8.6,3.4,16,5.4,21.4,6.6c12,2.7,25,5.4,39.5,1c1.9-0.6,3.5-1.2,4.5-1.6"/>
</svg>
