<?xml version="1.0" encoding="utf-8"?>
<!-- Generator: Adobe Illustrator 25.2.3, SVG Export Plug-In . SVG Version: 6.00 Build 0)  -->
<svg version="1.1" id="Capa_1" xmlns="http://www.w3.org/2000/svg" xmlns:xlink="http://www.w3.org/1999/xlink" x="0px" y="0px"
	 viewBox="0 0 620 626" style="enable-background:new 0 0 620 626;" xml:space="preserve">
<style type="text/css">
	.st0{fill:none;stroke:#2C143D;stroke-miterlimit:10;}
	.st1{fill:#08A2A2;}
	.st2{fill:#ACC838;}
	.st3{fill:#43175A;}
	.st4{fill:#9CB129;}
	.st5{fill:#FA8370;}
	.st6{fill:#ECE9D6;}
	.st7{fill:#F1EAC3;}
	.st8{fill:#E2F8B3;}
	.st9{fill:#FA5E58;}
	.st10{fill:#DDD1AC;}
	.st11{fill:#96B73F;}
	.st12{fill:#70A92F;}
	.st13{fill:#FCCB54;}
	.st14{fill:#F6DBCD;}
	.st15{fill:#FDFCFC;}
	.st16{fill:#FEFEFE;}
	.st17{fill:none;stroke:#43175A;stroke-miterlimit:10;}
</style>
<g>
	<path class="st0" d="M131.4,150.3c-20,48.1-20.7,95.5,1.1,120.4c8.2,9.3,20,17,20,17c23.4,15.2,47.3,17.1,59.3,17.3"/>
	<path class="st1" d="M420.9,280.8c24.8-1.5,49.6-2.1,74.2,1.2c14.9,2,30,4.6,42,15c9.9,8.6,14.7,19.9,17.4,32.1
		c3.9,17.9,3.2,36.2,3,54.3c-0.2,21.3-1.4,42.5-5.3,63.5c-6.4,35.3-18.2,68.2-44.5,94.4c-3.5,3.5-7.5,6.6-11.3,9.9
		c-6.2,3.2-12.2,6.7-18.5,9.6c-34.5,15.9-71.2,24-108.5,29.8c-21.6,3.4-43.5,5.6-65.5,5.3c-14.5-0.2-29.1,0.7-43.6-1.4
		c-7.1-1-14.2-2.3-21.4-3.4c-9.3-3.9-18.8-7.3-27.4-12.8c-21-13.2-36.7-31.2-49.4-52c-16.9-27.4-28-57.3-38-87.6
		c-4.1-12.5-8.2-24.9-9.8-38.1c-2.1-17.5,0.3-33.5,13.1-46.9c5.9,2.6,12.9,2,18.3,5.9c-6.7,5.7-8.6,14-2.7,19.4
		c0,3.7,1.5,5.9,5.2,7.8c2.8,1.4,5,0.1,7.5,0.5c4,0.6,7.5,3.4,11.7,2.8c-0.1,1.8,1.4,2.4,2.6,2.6c8.8,1.9,17.5,4.5,26.4,5.1
		c24.7,1.6,49.5,3.4,74.3,2.4c2.5-0.1,5.1,0.1,7.4-1.2c5.2,0,10.4,0,15.5,0.1c6.1-0.9,12.5,0,18.5-2.2l-0.1,0.1
		c3.3-0.1,6.6-0.1,9.8-0.2c7-2.4,14.5-1.7,21.7-3.4c5.5-1.3,11.1-2.3,16.6-2.9c5.1-0.5,9.8-2,14.6-3.2c4.1,1,7.9-1.2,11.9-1.2
		c7.9-2,16.1-2.8,23.4-6.6c9.8-3.1,19.7-6.3,29.5-9.4c4.6,0,8.7-1.4,12.2-4.2c8-3.1,15.9-6.2,23.9-9.3c5.6-1.4,10.6-3.8,15.1-7.4
		c1.9-1.3,3.8-2.6,5.6-4c12-4.2,21.4-11.5,27.2-22.6c3.3-6.4,0.7-12.2-5.4-15.2c-1.2-1-0.3-2.4-0.6-3.6c1.5-1.3,0.1-3.4,1.9-4.9
		c2-1.7,1.6-5,0.8-7.2c-0.5-1.5-3.6-0.9-5.4-0.6c-5.9,1-12,1.6-17.7,2.9c-4.7,1.1-9.7,0.6-14.1,2.7c-0.1-2.8-2.4-2.8-4.2-2.9
		c-13.5-0.9-27.1-1.7-40.7-2.6c-1.5-0.5-3-0.9-4.5-1.4c0,0,0.1,0.1,0.1,0.1c-0.3-1.2-1.1-1.3-2.2-1.2
		C428.5,285.8,423.3,285.1,420.9,280.8z M502.6,368c4.3-0.7,7.9-2.6,10.5-6.2C509.3,363.4,505,364.1,502.6,368
		c-1.5,0-3.1-0.5-4.1,1.4C500.5,370.5,501.7,369.8,502.6,368z M412.8,472.6c0.2-3.7-0.5-8.7-2.3-13.7c-4.9-13.5-19.7-20.1-33.3-14.9
		c-10,3.8-16.3,11.2-20.7,20.1c-2.1,4.3-2.8,5.2-6.3,1c-8.7-10.4-22.8-14.5-34.4-10.4c-13.6,4.8-22.1,14.5-23.1,28.4
		c-1.5,20,7.2,36.1,23.9,47.8c12.8,8.9,27.7,13.7,41.5,20.8c4.8,2.5,8.1,0.9,11-2.7c10.5-13.1,21.6-25.7,31-39.6
		C407.1,498.8,413,487.5,412.8,472.6z M240.6,575.5c-21.6-9.1-39.4-23.3-55.2-40.3C199.1,555,218.3,567.2,240.6,575.5z M537.5,426.5
		c-0.5,0-1,0-1.6,0c-0.1,1.5-0.2,3-0.2,4.6c-0.5,16.2-2.9,32.1-7.1,47.7c-0.4,1.6-2.9,4.2-0.6,4.8c2.7,0.7,2.3-2.9,2.8-4.7
		c2.9-9.2,4.7-18.6,5.9-28.1C537.6,442.7,538.5,434.6,537.5,426.5z M264,429.3c-25.2-0.4-50.5-0.3-75.8-2.5
		C213.4,429.7,238.6,431.6,264,429.3z M513.1,516.1c7.3-8.2,10.7-18.2,14.8-27.9c-0.6-0.3-1.1-0.5-1.7-0.8
		C521.8,497,517.4,506.5,513.1,516.1z M165.2,498.9c4,12.9,9.7,23.2,16.8,33.2C181.9,530.2,167.7,501.3,165.2,498.9z M216.7,547.1
		c-5.3-4.1-9.2-9.7-15-13.5C205.5,539.3,209.9,544.5,216.7,547.1z M514.7,489.5c5.7-4.7,8.1-15.9,5-21.2
		C519.9,475.3,517.6,481.7,514.7,489.5z M316,425.5c-5.5-1.1-10.6,0.7-16.9,1C305.8,430.9,310.6,425.6,316,425.5z"/>
	<path class="st2" d="M229.4,257.4c1.3-2.6,4-3.8,5.9-5.7c5.1-0.9,10.4-1.7,11.7-8c0.9,0,1.8,0,2.6,0c2.8,1.8,5.9,0.6,8.9,0.9
		c1.7,0.5,3.1,1.8,5.2,0.2c2.5-2,3.1,0.3,3.4,2.8c-0.7,0.5,0.9-0.7-0.6-0.4c-0.8,0.2-1.5,0.4-1.6,1.4c0,0.8,0,1.6,1.1,1.5
		c0.9-0.2,1-1,1-2.4c2.9,0,2.5,1.7,1.6,3.7c-1.7,3.9-3.2,8-6.3,11.1c-1.6,1.1-3.2,2.1-4.6,3.4c-5.4,4.6-5.1,8.6,0.8,13.3
		c2.4,3.1,5.8,1.4,8.8,1.7c6.5,0.6,13-0.9,19.5,2.4c2.7,1.4,2.4,9.1,8.2,4.4c0.2,1.1,1,2.8,0.6,3.1c-4.1,3.3-1.3,6.3,0.4,9.2
		c1.9,3.1-1.6,0.9-1.8,1.9c-4.6,4.5-9.1,8.9-15.4,11.3c-2.9,1.1-6,2.8-7.8,5.7c-0.4,1.7-1,3.3-1.3,5c-1.7,8.2,3.4,16.6,11.6,16.7
		c5.3,0.1,10.9-2.6,16-4.9c4.8-2.1,9.8-2.3,14-0.5c4.5,1.9,6.7,6.4,5.4,11.7c-1.2,2-2.4,4-3.6,6c-1.6,0.9-3.2,1.8-3,4
		c-2.5,1.2-5,1.5-7.7,0.8c-1.5-0.4-1.6-0.2-3.5,1.1c-3.8,2.1-8,0.6-12,1c-2,0.2-4.1,0.5-2.3,2.9c1.3,1.8,3.7,2.8,5.5,4.2
		c5,4,11.2,1,16.6,2.8c1.8,4.2,0.3,7.7-3.5,9.6c-3.6,1.8-0.3,2,0.3,2.8c-3.9,1.9-8.4,2-11.9,0.1c-7.2-4-14.4-4.5-22.1-2.7
		c-0.1-0.3-0.2-0.6-0.3-1c0.9-0.2,2-0.2,1.9-1.5c0-0.1-0.2-0.4-0.4-0.4c-1.4-0.1-1.3,1-1.6,1.8c-3.8,4.2-4.3,10.9-0.9,14.4
		c0.8,0.8,2.2,1.9,2.9-0.3c2.6-0.4,3.6,0.9,3.6,3.2c0.5,3.6-2.3,2.4-3.9,2.4c-9.8,0-19.6-0.3-29.4-0.1c-3.9,0.1-5-1.6-4.6-6.7
		c-1.9,4.2-3.4,5.6-6.4,5.7c-8,0.2-16-0.4-23.8-2.4c-5.4-3.2-11.4-4.5-17.5-5.8c-0.4-0.1-0.9,0.6-1.4,0.9c-0.4,0.1-0.7,0.2-1.1,0
		c-0.3-1.6-1.3-2.3-2.9-2.2c-5.1,0.3-9-3.7-15-2.3c-3.5,0.8-8.5-4.4-10.5-9.3c0.6-0.3,1.7-0.5,1.8-0.9c0.3-1.2-0.9-1.4-1.8-1.5
		c1.2-3.8-3.2-6.4-2.4-10.2c2.6-2.8,3.4-7.2,7.6-8.6c3.4,1.1,8.2-1.6,10.4,1.9c2.5,4,6.6,6.3,9.2,10c2,0,3.7-1.6,5.8-1
		c2.8,2.6,5.8,2.5,6.7-1.2c0.9-3.5,0.3-7.3,0.3-11c0-1.2-0.9-1.2-2-1.5c-5.7-1.2-11-3.6-15.8-6.5c-2.2-1.3-3.8-4.4-6.2-6.5
		c-2.1-1.8-5.5-4.2-3.4-8.1c2.3-4.1,4.8-6.2,10.6-5.1c7.4,1.5,13.4,6.6,21.1,7c3.9,0.2,7.7,0.2,9-3.5c1.4-3.7,2.7-8.1-1.1-11.6
		c-0.1-1.5-0.2-3-0.3-4.5c0.5-2.3-1.4-3.4-2.5-4.9c0.1-3,0.1-6,0.2-9.1l-0.1,0.1c1.3-0.4,1.6-1.2,1.2-2.4c0,0-0.1,0.1-0.1,0.1
		c0.4,0.2,0.8,0.3,1.2,0.5c2.1,0.1,0.6-2.6,2.3-2.8c3,0.1,6.2-0.9,8.3,2.3c3.7,10.8,4.4,11.5,11.5,11c0.1,0.6,0.3,1.1,0.4,1.7
		c-1.3,0.2-2.7-0.4-3.7,0.6c-0.1,0.1,0.4,1.1,0.8,1.2c1.7,0.6,2.4-0.6,3-1.8c0.8-0.1,2.2-0.1,2.2-0.2c0.6-4.5,4.3-7.5,5.6-11.7
		c0.5-1.4,0.9-2.9-0.6-3.9c-2.2,0.7-0.4,3.2-2.1,3.8c-1.9-3.6,1.5-5.4,3.1-8.1c-1.6-1-4.6,1.3-4.6-2c0.6-0.1,1.5,0.1,1.5-0.9
		c0-0.2-0.4-0.7-0.7-0.7c-1,0-0.8,0.9-0.9,1.5c-2.1-0.9-2.5-2.6-2.4-4.6c0.6-0.1,1.5,0.2,1.6-0.9c0-0.2-0.4-0.7-0.7-0.7
		c-1.1,0-0.8,0.9-0.9,1.5c-5.6-3.9-7.6-11.5-5.3-17.2C227.7,263.1,230.3,260.8,229.4,257.4z M242,373.1c-2.3,0.2-1.5-2.9-4.1-3.3
		c0,3.6,0,7,0,10.3c0,1.3,0,2.7,0.1,4c0,1,0.1,2.1,1.5,1.4c0.4-0.2,0.2-1.4,0.2-2.2c1.8-2.9,1-6.8,3.6-9.5
		C244,373.2,242.9,372.7,242,373.1z M234,335.1c-0.7,1.4-7.1-0.4-2.6,4.2c0.7,0.7,0.2,2.6,0.3,3.9c0.3,2.8-0.4,5.8,3.2,9.4
		C232.7,346,232.9,340.7,234,335.1z M178.4,374.3c-0.9-2.5-3.5-1.2-4.9-2.5c-1.2-1.2-2.7-2.5-5.8-1.5
		C171.2,373.2,173.6,376.4,178.4,374.3z M283.3,374.8c-4.2-1.3-6.9-1.6-10.4,0.1C276.5,376,279.2,376.8,283.3,374.8z M254.9,298.9
		c-0.3,2.2-1.6,4.6,0.6,6.3c0.2,0.2,1.2-0.2,1.5-0.6C259.3,301.7,253.3,301.7,254.9,298.9z M295,379.4c-0.5-1-1.5-0.9-2.4-0.8
		c-0.9,0.1-1.5,0.7-1,1.4c0.3,0.5,1.3,0.6,2,0.7C294.3,380.7,295.1,380.4,295,379.4z M232.2,277.2c-0.7-0.9-1-1.3-1.3-1.7
		c-0.4,0.3-1,0.5-1.1,0.9c-0.2,0.7-0.1,1.6,1,1.5C231.2,277.9,231.7,277.5,232.2,277.2z M163.6,379.5c0.2,0.3,0.3,0.7,0.5,0.8
		c0.3,0.1,0.6-0.2,0.9-0.3c-0.2-0.4-0.5-0.7-0.7-1.1C164.1,379.1,163.9,379.3,163.6,379.5z M287.3,357.2c0.3-0.2,0.8-0.2,0.9-0.5
		c0.1-0.2-0.1-0.6-0.2-0.9c-0.3,0.2-0.7,0.3-0.9,0.5C286.9,356.5,287.2,356.9,287.3,357.2z M294,355.8c-0.1,0.3-0.4,0.7-0.3,0.9
		c0.1,0.2,0.6,0.3,0.9,0.5c0.1-0.3,0.3-0.6,0.2-0.8C294.7,356.1,294.3,356,294,355.8z M168.8,382c-0.3-0.1-0.5-0.3-0.8-0.3
		c-0.1,0-0.4,0.3-0.3,0.4c0.1,0.3,0.3,0.5,0.5,0.7C168.4,382.5,168.6,382.2,168.8,382z M228.8,273.2c-0.2-0.3-0.3-0.7-0.5-0.9
		c-0.2-0.1-0.6,0.1-0.9,0.2c0.1,0.3,0.2,0.7,0.4,0.9C228.1,273.5,228.5,273.2,228.8,273.2z"/>
	<path class="st3" d="M239,591.2c7.1,1.1,14.2,2.4,21.4,3.4c14.5,2.1,29,1.2,43.6,1.4c22,0.3,43.9-1.9,65.5-5.3
		c37.3-5.8,74-14,108.5-29.8c6.3-2.9,12.3-6.4,18.5-9.6c0.9,2.1,2,4.2,2.7,6.4c3.7,11.6,0.8,18.5-10.3,23.8
		c-17.6,8.3-35.7,15.1-54.3,20.8c-42.1,13.1-85.2,18.7-129.2,17.6c-16.1-0.4-32.2-2-48.2-4.3C244.7,613.9,235.5,604.6,239,591.2z"/>
	<path class="st4" d="M262.6,262.4c3.1-3.2,4.6-7.2,6.3-11.1c0.9-2.1,1.3-3.7-1.6-4.2c-0.4-1.9-0.9-4.3-3.5-2.3
		c-2.1,1.7-3.5,0.4-5.2-0.2c0.1-0.2,0.1-0.5,0.1-0.7c-2.7-3.3-6-2.2-9.3-1.2c0.1-2.8,0.2-5.5,0.3-8.3c3-3,5.7-6.2,9-8.8
		c2.5-2,5.5-4.7,9.1-3.5c4.8,1.7,9.4,3.9,12.9,8c2.8,3.2,7,4.9,11.3,4.5c3.1-0.3,6.2-0.1,9.3-0.2c1.6,3.9,3.6,7.8,2.5,12.3
		c-0.6,2.5-3.3,4.3-2.3,7.3c-2.8,5.9-0.3,11,6,11.5c5,0.4,10.1-0.1,15.2-0.1c9.4,0.1,13,6.5,8.6,14.8c-2,3.8-5.5,6.3-8.5,9.4
		c-2.3,2.6-4.4,5.3-6,8.4c-1.7,3.2-0.4,3.9,2.3,3.5c5.5-0.8,11-1.8,13.3-7.9c3.5-1.5,7.4-2.6,8.2-7.1c1.1-0.1,2.5,0.2,3.4-0.3
		c7.1-3.6,13.2-1.7,19.1,2.7c0.3,1.2,1.1,2,2.3,2.3c1.5,4.1,2.5,8.3,1.7,12.7c-1,2-1.9,3.9-2.9,5.9c-0.4,0.4-0.8,0.7-1.3,1.1
		c-3,2.7-7,0.8-10.3,2c-4.3-3.9-7.8-2.4-10.9,1.5c-3.7,2.8-6.2,6.3-7.1,10.9c-0.8,4,0.1,6.8,5,6.9c-7.3,5.4-14.8,10.3-22.7,14.8
		c1.3-5.3-0.9-9.8-5.4-11.7c-4.3-1.8-9.2-1.6-14,0.5c-5.1,2.3-10.7,4.9-16,4.9c-8.2-0.1-13.3-8.5-11.6-16.7c0.3-1.7,0.9-3.3,1.3-5
		c4.1-1,7.8-3.2,11.5-4.9c5-2.4,11-5.2,11.7-12.1c0.2-1,3.7,1.2,1.8-1.9c-1.8-2.9-4.6-5.8-0.4-9.2c0.4-0.3-0.4-2.1-0.6-3.1
		c-5.9,4.7-5.5-3-8.2-4.4c-6.5-3.4-13-1.8-19.5-2.4c-3-0.3-6.4,1.4-8.8-1.7c0,0,0.1-0.4,0.1-0.4c1.7-1.5,1.2-2.3-0.9-2.4
		c-5.2-8.5,5.7-9.4,7.5-15.1C264.3,261.7,263.4,262,262.6,262.4z M276.3,259.1c4.4-6.6,4.2-10.2-0.3-12.9
		C277.2,250.4,275.2,254.2,276.3,259.1z"/>
	<path class="st4" d="M230.6,309.8c-0.1-0.6-0.3-1.1-0.4-1.7c-0.2-0.5-0.4-1.4-0.5-1.4c-6,0.5-7.9-3.2-8.6-8.1
		c-0.2-1.2-0.3-3.1-2.4-1.5c-2.1-3.2-5.3-2.3-8.3-2.3c-0.7-5.4-3.4-0.8-4.6-0.5c-2.6,0.7-2.5,3.8-3.8,5.8c0.7,0.1,1.5,0.3,2.2,0.4
		c0.8,2.6-1,5.6,1.4,7.9c1.1,1.5,3,2.6,2.5,4.9c-3.6,3-3.5,7.9,0.1,10.4c1.2-1,1.5-2,0.2-3.1c0-0.9,0-1.9,0-2.8
		c3.8,3.5,2.5,7.9,1.1,11.6c-1.4,3.7-5.2,3.7-9,3.5c-7.8-0.4-13.7-5.5-21.1-7c-5.7-1.1-8.3,1-10.6,5.1c-2.2,3.9,1.2,6.3,3.4,8.1
		c2.4,2,4,5.1,6.2,6.5c4.8,2.9,10.2,5.3,15.8,6.5c1.1,0.2,2,0.3,2,1.5c0,3.7,0.6,7.5-0.3,11c-1,3.8-3.9,3.9-6.7,1.2
		c-2.3-1.7-4.4-2.7-5.8,1c-2.6-3.7-6.7-6-9.2-10c-2.1-3.5-6.9-0.8-10.4-1.9c0-0.5,0.1-1.5,0.1-1.5c-4.3-0.3-8.7,5.5-7.7,10.1
		c-0.8,3.8,3.6,6.3,2.4,10.2l-0.2,0.2c-0.5,0.1-1.3,0.2-1.4,0.4c-0.3,1.1,0.6,1.4,1.4,1.7l0.1,0.1c2,4.9,7,10.1,10.5,9.3
		c6-1.4,10,2.6,15,2.3c1.6-0.1,2.6,0.6,2.9,2.2c-6.5,3.3-13.1-0.4-19.6,0.3c-4.3,0.6-7.7-2.2-11.7-2.8c-2.4-0.4-4.6,1-7.5-0.5
		c-3.7-1.9-5.2-4.1-5.2-7.8c-0.1-4,2.5-7.1,3.9-10.6c1.4-3.3,1.8-6.2-1.2-8.8c-5.5-3.9-12.4-3.2-18.3-5.9c-6.7-8.7-2.9-18,8.1-21.1
		c5.6-1.6,11.7-1.4,17-4.2c3-1.5,5.3-3.2,5.3-6.9c0-3.8-2.4-5.9-5.7-7.3c-2.7-1.1-5.6-1.8-8.2-3c-3.7-1.7-6.9-4.1-6.3-8.8
		c0.7-4.8,3.6-8,8.4-9.3c2-0.5,4.2-1.1,6.4-0.2c4.5-0.8,7.9,2.6,12.2,2.8c5.3,4.8,11.7,6.6,18.8,6.6c1.3,0,2.2-0.6,2.4-1.9
		c2.4,0.4,3.4-1.4,4.7-2.8c5.2-4.2,5.7-7.3,1.3-11.2c-3.9-3.6-8.8-4.2-13.9-4.9c-4.7-0.6-10.2-1.9-10.8-7.7
		c-0.6-5.1,3.6-7.5,8.2-8.7c1.1-0.1,2.3-0.2,3.4-0.3c7.5,0.1,15.2,2.6,22.1-2.5c1.9-3.3,4.2-6.5,5.6-10c3.5-8.7,13.6-7.9,17.9-2
		c1.6,2.3,3.4,4.5,5.2,6.7c0.9,3.4-1.8,5.8-2.9,8.5c-2.3,5.7-0.3,13.3,5.3,17.2l0,0c-0.1,2,0.2,3.8,2.4,4.6l0,0c0,3.3,3,1,4.6,2
		c-1.6,2.7-5,4.6-3.1,8.1c1.7-0.6-0.1-3.1,2.1-3.8c1.5,1,1,2.4,0.6,3.9c-1.3,4.1-5,7.2-5.6,11.7
		C232.9,309.8,231.4,309.8,230.6,309.8L230.6,309.8z M196.3,284c-3.3-6.2-9.2-8.5-15.4-10.3c-0.8-0.2-1.6-0.2-1.9,0.7
		c-0.3,0.8,0,1.8,0.8,1.9C186.1,277.2,190.9,281,196.3,284z M194.1,353.9c-1.6,2.2-1.6,3.8,0,6C194.1,357.7,194.1,356.1,194.1,353.9
		z M156.9,370.7c-0.3-0.2-0.8-0.5-1.2-0.8c-0.2,0.3-0.5,0.7-0.5,1c0.2,0.5,0.5,1.1,0.9,1.2C156.8,372.2,157,371.6,156.9,370.7z"/>
	<path class="st5" d="M301.3,234.5c-3.1,0-6.2-0.1-9.3,0.2c-4.3,0.4-8.5-1.3-11.3-4.5c-3.5-4.1-8.1-6.3-12.9-8
		c-3.6-1.2-6.6,1.4-9.1,3.5c-3.3,2.6-6,5.9-9,8.8c-0.4-2.3-1.9-2.3-3.9-2.3c-5.4-0.1-10.7-0.6-15.3-3.8c12.8-12.6,27-23.5,41-34.7
		c17.4-13.9,35.4-26.9,53.6-39.7c2.8-0.5,3.2-3.7,5.6-4.7c1.2-0.6,2.4-1.2,3.6-1.9c2.2-1.2,4.5-2.4,6.6-3.7
		c8.6-5.4,17.1-10.8,25.7-16.2c2-1.3,5.3-2.8,5.5,0.3c0.3,4.1,3.2,7.5,2.2,11.6c-2.4,1-1.7,3-1.7,4.8c-0.1,7.2-0.4,14.4-2.4,21.4
		c-3.3,6.8-2.4,14.8-6.7,21.3c-0.5,3.1-3.4,5.5-2.9,9l0-0.1c-3.1,0.8-2.8,4.3-4.9,5.9c-0.6,0.5-1.3,1-1.6,1.6
		c-3.1,5.8-7.2,10.4-12.4,14.7c-6,5.1-13.5,6.6-19.7,10.8c-4.1,2.8-9.6,2.4-13.4,5.9c-1.1,1-2.5,0.7-3.6-0.6
		C303.8,232.7,302.6,234,301.3,234.5z M312.6,174.1c0.3-0.4,0.7-0.9,1-1.3c2.2-1.9,4.3-3.8,5.6-8.3c-3.5,2.8-5.6,4.7-6.3,7.6
		c-0.4,0.4-0.8,0.8-1.2,1.2c-0.4,0.4-0.7,0.8-1.1,1.2c-1.2,0.3-2,1.1-2.3,2.3c-0.4,0.4-0.8,0.7-1.2,1.1c-0.4,0.4-0.8,0.8-1.2,1.2
		c-2.5,0.6-4.4,1.7-5.3,4.9c3.2-0.7,4.7-2.3,6-4.2c0.4-0.3,0.9-0.7,1.3-1c0.4-0.4,0.7-0.8,1.1-1.2c0.8-0.8,1.6-1.5,2.4-2.3
		C311.7,174.8,312.1,174.5,312.6,174.1z M336.5,163.8c0.4,1.4,0.9,2.9,2.5,3.5c0.3,1,0.3,2.2,1.6,2.6c0.3,0.1,0.9-0.1,0.9-0.3
		c0.3-1.5-0.7-2.3-1.7-3.1c-0.4-1.4-1.1-2.7-2.5-3.4c-0.4-1.8-1.9-2.2-3.4-2.6c-3.8-3.2-7.6-2.9-11.2,0.2c-0.9,0.3-1.9,0.6-1.8,1.7
		c0,0.2,0.4,0.6,0.7,0.6c1.2,0.1,1.5-0.9,1.9-1.7c3.3-0.9,6.6-0.6,9.9-0.2C334.1,162.4,335,163.4,336.5,163.8z M315.6,217
		c1.1-0.4,2.3-0.6,3.3-1.2c4-2,8.9-3,5.5-9.8c-1.8-3.5,1.8-5,5.4-3.8c2.3,0.8,4.2,1.1,5.4-1.6c1.2-2.8-1.2-3.3-2.8-4.2
		c-2-1.1-3.7-2.5-3.1-5c0.8-3,3.4-3.1,5.7-2.5c4.5,1.1,4.7-1.5,4.2-4.4c-0.5-2.8-1.9-4.8-5.4-5.1c-3.2-0.2-6.4-1.9-3.7-5.6
		c3.7-5.1-0.7-4.7-3.1-4.7c-4.7,0-7.4,2.9-8.7,7.3c-2.3,7.5-8.1,12.1-15.8,12.3c-5.2,0.1-10.1,1.4-15,2.5c-9,2.1-12.6,12.3-6.9,18.7
		c-0.4,0.6-0.6,1.5-1.1,1.9c-1.8,1.5-2.1,3.5-0.8,5c1.7,2,3.8,0.5,5.6-0.6c0.8-0.5,1.3-1.3,2-2c1.1,3.1,3.3,3.9,5.7,1.9
		c3.3-2.8,5.5-2.4,7.3,1.4c0.6,1.2,1.8,1.2,3,1.5c5.4,1.4,4.9-3.4,6.6-5.8c0,2.7-0.2,5.4,0.1,8c0.3,2.4,2,4.4,4.5,4.4
		c3.4,0,2.1-2.9,2.3-4.8C315.8,219.7,315.6,218.3,315.6,217z M274.5,207.8c-0.2-3.8-0.1-7.7,0-11.5
		C271.3,200.3,271.2,204.1,274.5,207.8z M269.2,212.6c-0.5-4.6-0.9-8-1.3-11.5C266,204.9,265.1,208.6,269.2,212.6z"/>
	<path class="st6" d="M223.5,165.6c-3.8-0.9-5.2-4.5-7.7-6.8c-8.4-7.8-17.9-14.4-25.9-22.7c-2.7-2.8-3.1-4.5-0.3-7.7
		c8.6-9.7,16.7-19.9,25-29.8c2.1-2.5,3.3-4.9,7.7-1.3c3,2.4,8.9,1.5,13.3,3.2c6,2.4,12.8,2.5,18.4,6.7c3.3,2.4,4,6.5,7.4,8.4
		c-0.1,0.2-0.2,0.3-0.3,0.5c0.1-0.2,0.2-0.3,0.3-0.5c0.6,0,1.4-0.2,1.7,0.1c7,5.8,14,11.7,20.9,17.7c1.8,1.5-1.2,1.9-1.3,3.1
		c-7.1-2.4-15.5,0.3-21.9-5.5c-2.5-2.3-3.1,0.8-3.4,2c-1.4,5.1-5.2,8-9.8,10.1c-4.9,2.2-8.5,5.4-9.9,10.7c-0.7,2.6-2.2,3.8-5.1,4.5
		C228.8,159.3,224.9,161.3,223.5,165.6z"/>
	<path class="st7" d="M330.8,149.3c-2.4,1-2.8,4.2-5.6,4.7c-5.3-6.1-10.7-12.1-14-19.7c-3.7-8.6-4.6-17.4-5.2-26.6
		c-1.1-17.9,6.3-32.3,18.3-44.1c9.6-9.3,21.7-14.8,35.8-17c10.9-1.6,21.1-1.1,30.6,3c9.6,4.2,19.8,7.9,26.9,16.3
		c0.1,3.8-5.2,2.8-5.6,6.2c5.4-4.6,5.2-4.4,9.8,1.5c2.2,2.8,1.9,7.7,6.9,8.3c1.3,0.2,1.6,1.1,1.7,2.2c-3.9,0.4-2.1,2.3-1.5,4.4
		c2.5,8.2,4.7,16.6,3.7,25.2c-0.4,3.2,0.3,5,3.2,6.1c0.6,1.9-0.3,2.7-2.1,2.8c-1-0.4-1.5-1-2.5,0.6c-1.8,2.8-1.5,6.4-4.3,8.6
		c-0.2-0.2-0.5-0.4-0.7-0.6c0,0.4,0,0.9,0,1.3c0.7,1.1,0.5,2.2-0.3,3.2c-3.6,5.1-7.2,10.1-10.6,15.3c-1.1,1.7-3.1,1.1-4.2,2.6
		c-5.3,7.1-13.2,10.3-21.3,13.2c-1.6,0.6-5.1,0.4-3.6,4c-2.8,1.8-5.8,2.2-9.1,1.6c-0.2-3.8,0.5-7.8-1-11.5
		c10.8-1.4,20.6-5.3,28.7-12.3c7.1-6.2,11.2-14.7,15.3-23.2c3.1-6.5,3.2-13.5,3-19.7c-0.3-10.6-4.1-21.1-11.3-29.7
		c-4.1-4.8-8.2-9.6-13.9-12.9c-12.6-7.3-25.9-6.6-39.5-4.5c-0.4-1.5-1.8-1.8-2.8-1.4c-4.2,1.6-8.9,0.4-12.8,4.1
		c-3.8,3.6-9.2,5.4-12.9,9.7c-6.2,7.2-10.6,14.4-13.2,23.1c-2.2,7.5-3.2,15-1.2,22.7c0.8,3.1,1.6,6.3-3.4,7.9
		c4.6-1.9,5.7,0.6,6.7,3.5c2.5,7,5.5,13.7,12.5,17.6l-0.1-0.1C331,147,330.9,148.1,330.8,149.3z"/>
	<path class="st6" d="M454.4,207.3c-7.5,3.1-15.6,3.1-23.4,4.7c-3.9,0.8-8,0.5-12,2c-5.9,2.2-8.6,0.5-9.9-5.6
		c-2.4-11.4-4.3-22.8-7.1-34.1c-1-4.2,2.7-2.5,3.5-3.9c3.5-5.4,9.7-7.3,14.5-11c7.1-5.5,15.6-6.8,24.3-7.5
		c7.6-0.6,14.9-2.3,22.3-3.9c1.5-0.3,2.6-0.4,3.9,0.3c0.6,0.1,1.1,0.2,1.7,0.4c0.3,0.1,0.5,0.3,0.7,0.4c-3.1-0.4-3.6,3-5.2,3.8
		c-5.1,2.5-7.8,7.7-13,9.8c-3.2-0.9-5.8,1.4-9.2,1.7c6.4-1.4,6.5,2.3,6.4,6.5c-0.1,3.1,0.4,6.2,0.7,9.3c-2,3.4,3.1,5.7,1.5,9
		C451.4,195.2,454.6,201.2,454.4,207.3z"/>
	<path class="st7" d="M93.5,245.9c-18.4-6.3-31.5-17.9-40.3-35.2c-6.3-12.3-4.5-24.7-4.1-37.2c0.1-3.2-0.1-8.9,5.2-11
		c1.8-0.7-0.3-2.6,0.5-4.5c6.2-14.4,17.3-23.1,31.2-29.6c8.1-3.8,16.8-5.5,24.9-5.5c6.2,0.1,13.3-0.1,19.9,3
		c8.8,4.1,18.5,6.3,25.9,13.1c0.8,0.8,1.4,1.8,2.1,2.7c0.4-0.1,0.6,0.1,0.6,0.5c0.3,0.1,0.5,0.3,0.5,0.6c1.6,1.5-2,2-0.8,3
		c5.2,4.3,6.7,10.7,10,15.7c4.7,7.1,3.7,14.4,6,21.4c2.1,6.5,0.2,8.4-6.6,10.1c-0.6,0.2-1.2,0.7-1.8,1.1c2.5,1.3,5.5-1.7,7.3,1
		c1.9,2.9-3.4,13-6.9,13.6c-1.2-2.6-3.6-4.7-3.9-7.7c2-3.9,2.2-7.8,0.3-11.8c3.2-0.8,4.5-3.6,3.1-5.7c-3.3-5.1-1.7-11-4-16.4
		c-4.2-10.3-10.7-18-19.4-24.8c-5.7-4.5-12.5-5.2-18.7-7.9c0.2-0.3,0.4-0.7,0.5-1c0-0.1-0.2-0.4-0.3-0.4c-7.1,0.1-14.2-1.6-21.2,0.5
		c-6.4,0.4-12.3,1.7-17.9,5.3c-5.2,3.4-10.8,6.1-14.4,11.3c-1.7,2.5-3.7,3.6-7.1,1.2c0.8,2.5,4.2,3.1,2,5.3c-2.7,2.7-2.1,9-9.8,7.2
		c3.2,1.8,4.5,2.7,4,5.9c-0.5,2.8-2.7,4.6-2.9,7c-0.6,11.4,0,22.6,5.7,33c0.7,1.4,1.5,2.7,2.2,4.1c2.1,4.1,4.6,7.8,9.5,9
		c2.5,1.2,2.5,4.7,4.3,5.7c6.3,3.4,12.4,7.3,19.3,9.5c-1.3,2.8-2.7,5.5-4,8.3C93.9,246.1,93.7,246.1,93.5,245.9z"/>
	<path class="st8" d="M542.7,221.5c1-0.1,1.9-0.1,2.5,1c-1.6,3.7,2,3,3.5,3.6c12.6,5.4,17.1,11,16.7,20.9
		c-5,8.5-13.4,12.1-22.5,13.4c-4.1,0.6-7.8,2.2-11.8,2.6c-3.7-2.9-12.1-2.8-15.2,0.2c-0.5,0-1.1,0-1.6,0c-2.4-4.7-6.7-1.1-9.9-2.1
		c-3,2.5-5.8,0.3-8.5-0.5c-9.2-2.8-18.8-4.7-26.2-11.6c-9.1-8.4-8.2-17.4,3.1-23.2c10.8-5.6,22.5-7.8,34.8-6.7c0.4,3,4.3,3.9,4.6,7
		c-0.7,0-1.4,0-2.1,0c-1.7-0.8-3.3-1.8-5-2.3c-1.2-0.3-3-0.2-3.8,0.5c-1.3,1.2,1.5,1.9,1.2,3.3c-3.6-0.8-6.8-0.3-9,2.9
		c-5.4,1.5,1.7,3.2-0.1,4.8l0,0c-4.5-1.9-7,0.2-9,4c2.8,1.5,7.3-0.6,7.8,1.9c1.3,6.1,4.9,4.6,8.7,3.8c1.5,0.7,2.9,1.4,4.4,2.1
		c-0.6,5.3,2.6,5.1,6.2,4c1.2-0.4,1.8-1.9,3.4-1.9l-0.1-0.1c-0.3,4.8,1.9,7.4,7,7.1c1.6,0,2.4-0.7,2.3-2.3c0-0.8,0-1.5,0-2.3
		c0.8,0,1.7-0.1,2.5-0.1c1.5-0.1,3.3,0.7,4.3-0.9c1.4-2.3-1-3.4-1.8-5c2.1,0.2,4.5,1.2,5.6-1.8c2.6,0.9,5.4,1,8.1,0.7
		c0.9-0.1,3.1-0.4,1.3-1.7c-2.5-1.8-0.9-2.3,0.5-3.1c1.7-1,3.5-2,5.9-3.4c-3.3-1.4-7.3-0.5-8.4-3.3c-2.6-6.6-6.5-4.7-10.8-2.3
		c0.1-1.8-1.5-1.9-2.5-2.6c0.7-3.8-1.3-4.9-4.6-4.4c-3.5,0.5-5.2-0.7-4.8-4.4c7.1-0.4,13.6,1.9,20.3,3.5
		C540.9,223.3,542.7,225,542.7,221.5z M557,247.1c2.6-0.7,4.3-2.3,4.5-5c0.1-0.9-0.7-1.5-1.5-1.1C557.6,242.2,556.5,244.3,557,247.1
		c-0.9,0.1-1.9,0.1-1.8,1.4c0,0.1,0.2,0.3,0.4,0.4C556.8,248.9,556.8,247.9,557,247.1z M493.1,254.1c4.8,3.4,10,4.6,15.8,3.6
		C503.6,256.3,498.9,252.8,493.1,254.1c-3-3.8-8.1-4.3-12-6.9c-1.5-1-3.3-3.8-6.8-1.2C480.1,250.2,485.5,254.2,493.1,254.1z"/>
	<path class="st5" d="M200.8,262.6c-6.9,5.1-14.6,2.7-22.1,2.5c1.5-0.8,3.1-1.6,4.5-2.5c9.3-6.1,9.6-13.5,0.7-20.7
		c-0.4-1.2-1.2-2-2.5-2.4c-0.9-2.8-2.3-5.1-4.8-6.7c-1.2-2.5-2-5.3-4.6-7.1c-0.5-0.9-0.2-2.4-1.7-2.7c-0.2,0-0.7,0.3-0.8,0.6
		c-0.2,1.3,0.8,2,1.6,2.8c1,2.7,2,5.4,4.6,7.2c1.3,2.5,2.2,5.3,5,6.7c0.3,1.3,1,2,2.2,2.4c8.4,11.5,5.7,14.7-6,20.3
		c-1.2,0.5-2,1.1-1.8,2.5c-4.6,1.2-8.8,3.6-8.2,8.7c0.6,5.7,6.1,7,10.8,7.7c5.1,0.7,10.1,1.3,13.9,4.9c4.3,4,3.9,7-1.3,11.2
		c-1.6-3.6-4.7-1.4-7.2-1.8c-4.2-1.4-8.5-2.8-12.7-4.2c-0.5-1.5-1.7-1.9-3-2.4c-10.1-3.9-18.8-9.9-26.7-17
		c5.5-7.4,11.1-14.8,16.6-22.2c2.7,0.9,2.8,2.5,1,4.3c-2.7,2.8-2.4,3.6,1.7,4.4c4.4,0.9,6.5-0.2,7.9-4.3c1.3-3.9,4.6-4.3,6.5-1.1
		c2,3.4,2.7,1.5,3.8,0c2.7-3.8,1.5-9.5-4-12.1c-5.1-2.4-7.6-6-9.6-10.6c-1.1-3.1,2.5-4.9,2.2-7.8c3.6-3,4.5-7.8,7.7-11.1
		c5.9,8,9.1,17.3,13.8,25.9C192.7,246,195.2,255.1,200.8,262.6z"/>
	<path class="st9" d="M376.3,161c1.5,3.7,0.8,7.7,1,11.5c-3.1,0.3-2.1,2.8-2.3,4.5c-4.9,32.8-21.2,57.6-52.5,71.5
		c-6.5,2.9-13.5,5.2-20.9,5.6c-1-3,1.7-4.8,2.3-7.3c1-4.5-1-8.3-2.5-12.3c1.2-0.4,2.4-1.8,3.7-0.3c1.1,1.3,2.6,1.6,3.6,0.6
		c3.8-3.5,9.3-3.2,13.4-5.9c6.2-4.2,13.7-5.6,19.7-10.8c5.1-4.4,9.3-9,12.4-14.7c0.3-0.6,1.1-1.1,1.6-1.6c0.3,0.7,0.4,1.8,1.4,0.6
		c1.6-2,3.1-3.9,3.5-6.6c0,0,0,0.1,0,0.1c1.8-1.3,2.5-3.4,3.1-5.3c0.3-1,3.7-2.8-0.2-3.6c4.3-6.5,3.4-14.5,6.7-21.3
		c1,3.3,1.8,1.9,2.1-0.2c0.9-5,1.5-10.1,2.3-15.1c0.5,0.1,0.9,0.1,1.4,0.2C376.1,154,376.2,157.5,376.3,161z"/>
	<path class="st8" d="M352.6,312.9c3.3-1.1,7.3,0.8,10.3-2c3.4,5.3,10,2,14.3,5.1c1.1,0.8,2.6,1.1,3.8,0.1c0.4-0.4,0.7-1.4,0.5-2
		c-0.5-1.4-1.8-2.1-3.3-1.9c-4.9,0.6-9.5-0.7-14-2.4c1-2,1.9-3.9,2.9-5.9c2.4-0.6,4.7-1.4,7.2-1c1.6,1.1,3.3,1.3,5.2,1.2
		c-1,1.5-3.5,2.8-1.6,4.8c1.5,1.7,3.9,1.3,5.9,0.3c1-0.5,1.9-1.2,2.9-1.8c-0.2,3.7,1.1,6.4,5.1,7.1c4.5,0.8,4.4-2.4,4.6-5.3
		c0.1-1.1,1.1-1.4,2.1-1.6c2-0.2,3.4,3.7,5.9,0.6c2-2.3-0.5-2.8-1.1-4.1c1.4-0.4,2.8-0.9,4.2-1.3c1.4,0,2.7,0.1,4.1,0.1
		c2.4,0.1,4.9-0.6,5.1-2.8c0.3-3.2-2.8-1.3-4.3-1.9c-0.7-0.3-1.3-0.7-2-1c2.6-0.6,5.2-1.4,8-1.2c1.2,0.1,3.2,0.5,3.2-1.4
		c0-1.3-1.4-2.2-2.7-2.8c-1.8-0.8-5,0.5-5.4-1.2c-1.5-5.8-6-3.3-9.4-3.8c-1.2-0.1-2.4-0.2-3.2-1.3c-0.6-3.4-0.9-7.2-6-4.1
		c-1.7,1-2.5,0.4-3.5-1.4c-2.1-3.8-7.1-3.7-9.2,0.1c-1.1,1.9-2.1,2.2-3.6,1.2c-3.7-2.5-4.6,0.5-5.9,2.8c-1.4,1.3-5.5,1.3-2.4,4.8
		c-2.3,0-4.7,0.1-7,0.1c-5.8-4.4-12-6.3-19.1-2.7c-0.9,0.5-2.3,0.2-3.4,0.3c9.9-8.1,22.1-9,34.1-10.6c4.8,0,9.6,0.1,14.3,0.1
		c5.5,0.8,11.1,2,16.7,1.2c5.3,0,9.7,3.8,15.1,3.6c2.4,4.3,7.6,5,10.9,8.1c0.3,1.1,1.1,1.4,2.2,1.2l-0.1-0.1c2.3,4.7,6.7,8.9,4,14.9
		c-7.3,4.4-15.8,4.8-23.8,6.9c-12.1,3.2-24.2,6.9-36.8,8.3C368.9,318.6,360.8,315.6,352.6,312.9z M427.9,304.3
		c4.4,0.5,5.8-0.9,5.2-5C431.5,300.9,429.6,302.7,427.9,304.3z"/>
	<path class="st10" d="M223.5,165.6c1.4-4.4,5.3-6.3,9.1-7.3c2.9-0.8,4.4-1.9,5.1-4.5c1.4-5.2,5-8.4,9.9-10.7
		c4.5-2.1,8.3-4.9,9.8-10.1c0.3-1.2,0.9-4.3,3.4-2c6.3,5.8,14.7,3.1,21.9,5.5c0.9,1.5,2.4,0.9,3.7,1.3c4.1,1.3,4.6,3.8,1.4,6.8
		c-9.1,8.5-18.3,16.9-27.3,25.4c-2.3,2.2-4.2,2.4-7.3,1.7C243.4,169.4,233.4,167.6,223.5,165.6z"/>
	<path class="st11" d="M491.8,112.8c-2.9-2.8-5.1-6.1-6.8-9.8c-1.9-4.1-2.6-8.1,0.7-11.8c3.3-3.7,7.6-2.7,11.5-1.4
		c12.7,4.4,18.7,14.3,22.1,26.3c2.3,8,2.7,16.1-2.8,23.1c-5.1,6.6-15.4,7.4-18.5,1.2c-2-3.9-4.2-8.2-3.5-13c2.9-3.7,2.4-12.3-1-14.9
		C493.2,112.3,492.4,112.7,491.8,112.8z M514.1,130.7c0.3,2.3-2.8,4.2-1,7c5.5-8.4,5.1-20.3-0.7-27.2c-1.7,3.4,1.9,5.7,1.8,8.7
		C511.4,122.2,511.4,127.7,514.1,130.7z"/>
	<path class="st11" d="M268.6,39c3.7-3.9,8-6.3,13.6-5.8c0.3,0.7,0.6,1.9,0.9,1.9c4.6,0.5,8.7-1.3,12.7-3.1c1.6-0.7-0.1-1.8-1.3-2.1
		c4-4.1,9-6.5,13.9-9.3c5.5-3.1,11.8,0.6,11.9,7.2c0.1,7.3-3.2,13.5-8.4,18.4c-7.4,7.1-16.2,11.7-26.8,12.2
		c-1.4-2.2-0.3-3.7,3.8-4.2c4.1-0.5,7.6-1.6,10.5-4.7c-6.5,1.6-13,3.2-19.7,3.5c-3.1,0.1-0.2,2.2-0.2,3.4c-6.1,2.1-9.5,0.2-13.1-7.1
		c2-1.2,4-2.4,6.7-4.1c-3.8-0.1-5.9-0.7-4.3-4C269.1,40.3,269.7,39.7,268.6,39z"/>
	<path class="st12" d="M507.3,219.1c-12.2-1-23.9,1.1-34.8,6.7c-11.2,5.8-12.2,14.7-3.1,23.2c7.4,6.9,17,8.8,26.2,11.6
		c2.7,0.8,5.5,3,8.5,0.5c0.6,0.4,1.3,0.8,1.9,1.2c0,0,0.9,0.5,1.8,0.9c1.4,0.7,9.6,1.2,20.6-0.1c0.6,0,1.4,0,2.4-0.1
		c4-0.4,7.7-2,11.8-2.6c8.2-1.1,7.4-1.5,10.1-2.7c3.2-1.3,7.9-4.1,12.4-10.7c0-0.1,0.1-2.6,1.8-4.2c0.3-0.3,0.8-0.4,1.4-0.5
		c2.3,8.3-4.3,16-14.1,21c-18.2,9.2-37.4,9.5-56.9,5.7c-11.8-2.3-22.9-6.6-31.9-15c-11.1-10.4-9.9-21.4,3.4-29.3
		c12.8-7.6,27-8.5,41.5-8.5c11.1-0.1,21.5,2.8,32.1,5.2c0.1,3.4-1.7,1.7-3.4,1.3c-6.7-1.6-13.3-3.9-20.3-3.5
		C515.1,218.8,511.2,218.6,507.3,219.1z"/>
	<path class="st12" d="M241.3,19.1c6.2,5.3,7.6,11,4.7,18.6c-6.1,16-18.7,25.9-33,33.9c-15.4,8.6-31.9,12.7-49.8,10.6
		c-4-0.5-7.7-1.8-10.9-3.9c-8.4-5.3-9.5-15-3.2-24.8C157,41.3,168,32.7,181,26.4c0.9,1.5,1.4,0.6,2-0.2c0.6,2-1.3,2.1-2.2,3.1
		c-12,6.1-22.4,14-29.6,25.7c-5.1,8.4-1.9,17.3,7.7,19.8c13.8,3.7,26.9,0.1,39.1-5.1c10.1-4.3,19.9-10,28.6-17.1
		c5.9-4.8,11.5-9.9,14.5-16.9c2.2-5.2,3-10.4-1.2-15.2C240.4,20,240.9,19.5,241.3,19.1z"/>
	<path class="st10" d="M454,189.1c1.6-3.3-3.5-5.6-1.5-9c3.2-2.1,0.6-4.9,0.8-7.4c0.3-3.4-2.1-7.1,1.3-10.1c5.2-2.1,7.9-7.3,13-9.8
		c1.5-0.8,2-4.2,5.2-3.8c-0.2-0.2-0.4-0.4-0.7-0.4c-0.6-0.2-1.1-0.3-1.7-0.4c1.8-0.9,3.7-1.9,6.4-3.2c-1.5,12.4,1.8,23.4,2.3,34.7
		c0.3,6.4-1.1,11.3-6.8,14.5c-5.7,3.2-9.2,9.4-15.9,11.1C454.2,200,456.1,194.3,454,189.1z"/>
	<path class="st12" d="M166.9,223.1c0.3,2.9-3.3,4.7-2.2,7.8c-1.4,6.8-5.2,12.8-7.3,19.3c-5.5,7.4-11.1,14.8-16.6,22.2
		c-3.7,1.6-7.2,3.3-9.5,6.9c-8.1,4-15.4,9.7-25.2,10c-11.3,0.3-16.8-3.9-18.1-14.8c-1-8.6,1.1-16.8,4.4-24.8
		c0.5-1.3,1.2-2.4,1.1-3.8c0.1,0.2,0.3,0.2,0.5,0.1c0.9-0.1,1.5,0.2,1.8,1c-3.4,8.7-6.8,17.4-5,26.9c1.4,7.4,6.6,10.7,14.1,9.4
		c7.9-1.4,14.6-4.9,20.5-10.1c0.4-0.2,0.7-0.4,1.1-0.6l-0.2,0c2.9-0.5,4.7-2.3,5.9-4.8l-0.1,0c0.8,0,1.2-0.4,1.2-1.2l0,0
		c0.8,0,1.2-0.4,1.2-1.2l0,0c0.8,0,1.2-0.4,1.2-1.2l0,0.1c2.4-1.3,4.5-2.9,4.6-6c6.9-7.6,12.4-16.1,15.5-25.8
		c2.2-6.8,6.1-13.2,5.2-21.1c-1.1-9-4.1-12.9-13.2-13.6c0-0.7-0.1-1.3-0.1-2c6.1-1.7,10.4,2,15,4.8c0.4,3,2.8,5.1,3.9,7.7
		C169.9,213.4,165.3,218.2,166.9,223.1z"/>
	<path class="st13" d="M386.5,263.5c-9.1-0.1-20-9.7-21-17.8c-0.5-4.5,2.7-6.3,5.8-7.7c8.5-4,17.1-7.7,25.8-11.3
		c5.8-2.4,11.5,1.3,10.7,7.6c-1,9.1-3.7,17.8-10.6,24.7C393.9,262.1,390.6,264.2,386.5,263.5z M391.6,239.8c-0.3,2.4,0.2,4.3,3,4.7
		c3.6,0.5,9.3-5.3,9.8-10c0.2-2.1,0.1-3.8-2.7-4.1C397.5,230,392.2,234.8,391.6,239.8z"/>
	<path class="st13" d="M91.2,318c-3.4-4.5-2.1-10.4,0.1-15.5c3.7-8.7,10.4-9.3,18-8.9c2.4,0.1,5.3-0.5,5.9,3.2
		c0.2,1.6,1.8,0.7,2.9,0.9c4.9,0.7,7.5,5.3,5,9.4c-4.4,6.9-7.2,14.5-10.8,21.7c-1.9,3.9-4.4,8.4-9.2,8.6c-4.5,0.2-6.3-4.5-8.5-7.8
		c-1.9-2.8-2.8-5.9-2.2-9.3c1.5-4.2,2.5-8.4,0-13.6C90.3,310.9,91.6,314.6,91.2,318z M106.6,325.2c-0.4-6.3-1.6-9.6-3.5-8.9
		c-5.1,1.8-5.4,6-4.9,10.5c0.1,1.3,0.6,2.6,1.1,3.8c0.7,1.7,1.9,2.9,4,2.7c2.1-0.3,3-1.8,3.3-3.5
		C106.8,328.2,106.6,326.7,106.6,325.2z"/>
	<path class="st9" d="M131.3,279.3c2.2-3.5,5.8-5.3,9.5-6.9c8,7.1,16.7,13.1,26.7,17c1.3,0.5,2.6,0.9,3,2.4c2.9,5,8.6,4.2,13.1,6
		c0.4,0.2-0.1-1.2-0.3-1.8c2.4,0.4,5.6-1.8,7.2,1.8c-1.3,1.4-2.3,3.2-4.7,2.8c-7.2-0.8-14.2-3-21.2-4.7c-4.2-0.2-7.7-3.6-12.2-2.8
		c-0.1-2.9-2.8-2.9-4.5-3.7C141.9,286.8,136.5,283.2,131.3,279.3z"/>
	<path class="st3" d="M166.9,223.1c-1.6-4.8,3.1-9.7,0-14.5c3.5-0.6,8.9-10.7,6.9-13.6c-1.8-2.7-4.8,0.3-7.3-1
		c0.7-0.4,1.2-0.9,1.8-1.1c6.8-1.7,8.7-3.6,6.6-10.1c-2.2-7-1.3-14.3-6-21.4c-3.3-5-4.8-11.5-10-15.7c-1.2-1,2.4-1.4,0.8-3
		c14.3,14.5,20.8,31.3,18.1,51.8c-0.8,6-3.1,11.5-3.4,17.4C171.4,215.2,170.5,220.1,166.9,223.1z"/>
	<path class="st3" d="M386.3,170.9c-1.5-3.6,2-3.5,3.6-4c8.1-2.9,16-6.1,21.3-13.2c1.1-1.4,3.1-0.9,4.2-2.6
		c3.4-5.2,7.1-10.2,10.6-15.3c0.7-1,1-2.1,0.3-3.2c0.3-0.2,0.5-0.4,0.7-0.7c2.8-2.2,2.6-5.8,4.3-8.6c1-1.6,1.5-1,2.5-0.6
		c1,7.8-2.9,14.2-6.7,20.3C417.6,157.8,403.9,167.2,386.3,170.9z"/>
	<path class="st13" d="M509.6,189.9c0.1,5.2-3.1,8.2-8.9,8.3c-5.5,0-8.6-3.3-8.5-9.3c0.1-4.8,4.3-9.1,8.9-9
		C505.5,179.9,509.6,184.7,509.6,189.9z"/>
	<path class="st13" d="M282.5,88.8c0,1.5,0.3,3.1-0.1,4.6c-0.6,2.3-2,4.1-4.5,4.6c-2.6,0.6-4.6-0.6-6.1-2.5
		c-3.3-4.1,1.7-14.2,4.9-15.4c3-1.1,4.7,1.3,5.6,3.6c0.6,1.5,0.3,3.4,0.4,5.1C282.6,88.8,282.5,88.8,282.5,88.8z"/>
	<path class="st3" d="M75.9,288.7c-0.4,3.8-2.6,6.3-7.1,6.2c-4.4,0-7.6-3.2-7.2-7.3c0.4-4.2,2.9-6.8,7.3-6.8
		C73.5,280.9,75.9,283.6,75.9,288.7z"/>
	<path class="st3" d="M119.2,95.7c0.3-4.3,2.6-6.7,7-7c4.1-0.2,7.5,3.2,7.4,7.2c-0.1,4-3.7,7.3-7.7,7.1
		C122.1,102.8,119.2,99.6,119.2,95.7z"/>
	<path class="st9" d="M230.5,228.3c4.6,3.2,9.9,3.7,15.3,3.8c2,0,3.5,0,3.9,2.3c-0.1,2.8-0.2,5.5-0.3,8.3c0,0.3,0.1,0.6,0.1,0.9
		l0.1,0.1c-0.9,0-1.8,0-2.6,0c-0.7,0.3-1.5,0.7-2.2,1c-2.5-5.6-9.1-6.7-12.5-11.3C231.4,232,227.3,231.3,230.5,228.3z"/>
	<path class="st1" d="M332.4,293.6c-2.3,6.1-7.8,7.1-13.3,7.9c-2.6,0.4-4-0.3-2.3-3.5c1.7-3.1,3.8-5.8,6-8.4
		c3.7-0.2,7.4-0.5,11.2-0.7C334.3,290.7,331.5,291.6,332.4,293.6z"/>
	<path class="st12" d="M332.4,293.6c-0.9-2.1,1.9-2.9,1.6-4.7c8.5-9.8,20.1-12.8,32.4-14.1c2.7,0.7,5.7-0.8,8.3,1
		c-12,1.6-24.2,2.5-34.1,10.6C339.8,291,336,292.1,332.4,293.6z"/>
	<path class="st3" d="M435.9,119.8c-2.9-1.1-3.6-2.9-3.2-6.1c1-8.7-1.2-17-3.7-25.2c-0.6-2.1-2.4-4,1.5-4.4
		C436,95.4,437.3,107.4,435.9,119.8z"/>
	<path class="st13" d="M448.3,121.9c-0.4-4.1,1.4-6.9,4.9-6.8c3.3,0.1,6,3.1,6.4,6.4c0.3,3.5-3,5.8-5.9,5.9
		C450.7,127.5,447.4,125.8,448.3,121.9z"/>
	<path class="st11" d="M568.5,242.4c-3.2,0.1-1.2,3.7-3.2,4.6c0.4-9.9-4.1-15.5-16.7-20.9c-1.4-0.6-5.1,0.1-3.5-3.6
		c9.2,3.6,17.9,7.9,22.7,17.2C568.2,240.5,568.3,241.5,568.5,242.4z"/>
	<path class="st3" d="M44.3,177.2c-0.1,3-1.9,4.7-4.8,4.7c-2.9,0-4.7-1.8-4.8-4.7c-0.1-3,1.7-4.7,4.7-4.7
		C42.4,172.5,44,174.3,44.3,177.2z"/>
	<path class="st7" d="M279.4,56.5c0-1.2-2.8-3.3,0.2-3.4c6.8-0.3,13.2-1.8,19.7-3.5c-2.9,3.1-6.5,4.2-10.5,4.7c-4,0.5-5.1,2-3.8,4.2
		C281.7,61.9,280.8,58.5,279.4,56.5z"/>
	<path class="st3" d="M428.8,81.9c-5-0.5-4.7-5.5-6.9-8.3c-4.6-5.9-4.3-6.1-9.8-1.5c0.4-3.4,5.7-2.4,5.6-6.2
		C422.3,70.6,427.2,75.1,428.8,81.9z"/>
	<path class="st11" d="M185.9,25.2c4.7-5.8,12.2-6,18.5-8.3c1.6-0.6,3.4-0.8,5.1-1.1c0.7,0.4,1.5,0.8,2.2,1.2l0-0.1
		c-1.9,1.6-4.4,1.5-6.6,2.2c-5.9,1.9-12.1,3-17.1,6.9c-0.8,0-1.5-0.1-2.3-0.1C185.9,25.7,186,25.4,185.9,25.2z"/>
	<path class="st11" d="M374.8,275.9c-2.6-1.9-5.6-0.3-8.3-1c9.5-2,18.9-2,28.4,0c-1.9,0.5-4.1-0.6-5.8,1.1
		C384.3,276,379.5,275.9,374.8,275.9z"/>
	<path class="st11" d="M241.3,19.1c-0.4,0.5-0.9,0.9-1.3,1.4c-8.8-5.9-18.7-3.4-28.3-3.6c0,0,0,0.1,0,0.1c0.1-0.7,0.3-1.3,0.4-2
		c8.1,2.6,16.7-1.6,24.8,1.6C238.6,17.1,240.2,17.7,241.3,19.1z"/>
	<path class="st3" d="M491.8,112.8c0.6-0.1,1.4-0.5,1.7-0.3c3.4,2.6,3.9,11.2,1,14.9C493.9,122.5,494,117.5,491.8,112.8z"/>
	<path class="st14" d="M244.9,244.7c0.7-0.3,1.5-0.7,2.2-1c-1.4,6.3-6.6,7.1-11.7,8C236.6,246.8,240.4,245.2,244.9,244.7z"/>
	<path class="st3" d="M294.5,29.9c1.2,0.3,2.8,1.3,1.3,2.1c-3.9,1.8-8.1,3.6-12.7,3.1c-0.4,0-0.6-1.3-0.9-1.9
		C286.4,32.4,290.7,32.2,294.5,29.9z"/>
	<path class="st4" d="M268.6,39c1.1,0.8,0.5,1.4,0.1,2.3c-1.6,3.3,0.6,3.9,4.3,4c-2.7,1.7-4.7,2.9-6.7,4.1
		C265.5,45.6,263.7,41.6,268.6,39z"/>
	<path class="st12" d="M454,189.1c2.1,5.2,0.3,10.9,2.4,16.1c-0.2,1.1-0.4,2.2-2,2.1C454.6,201.2,451.4,195.2,454,189.1z"/>
	<path class="st12" d="M389.1,276c1.7-1.7,3.9-0.6,5.8-1.1c3.9-0.4,7.5,0.4,10.9,2.3C400.2,278,394.7,276.7,389.1,276z"/>
	<path class="st6" d="M91.2,318c0.4-3.4-0.8-7.1,1.3-11.2c2.5,5.1,1.5,9.4,0,13.6C92,319.6,91.6,318.8,91.2,318z"/>
	<path class="st8" d="M185.9,25.2c0.1,0.3,0,0.5-0.1,0.7c-0.8,1.6-1.9,0.4-2.8,0.3c-0.6,0.8-1.1,1.8-2,0.2
		C182.2,24.4,183.8,23.6,185.9,25.2z"/>
	<path class="st8" d="M212.2,14.9c-0.1,0.7-0.3,1.3-0.4,2c-0.7-0.4-1.5-0.8-2.2-1.2C210.1,14.5,211.1,14.6,212.2,14.9z"/>
	<path class="st3" d="M159.4,142.1c0-0.4-0.2-0.5-0.6-0.5C158.9,142,159.1,142.1,159.4,142.1z"/>
	<path class="st5" d="M377.4,320.2c12.6-1.4,24.6-5.1,36.8-8.3c8-2.1,16.5-2.5,23.8-6.9c2.6,0.3,5.2,0.3,7.7-0.7
		c12.5-2.4,25.1-4.9,37.6-7.3c4.4-2.1,9.4-1.6,14.1-2.7c5.7-1.3,11.8-1.9,17.7-2.9c1.8-0.3,4.9-1,5.4,0.6c0.7,2.2,1.2,5.5-0.8,7.2
		c-1.9,1.5-0.4,3.7-1.9,4.9c-2.2,0.1-2.6,1.7-3.6,3.2c-2.3,3.4-2.6,7.5-5.1,10.9c-6.8,9.6-12.6,19.9-20.9,28.5
		c-4.2,3.3-8.8,6-12.4,10c-8,3.1-15.9,6.2-23.9,9.3c-7.2,0.8-14.5,0.4-23.1-0.3c2.2,1.2,3.1,1.7,4.1,2.3
		c-11.1,0.9-21.7-1.9-32.1-5.3c-6.3-2.1-13.2-4.3-18.2-8.5c-3.7-3.1-8.6-4-11.9-8c-2.6-3.2-8.5-3.5-11.4-7c-2.7-3.2-8.6-3.6-8.3-9.3
		c0.5-0.4,0.9-0.9,1.4-1.3c3.5-0.8,7-1.7,10.5-2.5C368.1,324.5,373.5,324.1,377.4,320.2z M425.9,349.5c-0.4,2.8-0.9,5.6-1.2,8.4
		c-0.2,2.1,0.9,3.1,3.1,3c1.8,0,3.6,0,3.7-2.5c0.1-1.5,0.2-3,0.3-4.5c2.2,0,4.4,0.5,6.5,0c3.4-0.8,9.3,0.4,6.6-6.6
		c-0.6-1.4,0.7-2.4,2.1-3.1c1.6-0.8,3.4-0.9,4.2,0.7c2.4,5,5.3,2.1,8.1,0.8c0.8,0.1,1.6,0.1,2.3,0.3c1.8,0.5,3.9,2,5.2-0.3
		c1.1-2,0.4-4.1-1.4-5.7c-0.7-0.6-1.3-1.4-1.9-2.2c5.3-3.7,5.7-8.1,1-11.4c-3.5-2.4-3.6-5.6-0.1-7.1c4.7-2.1,1.7-3.6,0-4.4
		c-5.4-2.7-10-0.5-13.6,3.6c-4.8,5.5-10.5,6.2-17.1,4.4c-4.4-1.2-8.7-2.4-13.1-3.5c-9.9-2.5-17.3,2.2-17.8,10.9
		c-0.1,1.9,0.1,2.3,2,2.3c6.4,0.1,7,1.2,3.6,6.2c-1,1.5-1.5,2.5-0.5,4.1c1.2,1.8,2.4,1.5,3.9,0.5c3.8-2.4,4.8,0.2,5.6,3.1
		C418.9,352.2,421,352.9,425.9,349.5z M433.2,316.8c0.9,1.3,1.8,0.9,2.8,0.7c7.8-1.9,14.9-5.6,22.1-9c8.2-3.9,12.7-1.9,15.3,6.9
		c0.5,1.9,0.2,4.1,2.4,6.3c1.9-6-0.7-10.4-3.9-14.1c-3-3.5-7.3-4.5-11.8-2.5c-5.9,2.6-11.7,5.2-17.4,8.2
		C439.6,314.7,435.7,314,433.2,316.8z M403.9,318.7c-5.8,2.8-7.3,6.3-4.7,10.5C400.2,325.2,401.8,321.9,403.9,318.7z M395,319
		c-2.8,3.6-4.4,6.8-3.2,11.5c2.2-1.9,1.8-3.8,2.1-5.5C394.3,323.3,396.8,322.1,395,319z"/>
	<path class="st6" d="M352.6,328.5c-0.5,0.4-0.9,0.9-1.4,1.3c-1.2,0.2-1.9,0.9-2.1,2.1c-0.9,1.5-2.5,3.1,0.8,3.6
		c2,6.1,5.9,11,9.5,16.3c4.6,6.8,11.6,11.2,16.6,17.6c-0.5,4.5-0.3,9,0.6,13.3c0.5,2.3,0.2,3.5-1.7,4.6c-4.8,1.2-9.5,2.7-14.6,3.2
		c-5.5,0.5-11.2,1.6-16.6,2.9c-7.2,1.7-14.7,1-21.7,3.4c-0.2-1.8-0.3-3.7-0.5-5.5c-1.2-6.4-1.7-13-3.8-19.1
		c-1.6-4.6-0.4-10.1-4.2-14c1-0.8,1-1.7,0.1-2.6c-0.1-0.9-0.2-1.8-0.3-2.7c1.2-2,2.4-4,3.6-6c7.8-4.5,15.4-9.4,22.7-14.8
		C343.5,329.5,347.5,327.2,352.6,328.5z"/>
	<path class="st9" d="M349.1,331.9c0.1-1.2,0.9-1.9,2.1-2.1c-0.4,5.7,5.6,6.1,8.3,9.3c2.9,3.5,8.8,3.9,11.4,7
		c3.3,4.1,8.2,4.9,11.9,8c4.9,4.1,11.8,6.3,18.2,8.5c10.3,3.5,20.9,6.2,32.1,5.3c2.1,0,4.2-0.1,6.3,0.1c2.3,0.2,1,1.3,0.4,2.2
		c-9.8,3.1-19.7,6.3-29.5,9.4c-5.2-0.1-10.5,2.1-15.7-0.1c-6.5-2.8-11.8-7.9-18.6-10.2c-5-6.3-12-10.8-16.6-17.6
		c-3.5-5.2-7.5-10.2-9.5-16.3C350,334.3,350.3,332.9,349.1,331.9z"/>
	<path class="st4" d="M313.5,358.2c3.8,3.9,2.6,9.4,4.2,14c2.1,6.1,2.6,12.7,3.8,19.1c-4.5-0.2-8.4,0.4-9.4,5.7c0,0,0.1-0.1,0.1-0.1
		c-3.4-0.7-8.6,3-9.7-4.7c0,6.8-6.9,3.3-8.8,7c-5.2,0-10.4,0-15.5-0.1c0-2-0.9-3.3-3.1-3.3c0-2.4-0.9-3.7-3.6-3.2
		c-3.8-4-4-8.4-1.7-13.1c7.7-1.8,14.9-1.3,22.1,2.7c3.4,1.9,7.9,1.8,11.9-0.1c1.4-1.3,3.1-2.4,4.3-3.9c2.6-3.1,2.8-6.1-1.1-8.5
		c-5.4-1.8-11.6,1.1-16.6-2.8c-1.8-1.4-4.2-2.4-5.5-4.2c-1.8-2.4,0.3-2.7,2.3-2.9c4-0.4,8.1,1.1,12-1
		C304.1,361.7,308.9,361.7,313.5,358.2z"/>
	<path class="st3" d="M275.1,395.8c2.2,0.1,3.1,1.3,3.1,3.3c-2.3,1.3-4.9,1.1-7.4,1.2c-24.8,1-49.6-0.7-74.3-2.4
		c-8.9-0.6-17.6-3.3-26.4-5.1c-1.2-0.3-2.8-0.8-2.6-2.6c6.5-0.7,13.1,3,19.6-0.3c0.4,0.1,0.7,0.1,1.1,0c5.7,3.8,12.1,5.2,18.9,4.9
		c7.8,1.9,15.7,2.5,23.8,2.4c3-0.1,4.5-1.5,6.4-5.7c-0.4,5.1,0.7,6.8,4.6,6.7c9.8-0.2,19.6,0.1,29.4,0.1
		C272.8,398.2,275.6,399.4,275.1,395.8z"/>
	<path class="st3" d="M483.3,297c-12.5,2.4-25.1,4.9-37.6,7.3c-6.1-2.2-4.6-8.7-7.3-12.8c13.6,0.8,27.1,1.7,40.7,2.6
		C480.9,294.2,483.2,294.2,483.3,297z"/>
	<path class="st9" d="M488.2,346.7c8.2-8.6,14.1-18.9,20.9-28.5c2.4-3.4,2.8-7.5,5.1-10.9c1-1.5,1.5-3.1,3.6-3.2
		c0.3,1.2-0.6,2.5,0.6,3.6c-5.3,13.7-8.6,28.5-21.8,37.8c-1.9,1.3-3.8,2.6-5.6,4C489.1,349.4,488.2,348.5,488.2,346.7z"/>
	<path class="st3" d="M496.6,345.4c13.2-9.3,16.5-24.1,21.8-37.8c6.1,3,8.7,8.8,5.4,15.2C518.1,333.9,508.6,341.2,496.6,345.4z"/>
	<path class="st6" d="M240.6,575.5c-22.3-8.2-41.5-20.5-55.2-40.3C201.2,552.2,219,566.4,240.6,575.5z"/>
	<path class="st10" d="M376,369.4c6.8,2.3,12.1,7.3,18.6,10.2c-2.6,2.2-5.1,4.4-7.7,6.7c-4,0-7.8,2.2-11.9,1.2
		c1.8-1.1,2.2-2.3,1.7-4.6C375.7,378.4,375.5,373.8,376,369.4z"/>
	<path class="st6" d="M537.5,426.5c1,8.1,0.2,16.2-0.8,24.3c-1.2,9.5-3,19-5.9,28.1c-0.6,1.8-0.1,5.4-2.8,4.7
		c-2.4-0.6,0.1-3.2,0.6-4.8c4.2-15.7,6.6-31.6,7.1-47.7c0-1.5,0.2-3,0.2-4.6C536.4,426.5,536.9,426.5,537.5,426.5z"/>
	<path class="st3" d="M264,429.3c-25.4,2.2-50.6,0.3-75.8-2.5C213.4,429,238.7,429,264,429.3z"/>
	<path class="st6" d="M513.1,516.1c4.4-9.6,8.7-19.1,13.1-28.7c0.6,0.3,1.1,0.5,1.7,0.8C523.8,497.9,520.4,507.9,513.1,516.1z"/>
	<path class="st6" d="M165.2,498.9c2.5,2.4,16.7,31.3,16.8,33.2C174.9,522.1,169.3,511.8,165.2,498.9z"/>
	<path class="st3" d="M145.7,359.8c3.1,2.6,2.6,5.4,1.2,8.8c-1.4,3.5-4,6.6-3.9,10.6C137.2,373.8,139,365.5,145.7,359.8z"/>
	<path class="st6" d="M216.7,547.1c-6.8-2.6-11.2-7.7-15-13.5C207.5,537.3,211.4,542.9,216.7,547.1z"/>
	<path class="st3" d="M386.9,386.2c2.6-2.2,5.1-4.4,7.7-6.7c5.2,2.2,10.5,0,15.7,0.1C402.9,383.4,394.7,384.2,386.9,386.2z"/>
	<path class="st6" d="M514.7,489.5c2.9-7.8,5.2-14.2,5-21.2C522.8,473.6,520.4,484.8,514.7,489.5z"/>
	<path class="st3" d="M439.8,370.2c0.5-0.9,1.8-2-0.4-2.2c-2.1-0.2-4.2-0.1-6.3-0.1c-0.9-0.5-1.9-1.1-4.1-2.3
		c8.5,0.8,15.8,1.2,23.1,0.3C448.4,368.8,444.4,370.3,439.8,370.2z"/>
	<path class="st12" d="M438.4,291.4c2.7,4.1,1.1,10.6,7.3,12.8c-2.5,1-5.1,1-7.7,0.7c2.7-6-1.7-10.2-4-14.9
		C435.4,290.5,436.9,291,438.4,291.4z"/>
	<path class="st3" d="M488.2,346.7c-0.1,1.9,0.9,2.7,2.7,2.7c-4.5,3.5-9.6,5.9-15.1,7.4C479.4,352.7,484.1,350,488.2,346.7z"/>
	<path class="st3" d="M312.1,397c1-5.3,4.9-5.9,9.4-5.7c0.2,1.8,0.3,3.7,0.5,5.5C318.7,396.9,315.4,396.9,312.1,397z"/>
	<path class="st3" d="M293.7,399.2c1.9-3.6,8.8-0.2,8.8-7c1.1,7.7,6.3,4.1,9.7,4.7C306.3,399.2,299.9,398.2,293.7,399.2z"/>
	<path class="st3" d="M316,425.5c-5.3,0.2-10.2,5.5-16.9,1C305.3,426.2,310.5,424.4,316,425.5z"/>
	<path class="st3" d="M502.6,368c2.4-3.9,6.7-4.6,10.5-6.2C510.4,365.3,506.8,367.2,502.6,368L502.6,368z"/>
	<path class="st3" d="M502.6,368c-0.8,1.9-2.1,2.5-4.1,1.4C499.5,367.5,501.1,367.9,502.6,368C502.6,368,502.6,368,502.6,368z"/>
	<path class="st12" d="M434,290.1c-1.1,0.2-1.8-0.1-2.2-1.2C432.9,288.8,433.7,288.9,434,290.1z"/>
	<path class="st3" d="M294.4,301.8c-0.8,6.9-6.8,9.8-11.7,12.1c-3.7,1.7-7.4,3.9-11.5,4.9c1.8-2.9,5-4.6,7.8-5.7
		C285.4,310.7,289.8,306.2,294.4,301.8z"/>
	<path class="st3" d="M258.9,278.7c0,0-0.1,0.4-0.1,0.4c-5.9-4.7-6.1-8.7-0.8-13.3c1.4-1.2,3.1-2.3,4.6-3.4c0.8-0.4,1.6-0.7,2.8-1.3
		c-1.8,5.8-12.7,6.7-7.5,15.1C258.3,277,258.6,277.9,258.9,278.7z"/>
	<path class="st11" d="M207,394.8c-6.8,0.4-13.2-1-18.9-4.9c0.5-0.3,1-1,1.4-0.9C195.6,390.3,201.6,391.6,207,394.8z"/>
	<path class="st3" d="M269.9,379.5c-2.3,4.7-2.1,9.1,1.7,13.1c-0.7,2.3-2.1,1.1-2.9,0.3c-3.4-3.5-2.9-10.3,0.9-14.4l0.1,0.1
		C269.7,378.8,269.8,379.2,269.9,379.5z"/>
	<path class="st3" d="M313.5,358.2c-4.6,3.5-9.4,3.6-14.4,0.6c1.9-1.3,2-1.4,3.5-1.1c2.7,0.7,5.2,0.4,7.7-0.8
		c0.9-0.9,3.2,1.7,3.3-1.3C314.5,356.5,314.5,357.4,313.5,358.2z"/>
	<path class="st3" d="M218.8,297.1c2.1-1.6,2.2,0.3,2.4,1.5c0.8,4.9,2.6,8.6,8.6,8.1c0.1,0,0.3,0.9,0.5,1.4
		C223.2,308.6,222.5,307.9,218.8,297.1z"/>
	<path class="st3" d="M307,369.7c3.9,2.4,3.7,5.4,1.1,8.5c-1.2,1.5-2.9,2.6-4.3,3.9c-0.6-0.9-3.9-1.1-0.3-2.8
		C307.3,377.3,308.8,373.9,307,369.7z"/>
	<path class="st3" d="M234,335.1c-1,5.6-1.2,10.9,0.9,17.5c-3.6-3.6-2.9-6.6-3.2-9.4c-0.1-1.3,0.4-3.2-0.3-3.9
		C226.8,334.7,233.3,336.5,234,335.1z"/>
	<path class="st10" d="M239.7,383.4c-0.1,0.7,0.1,2-0.2,2.2c-1.4,0.7-1.5-0.5-1.5-1.4c-0.1-1.3-0.1-2.7-0.1-4c0-3.4,0-6.8,0-10.3
		c2.6,0.5,1.8,3.6,4.1,3.3C236.3,375.4,239.2,379.7,239.7,383.4z"/>
	<path class="st11" d="M204.4,300.5c-0.7-0.1-1.5-0.3-2.2-0.4c1.3-2,1.2-5.2,3.8-5.8c1.1-0.3,3.8-5,4.6,0.5
		c-1.7,0.2-0.2,2.9-2.3,2.8c-0.1-0.5-0.2-1-0.3-1.4c-0.3,0.3-0.6,0.6-0.9,0.9c0,0,0.1-0.1,0.1-0.1c-1.5,0.3-1.6,1.2-1.2,2.4
		c0,0,0.1-0.1,0.1-0.1C205.4,299.7,204.9,300.1,204.4,300.5z"/>
	<path class="st3" d="M156.3,363.5c-1-4.6,3.4-10.5,7.7-10.1c0,0-0.1,1-0.1,1.5C159.6,356.3,158.9,360.7,156.3,363.5z"/>
	<path class="st6" d="M178.4,374.3c-4.8,2-7.2-1.1-10.7-4c3.1-1,4.6,0.3,5.8,1.5C174.8,373.1,177.4,371.8,178.4,374.3z"/>
	<path class="st3" d="M239.7,383.4c-0.5-3.7-3.5-7.9,2.3-10.3c0.9-0.3,1.9,0.1,1.4,0.8C240.7,376.6,241.5,380.4,239.7,383.4z"/>
	<path class="st12" d="M208.3,323.7c-3.6-2.6-3.7-7.4-0.1-10.4c0.1,1.5,0.2,3,0.3,4.5c0,0.9,0,1.9,0,2.8
		C208.4,321.6,208.4,322.7,208.3,323.7z"/>
	<path class="st4" d="M283.3,374.8c-4.2,2.1-6.9,1.2-10.4,0.1C276.5,373.1,279.2,373.5,283.3,374.8z"/>
	<path class="st3" d="M254.9,298.9c-1.5,2.8,4.5,2.8,2.1,5.7c-0.3,0.4-1.3,0.7-1.5,0.6C253.3,303.4,254.6,301.1,254.9,298.9z"/>
	<path class="st3" d="M204.4,300.5c0.5-0.4,1-0.8,1.5-1.2c-0.1,3-0.1,6-0.2,9.1C203.3,306.1,205.2,303.1,204.4,300.5z"/>
	<path class="st4" d="M295,379.4c0.1,1-0.7,1.3-1.4,1.2c-0.7,0-1.7-0.2-2-0.7c-0.4-0.7,0.1-1.3,1-1.4
		C293.6,378.5,294.5,378.4,295,379.4z"/>
	<path class="st10" d="M258.7,243.9c0,0.2,0,0.5-0.1,0.7c-3-0.4-6.1,0.8-8.9-0.9c0,0-0.1-0.1-0.1-0.1
		C252.6,243.7,255.7,243.8,258.7,243.9z"/>
	<path class="st4" d="M313.6,355.6c-0.1,3-2.4,0.4-3.3,1.3c-0.2-2.2,1.4-3.1,3-4C313.4,353.8,313.5,354.7,313.6,355.6z"/>
	<path class="st12" d="M183.4,366.8c1.4-3.7,3.5-2.7,5.8-1C187.1,365.2,185.4,366.8,183.4,366.8z"/>
	<path class="st4" d="M230.7,309.9c-0.7,1.2-1.3,2.4-3,1.8c-0.4-0.1-0.9-1.1-0.8-1.2C228,309.4,229.4,310,230.7,309.9
		C230.6,309.8,230.7,309.9,230.7,309.9z"/>
	<path class="st4" d="M232.2,277.2c-0.5,0.3-1,0.7-1.5,0.7c-1.1,0-1.2-0.8-1-1.5c0.1-0.4,0.7-0.6,1.1-0.9
		C231.2,275.9,231.5,276.3,232.2,277.2z"/>
	<path class="st4" d="M267.3,248c0,0.9-0.1,1.8-1,1.9c-1.1,0.2-1.2-0.7-1.1-1.5c0.1-0.9,0.8-1.2,1.6-1.4
		C268.2,246.8,266.6,248.1,267.3,248z"/>
	<path class="st4" d="M163.6,379.5c0.3-0.2,0.5-0.4,0.8-0.6c0.2,0.4,0.5,0.7,0.7,1.1c-0.3,0.1-0.7,0.4-0.9,0.3
		C163.9,380.3,163.8,379.8,163.6,379.5z"/>
	<path class="st4" d="M158.6,373.7c0.9,0.2,2.1,0.3,1.8,1.5c-0.1,0.4-1.2,0.6-1.8,0.9c0,0-0.1-0.1-0.1-0.1c0-0.7,0-1.5,0-2.2
		L158.6,373.7z"/>
	<path class="st4" d="M269.6,378.5c0.2-0.9,0.2-1.9,1.6-1.8c0.1,0,0.4,0.2,0.4,0.4C271.6,378.4,270.5,378.3,269.6,378.5
		C269.6,378.5,269.6,378.5,269.6,378.5z"/>
	<path class="st4" d="M234.2,287.7c0.1-0.6-0.1-1.5,0.9-1.5c0.2,0,0.7,0.4,0.7,0.7C235.8,287.9,234.9,287.6,234.2,287.7
		C234.2,287.8,234.2,287.7,234.2,287.7z"/>
	<path class="st4" d="M287.3,357.2c-0.1-0.3-0.3-0.7-0.2-0.9c0.2-0.3,0.6-0.4,0.9-0.5c0.1,0.3,0.3,0.7,0.2,0.9
		C288,357,287.6,357.1,287.3,357.2z"/>
	<path class="st4" d="M294,355.8c0.3,0.2,0.7,0.3,0.8,0.5c0.1,0.2-0.1,0.5-0.2,0.8c-0.3-0.1-0.7-0.2-0.9-0.5
		C293.6,356.5,293.9,356.1,294,355.8z"/>
	<path class="st4" d="M168.8,382c-0.2,0.2-0.5,0.5-0.7,0.7c-0.2-0.2-0.4-0.4-0.5-0.7c0-0.1,0.2-0.4,0.3-0.4
		C168.3,381.7,168.6,381.8,168.8,382z"/>
	<path class="st4" d="M231.8,283.1c0.1-0.6-0.2-1.5,0.9-1.5c0.2,0,0.7,0.4,0.7,0.7C233.4,283.2,232.5,283,231.8,283.1
		C231.8,283.1,231.8,283.1,231.8,283.1z"/>
	<path class="st4" d="M228.8,273.2c-0.3,0.1-0.7,0.3-1,0.2c-0.2-0.1-0.3-0.6-0.4-0.9c0.3-0.1,0.7-0.3,0.9-0.2
		C228.5,272.5,228.7,272.9,228.8,273.2z"/>
	<path class="st3" d="M205.8,299.4c-0.3-1.2-0.2-2.1,1.2-2.4C207.5,298.2,207.1,299.1,205.8,299.4z"/>
	<path class="st3" d="M207,297.1c0.3-0.3,0.6-0.6,0.9-0.9c0.1,0.5,0.2,1,0.3,1.4C207.8,297.4,207.4,297.3,207,297.1z"/>
	<path class="st3" d="M352.6,328.5c-5-1.3-9,1-12.9,3.7c-4.9,0-5.7-2.8-5-6.9c0.9-4.6,3.4-8.1,7.1-10.9c4.3,3.5,9.3,6,14.3,8.4
		c2.3,1.1,5.6,0.2,7.1,3.2C359.6,326.8,356.1,327.7,352.6,328.5z"/>
	<path class="st12" d="M363.1,326c-1.4-3-4.7-2.1-7.1-3.2c-5-2.4-10-4.8-14.3-8.4c3.1-3.9,6.6-5.4,10.9-1.5
		c8.2,2.7,16.3,5.7,24.8,7.4C373.5,324.1,368.1,324.5,363.1,326z"/>
	<path class="st6" d="M374.4,302.9c-2.5-0.4-4.8,0.4-7.2,1c0.7-4.4-0.3-8.6-1.7-12.7c1.8,0.1,3.5,0.7,4.7,2.1
		c-0.2,2-0.2,3.9,2.6,3.9c1.9,0,4.4-0.5,5,1.6C378.3,300.9,375.3,301.3,374.4,302.9z"/>
	<path class="st6" d="M364.2,309.8c4.5,1.8,9.1,3,14,2.4c1.4-0.2,2.8,0.5,3.3,1.9c0.2,0.6,0,1.7-0.5,2c-1.2,1-2.7,0.7-3.8-0.1
		c-4.3-3.1-10.9,0.2-14.3-5.1C363.4,310.5,363.8,310.2,364.2,309.8z"/>
	<path class="st15" d="M370.1,293.3c-1.3-1.4-2.9-2-4.7-2.1c-1.2-0.4-2-1.1-2.3-2.3c2.3,0,4.7-0.1,7-0.1c2.6,0,6.4,0.3,6.2,2.9
		C376.2,295.1,372.3,292.8,370.1,293.3z"/>
	<path class="st10" d="M276.3,259.1c-1.1-4.9,0.9-8.8-0.3-12.9C280.5,248.9,280.6,252.5,276.3,259.1z"/>
	<path class="st3" d="M258.7,243.9c-3.1-0.1-6.1-0.2-9.2-0.3c-0.1-0.3-0.1-0.6-0.1-0.9C252.7,241.7,256,240.6,258.7,243.9z"/>
	<path class="st2" d="M258.9,278.7c-0.3-0.8-0.6-1.6-0.9-2.4C260.1,276.4,260.6,277.1,258.9,278.7z"/>
	<path class="st14" d="M183.9,241.9c8.9,7.3,8.6,14.6-0.7,20.7c-1.4,0.9-3,1.7-4.5,2.5c-1.1,0.1-2.3,0.2-3.4,0.3
		c-0.2-1.4,0.7-2,1.8-2.5c11.7-5.5,14.4-8.7,6-20.3C183.4,242.4,183.7,242.1,183.9,241.9z"/>
	<path class="st6" d="M196.3,284c-5.4-3-10.2-6.8-16.5-7.8c-0.8-0.1-1.1-1.1-0.8-1.9c0.3-0.9,1.1-0.9,1.9-0.7
		C187.1,275.5,193,277.8,196.3,284z"/>
	<path class="st14" d="M164.5,296c7,1.7,14,3.9,21.2,4.7c-0.2,1.3-1.1,2-2.4,1.9C176.3,302.6,169.8,300.8,164.5,296z"/>
	<path class="st2" d="M194.1,353.9c0,2.2,0,3.8,0,6C192.4,357.7,192.5,356.1,194.1,353.9z"/>
	<path class="st2" d="M156.9,370.7c0.1,0.8-0.1,1.4-0.8,1.3c-0.4-0.1-0.8-0.7-0.9-1.2c-0.1-0.2,0.3-0.6,0.5-1
		C156.1,370.2,156.5,370.5,156.9,370.7z"/>
	<path class="st2" d="M158.5,373.9c0,0.7,0,1.5,0,2.2c-0.8-0.3-1.7-0.7-1.4-1.7C157.1,374,158,374,158.5,373.9z"/>
	<path class="st2" d="M208.3,323.7c0.1-1,0.1-2.1,0.2-3.1C209.8,321.7,209.5,322.7,208.3,323.7z"/>
	<path class="st15" d="M395,118c4.9,1,7-1.7,7.2-6c0.2-4-2.1-6.8-6.2-7c-5.3-0.2-8.4,2.6-8.1,7C388.1,116.4,390.1,119,395,118z"/>
	<path class="st9" d="M280.5,210.1c-5.7-6.4-2.1-16.6,6.9-18.7c4.9-1.1,9.9-2.4,15-2.5c7.8-0.2,13.5-4.8,15.8-12.3
		c1.3-4.3,4-7.3,8.7-7.3c2.4,0,6.9-0.4,3.1,4.7c-2.7,3.7,0.5,5.4,3.7,5.6c3.5,0.2,4.9,2.2,5.4,5.1c0.5,3,0.3,5.6-4.2,4.4
		c-2.3-0.6-4.9-0.5-5.7,2.5c-0.6,2.5,1.1,3.9,3.1,5c1.6,0.9,4,1.4,2.8,4.2c-1.2,2.6-3.1,2.3-5.4,1.6c-3.5-1.2-7.1,0.2-5.4,3.8
		c3.4,6.8-1.5,7.8-5.5,9.8c-1,0.5-2.2,0.8-3.3,1.2c-1.7-2.2-2-7-6.8-3.6c-1.7,2.5-1.2,7.3-6.6,5.8c-1.2-0.3-2.4-0.3-3-1.5
		c-1.8-3.8-4-4.2-7.3-1.4c-2.5,2.1-4.6,1.2-5.7-1.9c1.7-3.6,3-7-3.3-6.8c-1.1,0.4-1.3,1.3-1.4,2.3
		C281.1,209.9,280.8,210,280.5,210.1z"/>
	<path class="st13" d="M308.8,213.4c4.8-3.4,5.1,1.4,6.8,3.6c0.1,1.3,0.2,2.7,0.1,4c-0.2,1.9,1.1,4.8-2.3,4.8c-2.5,0-4.2-2-4.5-4.4
		C308.6,218.7,308.8,216,308.8,213.4z"/>
	<path class="st3" d="M374.4,139.4c0.2,1,0.4,1.9,0.6,2.9c-0.1,2.7-0.2,5.4-0.3,8.1c-0.8,5-1.4,10.1-2.3,15.1
		c-0.3,2-1.1,3.5-2.1,0.2c2-7,2.3-14.2,2.4-21.4C372.7,142.4,371.9,140.4,374.4,139.4z"/>
	<path class="st13" d="M282.8,207.6c6.3-0.2,5,3.2,3.3,6.8c-0.7,0.7-1.2,1.5-2,2c-1.7,1.1-3.9,2.6-5.6,0.6c-1.3-1.5-0.9-3.5,0.8-5
		c0.5-0.4,0.7-1.3,1.1-1.9c0.3-0.1,0.6-0.2,0.9-0.2C282.5,209.4,282.7,208.5,282.8,207.6z"/>
	<path class="st14" d="M274.5,207.8c-3.3-3.7-3.1-7.6,0-11.5C274.4,200.2,274.2,204,274.5,207.8z"/>
	<path class="st14" d="M269.2,212.6c-4.1-4-3.2-7.7-1.3-11.5C268.4,204.6,268.7,208,269.2,212.6z"/>
	<path class="st14" d="M333.3,161.3c-3.3-0.4-6.6-0.7-9.9,0.2c-0.3-0.2-0.5-0.4-0.8-0.7c3.7-3.1,7.4-3.4,11.2-0.2
		C333.7,160.8,333.5,161,333.3,161.3z"/>
	<path class="st3" d="M363.5,186.9c3.9,0.9,0.5,2.7,0.2,3.6c-0.6,1.9-1.3,4-3.1,5.3C360.1,192.5,363.1,190.1,363.5,186.9z"/>
	<path class="st14" d="M312.9,172.1c0.7-2.9,2.8-4.8,6.3-7.6c-1.3,4.5-3.4,6.4-5.6,8.3C313.4,172.6,313.2,172.4,312.9,172.1z"/>
	<path class="st3" d="M360.7,195.8c-0.4,2.6-1.9,4.6-3.5,6.6c-1,1.2-1.1,0-1.4-0.6C357.9,200.1,357.6,196.7,360.7,195.8z"/>
	<path class="st14" d="M306.5,179.8c-1.3,1.9-2.8,3.5-6,4.2c0.9-3.1,2.9-4.3,5.3-4.9C306.1,179.4,306.3,179.6,306.5,179.8z"/>
	<path class="st3" d="M331.2,145.8c1.8-0.9,2,1.3,3.2,1.6c-1.2,0.6-2.4,1.2-3.6,1.9C330.9,148.1,331,147,331.2,145.8z"/>
	<path class="st14" d="M339.7,166.5c1,0.8,2.1,1.6,1.7,3.1c0,0.2-0.6,0.4-0.9,0.3c-1.3-0.4-1.3-1.6-1.6-2.6
		C339.2,167.1,339.5,166.8,339.7,166.5z"/>
	<path class="st14" d="M333.9,160.6c1.5,0.4,3,0.8,3.4,2.6c-0.3,0.2-0.5,0.4-0.8,0.6c-1.5-0.4-2.4-1.4-3.2-2.5
		C333.5,161,333.7,160.8,333.9,160.6z"/>
	<path class="st14" d="M338.9,167.3c-1.6-0.7-2-2.1-2.5-3.5c0.3-0.2,0.5-0.4,0.8-0.6c1.4,0.7,2.1,1.9,2.5,3.4
		C339.5,166.8,339.2,167.1,338.9,167.3z"/>
	<path class="st14" d="M323.4,161.4c-0.4,0.8-0.7,1.8-1.9,1.7c-0.2,0-0.7-0.4-0.7-0.6c0-1.2,1-1.4,1.8-1.7
		C322.9,161,323.1,161.2,323.4,161.4z"/>
	<path class="st14" d="M308.2,176.8c0.3-1.2,1.1-2,2.3-2.3c0.2,0.2,0.5,0.5,0.7,0.7c-0.8,0.8-1.6,1.5-2.4,2.3
		C308.7,177.3,308.5,177.1,308.2,176.8z"/>
	<path class="st14" d="M305.8,179.2c0.4-0.4,0.8-0.8,1.2-1.2c0.3,0.3,0.6,0.6,0.8,0.8c-0.4,0.3-0.9,0.7-1.3,1
		C306.3,179.6,306.1,179.4,305.8,179.2z"/>
	<path class="st14" d="M313.6,172.8c-0.3,0.4-0.7,0.9-1,1.3c-0.3-0.3-0.6-0.5-0.9-0.8c0.4-0.4,0.8-0.8,1.2-1.2
		C313.2,172.4,313.4,172.6,313.6,172.8z"/>
	<path class="st14" d="M312.6,174.1c-0.4,0.4-0.8,0.7-1.3,1.1c-0.2-0.2-0.5-0.5-0.7-0.7c0.4-0.4,0.7-0.8,1.1-1.2
		C312,173.6,312.3,173.9,312.6,174.1z"/>
	<path class="st14" d="M307,177.9c0.4-0.4,0.8-0.7,1.2-1.1c0.2,0.2,0.4,0.5,0.7,0.7c-0.4,0.4-0.7,0.8-1.1,1.2
		C307.6,178.5,307.3,178.2,307,177.9z"/>
	<path class="st16" d="M261.4,115.7c-0.1,0.2-0.2,0.3-0.3,0.5C261.2,116,261.3,115.8,261.4,115.7
		C261.4,115.7,261.4,115.7,261.4,115.7z"/>
	<path class="st3" d="M358.4,58.6c-37.4,10.8-51.9,53-28.4,84c0.7,0.9,2.6,1.5,1.2,3.2c-7-3.9-10-10.6-12.5-17.6
		c-1-2.9-2.1-5.4-6.7-3.5c5-1.7,4.2-4.8,3.4-7.9c-2-7.7-1-15.2,1.2-22.7c2.6-8.6,7-15.8,13.2-23.1c3.7-4.3,9.1-6.1,12.9-9.7
		c3.9-3.8,8.7-2.5,12.8-4.1C356.6,56.9,358,57.1,358.4,58.6z"/>
	<path class="st3" d="M426.3,132.5c0-0.4,0-0.9,0-1.3c0.2,0.2,0.5,0.4,0.7,0.6C426.8,132,426.6,132.3,426.3,132.5z"/>
	<path class="st12" d="M454.6,162.6c-3.4,3-1,6.7-1.3,10.1c-0.2,2.5,2.4,5.2-0.8,7.4c-0.2-3.1-0.7-6.2-0.7-9.3
		c0.1-4.2,0-7.9-6.4-6.5C448.8,164,451.4,161.7,454.6,162.6z"/>
	<path class="st5" d="M136.8,145.4c9.1,11.7,15.3,25.1,22.9,37.6c1.2,2,2.3,4,3.5,6c1.9,4,1.7,7.9-0.3,11.8c-4.6-2.8-8.9-6.4-15-4.8
		c-7-1.3-11.4,3.1-16.2,6.9c-1,1.2-2.1,2.4-3.1,3.6c-1.8-0.2-3.3-0.9-5.1,0.9c-1.8,1.8-3.5,4-6.3,4.8c-0.4-6.9,1.1-13.7,2.1-20.5
		c0.6-4,0.4-8.1,5-10.2c1-0.4,1.4-1.8,0.9-2.5c-2.2-2.9-0.7-4.8,1.4-6.6c1.4-1.2,1.6-3,0.9-4.2c-1.8-3.3,0.3-4.7,2.5-6.3
		C132.8,156.7,135.9,151.5,136.8,145.4z M158.7,187.9c-3.3-3.3-7.1-3-12.7-1.5C151.1,188.3,155.1,187,158.7,187.9z M149.2,192.7
		c4.1,0.9,6.5,1.2,9.7,0C155.7,190.9,153.3,190.9,149.2,192.7z M162.3,195.1c-0.6-0.6-0.9-1.1-1.3-1.4c-0.2-0.1-0.7,0.1-1,0.2
		c0.2,0.5,0.2,1.1,0.5,1.3C160.8,195.5,161.4,195.3,162.3,195.1z"/>
	<path class="st3" d="M103.4,134.5c-13.6,4.3-25.5,11.1-33.3,23.3c-13.3,20.8-13.5,41.1,4.4,64.6c-4.9-1.2-7.4-4.9-9.5-9
		c-0.7-1.4-1.4-2.7-2.2-4.1c-5.7-10.4-6.3-21.6-5.7-33c0.1-2.3,2.4-4.1,2.9-7c0.5-3.2-0.8-4-4-5.9c7.7,1.9,7.1-4.4,9.8-7.2
		c2.2-2.2-1.2-2.8-2-5.3c3.4,2.5,5.3,1.4,7.1-1.2c3.6-5.2,9.2-8,14.4-11.3c5.6-3.6,11.6-4.9,17.9-5.3c0,0.1-0.1,0.3-0.1,0.4
		C103.2,134,103.3,134.2,103.4,134.5z"/>
	<path class="st11" d="M98.1,237.7c1.3-2.1,3.2-3.9,2.8-6.7c1.2-0.1,2.3-0.2,3.5-0.3c0.2,0.6,0.4,1.2,0.7,1.9c-4,4.3-5.4,10-9,14.5
		c-0.3-0.9-1-1.1-1.8-1C95.4,243.2,96.7,240.5,98.1,237.7z"/>
	<path class="st11" d="M103.4,134.5c-0.1-0.3-0.2-0.6-0.2-0.8c0-0.1,0-0.3,0.1-0.4c7-2.1,14.1-0.4,21.2-0.5c0.1,0,0.4,0.3,0.3,0.4
		c-0.1,0.4-0.3,0.7-0.5,1C117.3,134,110.3,133.5,103.4,134.5z"/>
	<path class="st12" d="M534.3,243.9c-1.1,3-3.5,2-5.6,1.8c-2.4-1.1-4.7-3.2-7,0.2c-0.1,1.6-1.3,2.1-2.7,2.3c-1.7-0.4-3.2,0.2-4.7,1
		c0,0,0.1,0.1,0.1,0.1c-0.8-5.1-2.6-6-7.1-3.4c-0.8,0.5-1.7,0.9-2.5,1.3c-1.5-0.7-2.9-1.4-4.4-2.1c1.8-0.6,3.8-1.1,4.2-3.4
		c0.2-0.9-0.6-1.7-1.3-1.4c-5.2,1.9-6.8-3.6-10.4-4.8c0,0,0,0,0,0c3.5-0.2,7.2,1.2,10.9-0.8c-2.9-4-6.9-3.9-10.8-4
		c2.2-3.3,5.4-3.7,9-2.9c5.4,4.5,7.9,4.4,9.7-0.5c2.6,0.7,6.8-3.5,7.6,2.7c0.2,1.4,2.7,0.9,4.1,0.3c1.6-0.7,2.7-2.2,4.6-2.1
		c1,0.7,2.6,0.8,2.5,2.6c-1.8,0.2-3,1.2-2.7,2.9c0.3,2.1,2.3,1.6,3.7,1.5c1.3-0.1,2.5-0.6,3.8-1c0.8,0.3,1.7,0.1,2.1,1.1
		c-2.6,2.2-5.1,4.7-9.1,5.1C530.1,242.9,532.4,243.1,534.3,243.9z"/>
	<path class="st15" d="M534.3,243.9c-1.9-0.8-4.2-1-5.6-3.6c4-0.3,6.4-2.8,9.1-5.1c0.8-0.1,1.5-0.7,1-1.4c-1-1.2-2.2-0.9-3.1,0.3
		c-1.3,0.3-2.5,0.9-3.8,1c-1.4,0.1-3.4,0.6-3.7-1.5c-0.3-1.7,0.9-2.7,2.7-2.9c4.3-2.4,8.2-4.2,10.8,2.3c1.1,2.8,5.1,1.9,8.4,3.3
		c-2.4,1.4-4.2,2.4-5.9,3.4c-1.4,0.8-3,1.3-0.5,3.1c1.8,1.3-0.4,1.6-1.3,1.7C539.7,244.9,537,244.8,534.3,243.9z"/>
	<path class="st15" d="M528.4,228.2c-2-0.2-3.1,1.4-4.6,2.1c-1.4,0.6-3.9,1.1-4.1-0.3c-0.9-6.2-5.1-2-7.6-2.7l0.1,0.1
		c0-0.4-0.1-0.8-0.1-1.2c-0.3-3.1-4.2-4-4.6-7c3.9-0.5,7.8-0.3,11.6,0.3c-0.4,3.6,1.3,4.8,4.8,4.4
		C527.1,223.3,529.2,224.3,528.4,228.2z"/>
	<path class="st15" d="M493.1,235.4c3.6,1.2,5.2,6.7,10.4,4.8c0.7-0.3,1.4,0.5,1.3,1.4c-0.4,2.3-2.4,2.8-4.2,3.4
		c-3.8,0.8-7.4,2.3-8.7-3.8c-0.5-2.5-5-0.4-7.8-1.9C486.1,235.6,488.6,233.5,493.1,235.4z"/>
	<path class="st6" d="M493.1,254.1c-7.5,0.2-13-3.8-18.8-8.1c3.5-2.6,5.3,0.2,6.8,1.2C484.9,249.8,490,250.2,493.1,254.1
		L493.1,254.1z"/>
	<path class="st15" d="M505,247.1c0.8-0.4,1.7-0.8,2.5-1.3c4.5-2.6,6.3-1.7,7.1,3.4c-1.6-0.1-2.2,1.5-3.4,1.9
		C507.6,252.3,504.3,252.4,505,247.1z"/>
	<path class="st15" d="M512,227.2c-1.8,4.9-4.3,5.1-9.7,0.5c0.3-1.4-2.4-2-1.2-3.3c0.7-0.7,2.6-0.8,3.8-0.5c1.8,0.4,3.3,1.5,5,2.3
		C510.4,226.9,510.5,228.4,512,227.2L512,227.2z"/>
	<path class="st15" d="M514.4,249.2c1.5-0.7,3-1.4,4.7-1c1.5,1.2,2.4,3.2,4.6,3.5c0,0.8,0,1.5,0,2.3c-1.5,0.1-2.2,0.9-2.3,2.3
		C516.3,256.5,514.2,254,514.4,249.2z"/>
	<path class="st15" d="M493.2,230.7c3.9,0.1,7.8,0,10.8,4c-3.7,2.1-7.4,0.6-10.9,0.8C495,233.9,487.9,232.1,493.2,230.7z"/>
	<path class="st3" d="M528.6,263.1c-7.6,3.7-15.1,3.2-22.4-0.8c2.8-1,5.2,1.9,8,0.9c0.5,0,1.1,0,1.6,0
		C520,263.1,524.3,263.1,528.6,263.1z"/>
	<path class="st15" d="M521.8,245.9c2.2-3.4,4.6-1.3,7-0.2c0.8,1.6,3.2,2.7,1.8,5c-1,1.6-2.8,0.8-4.3,0.9
		C525.5,249.1,523.5,247.6,521.8,245.9z"/>
	<path class="st6" d="M493.1,254c5.8-1.1,10.5,2.3,15.7,3.7C503.1,258.6,497.8,257.5,493.1,254C493.1,254.1,493.1,254,493.1,254z"/>
	<path class="st6" d="M528.6,263.1c-4.3,0-8.6,0-12.8,0c3.1-3,11.5-3.1,15.2-0.2C530.2,263,529.4,263.1,528.6,263.1z"/>
	<path class="st6" d="M556.9,247c-0.4-2.7,0.7-4.8,3.1-6.1c0.7-0.4,1.5,0.3,1.5,1.1C561.3,244.8,559.6,246.3,556.9,247L556.9,247z"
		/>
	<path class="st6" d="M521.8,245.9c1.7,1.8,3.7,3.3,4.5,5.7c-0.8,0-1.7,0.1-2.5,0.1c-2.2-0.3-3.1-2.3-4.6-3.5
		C520.5,248,521.7,247.5,521.8,245.9z"/>
	<path class="st6" d="M514.2,263.2c-2.8,1-5.2-1.9-8-0.9c-0.6-0.4-1.3-0.8-1.9-1.2C507.5,262.1,511.7,258.5,514.2,263.2z"/>
	<path class="st6" d="M521.4,256.3c0.1-1.4,0.8-2.2,2.3-2.3C523.8,255.5,523,256.3,521.4,256.3z"/>
	<path class="st6" d="M557,247.1c-0.2,0.8-0.1,1.8-1.4,1.7c-0.1,0-0.4-0.2-0.4-0.4C555,247.2,556.1,247.2,557,247.1
		C556.9,247,557,247.1,557,247.1z"/>
	<path class="st12" d="M512.1,227.3c-1.5,1.1-1.7-0.4-2.2-1.2c0.7,0,1.4,0,2.1,0C512,226.5,512,226.9,512.1,227.3z"/>
	<path class="st9" d="M157.4,250.2c2.1-6.6,5.9-12.5,7.3-19.3c2,4.6,4.5,8.2,9.6,10.6c5.5,2.6,6.7,8.2,4,12.1
		c-1.1,1.5-1.8,3.4-3.8,0c-1.9-3.2-5.1-2.7-6.5,1.1c-1.4,4-3.5,5.2-7.9,4.3c-4-0.8-4.3-1.6-1.7-4.4
		C160.2,252.8,160.1,251.1,157.4,250.2z"/>
	<path class="st3" d="M183.3,296.1c0.2,0.6,0.8,2,0.3,1.8c-4.4-1.9-10.2-1-13.1-6C174.8,293.3,179.1,294.7,183.3,296.1z"/>
	<path class="st14" d="M180.9,240.2c-2.8-1.4-3.7-4.1-5-6.7c0.2-0.3,0.5-0.5,0.8-0.8c2.5,1.7,3.9,4,4.8,6.7
		C181.3,239.8,181.1,240,180.9,240.2z"/>
	<path class="st14" d="M172.1,225.7c2.5,1.7,3.3,4.5,4.6,7.1c-0.3,0.2-0.5,0.5-0.8,0.8c-2.6-1.7-3.6-4.4-4.6-7.2
		C171.5,226.2,171.8,225.9,172.1,225.7z"/>
	<path class="st14" d="M171.2,226.4c-0.9-0.7-1.9-1.4-1.6-2.8c0-0.2,0.5-0.6,0.8-0.6c1.5,0.3,1.2,1.7,1.7,2.7
		C171.8,225.9,171.5,226.2,171.2,226.4z"/>
	<path class="st14" d="M181.4,239.5c1.3,0.3,2.1,1.1,2.5,2.4c-0.3,0.3-0.6,0.5-0.8,0.8c-1.2-0.4-2-1.2-2.2-2.4
		C181.1,240,181.3,239.8,181.4,239.5z"/>
	<path class="st7" d="M374.6,150.4c0.1-2.7,0.2-5.4,0.3-8.1c1.1,2.7,3.1,5.2,1.1,8.3C375.5,150.5,375.1,150.4,374.6,150.4z"/>
	<path class="st12" d="M370.1,293.3c2.2-0.5,6,1.8,6.3-1.6c0.2-2.6-3.6-2.8-6.2-2.9c-3-3.5,1.1-3.5,2.4-4.8c2.2,1.4,4.4,3,6.8,4.1
		c1.7,0.8,4.3,1.4,4.6-1.3c0.8-6.1,5.1-0.9,7.2-2.5c2.3,8.3,6.4,1.2,9.6,1.1c0.8,1.1,2,1.1,3.2,1.3c0.2,2.3-4.6,2.3-2.7,4.7
		c2.1,2.8,5.5,0.3,8.4,0.3c-0.6,1.2-1.1,2.1-1.6,3.1c-0.3,0.8,0.1,2.3-1.3,2.1c-1.8-0.1-4.1-1.6-4.5,1.3c-0.3,2.1,2.3,2.2,3.7,3
		c0.6,0.4,1,1,1.5,1.6c-1.4,0.4-2.8,0.9-4.2,1.3c-1.7-0.8-3.3-2.2-5.1-2.4c-2.1-0.2-5.2-0.3-3.2,3.5c-2.7-0.1-5.4-0.1-8.1-0.2
		c-1.7-6.1-4.7-2.4-7.3-0.9c-1.8,0.1-3.6-0.1-5.2-1.2c0.9-1.6,4-2,3.4-4c-0.6-2.1-3.1-1.6-5-1.6C369.9,297.2,370,295.3,370.1,293.3z
		"/>
	<path class="st15" d="M400.9,285.3c-3.3,0.2-7.3,7.2-9.6-1.1c-2.1,1.6-6.5-3.5-7.2,2.5c-0.3,2.8-2.9,2.2-4.6,1.3
		c-2.4-1.1-4.5-2.7-6.8-4.1c1.3-2.3,2.1-5.3,5.9-2.8c1.5,1,2.6,0.7,3.6-1.2c2.1-3.9,7.1-3.9,9.2-0.1c1,1.8,1.8,2.5,3.5,1.4
		C400,278.2,400.3,281.9,400.9,285.3z"/>
	<path class="st15" d="M408.1,294.7c0.5-1,1-1.9,1.6-3.1c-2.9-0.1-6.2,2.5-8.4-0.3c-1.8-2.4,2.9-2.4,2.7-4.7c3.4,0.5,7.9-2,9.4,3.8
		c0.4,1.7,3.6,0.4,5.4,1.2c1.3,0.6,2.7,1.4,2.7,2.8c-0.1,1.9-2,1.5-3.2,1.4c-2.8-0.2-5.4,0.6-8,1.2
		C410.3,295.7,409.6,294.8,408.1,294.7z"/>
	<path class="st6" d="M386.9,305c2.7,0.1,5.4,0.1,8.1,0.2c1.7,0,3.4,0,3.5,2.3c-1,0.2-2.1,0.5-2.1,1.6c-0.2,2.9,0,6.1-4.6,5.3
		c-4-0.7-5.3-3.4-5.1-7.1C386.7,306.5,386.8,305.8,386.9,305z"/>
	<path class="st6" d="M408.1,294.7c1.5,0.1,2.2,1,2.2,2.4c0.7,0.3,1.3,0.7,2,1c1.5,0.7,4.6-1.3,4.3,1.9c-0.2,2.2-2.7,3-5.1,2.8
		c-1.4-0.1-2.7-0.1-4.1-0.1c-0.5-0.5-0.9-1.2-1.5-1.6c-1.4-0.8-4-0.9-3.7-3c0.4-2.9,2.7-1.5,4.5-1.3
		C408.2,296.9,407.9,295.5,408.1,294.7z"/>
	<path class="st15" d="M386.9,305c-0.1,0.8-0.1,1.6-0.2,2.4c-1,0.6-1.9,1.3-2.9,1.8c-2,1-4.4,1.4-5.9-0.3c-1.8-2,0.7-3.3,1.6-4.8
		C382.2,302.6,385.2,298.9,386.9,305z"/>
	<path class="st15" d="M398.5,307.5c-0.1-2.3-1.8-2.4-3.5-2.3c-2-3.8,1.2-3.8,3.2-3.5c1.8,0.2,3.4,1.6,5.1,2.4
		c0.7,1.3,3.1,1.8,1.1,4.1C401.9,311.2,400.5,307.3,398.5,307.5z"/>
	<path class="st6" d="M427.9,304.3c1.7-1.6,3.5-3.4,5.2-5C433.7,303.4,432.3,304.8,427.9,304.3z"/>
	<path class="st6" d="M514.1,119.2c0.2-3-3.4-5.3-1.8-8.7c5.8,6.9,6.2,18.8,0.7,27.2c-1.8-2.8,1.3-4.7,1-7
		C514.6,126.9,514.5,123,514.1,119.2z"/>
	<path class="st4" d="M514.1,119.2c0.5,3.8,0.5,7.7,0,11.5C511.4,127.7,511.4,122.2,514.1,119.2z"/>
	<path class="st8" d="M211.7,16.8c9.6,0.3,19.5-2.2,28.3,3.6c4.1,4.8,3.4,10.1,1.2,15.2c-3.1,7.1-8.6,12.1-14.5,16.9
		c-8.7,7.1-18.5,12.8-28.6,17.1c-12.2,5.2-25.4,8.7-39.1,5.1c-9.6-2.5-12.8-11.4-7.7-19.8c7.1-11.7,17.5-19.5,29.6-25.7
		c0,3.4,2.3,4.5,5.1,5.2c-0.2,0.3-0.5,0.6-0.7,1c-1,0-2-0.1-2.9,0c-2,0.3-4.7-1.1-5.7,1.6c-1.3,3.8,3.4,2.2,4.3,4.1
		c-5-1-7.2,2.2-9.3,5.7c-0.7,2.8-1.5,5.6-2.2,8.5c-0.6,1.2-1.9,2.4-0.8,3.7c1.1,1.4,2.5,0.3,3.8-0.1c2-0.6,5.6-1.8,5.7-1.5
		c3.8,7.9,5.8,0.5,8.4-0.9c1.7-0.1,3.4-0.3,5.1-0.4c1,2,2.5,3.2,4.7,2.3c2.6-1.2,4.2-3.3,3.7-6.4c0.8-0.4,1.7-0.8,2.5-1.1
		c-0.2,2.7-0.8,5.9,3.1,6.2c3.4,0.3,4.1-2.2,3.9-5c-0.1-1.7,0.8-2.3,2.4-2.7c4.7-1.1,4.1-3.9,2.2-7.1c-0.4-1.1,1.4-2.2,0.2-3.3
		c1.1-1.8,3.3-0.7,4.7-1.7c1.1-0.8,2.7-1.2,2-2.9c-0.5-1.3-1.9-1.1-3-0.9c-0.9,0.1-1.9,0.4-2.8,0.6c-0.7-0.3-1.4-0.7-2.1-1
		c2.8-2.4,7.4-1.4,9.7-4.7c0.7-1,1.2-2.2,0.5-3.2c-1-1.4-2-0.3-3,0.3c-2,1.1-4,2.1-6.1,3.2l-0.1-0.1c-0.3-1.6,0.8-3.7-1.6-4.4
		c-1.9-0.6-2.9,0.9-4,1.9c-1.3,1.2-2.4,2.4-3.7,3.7c-1.2-2.3-3.1-0.9-4.7-0.9c-0.6-1.6,0.7-4.6-2.2-4.5c-2.2,0.1-4.4,1.5-5,4.2
		c-0.2,1.1-0.1,2.3-0.1,3.5c-0.8,0.1-1.5,0.1-2.3,0.2c0.7-2.7-2.3-3.8-2.5-6.1c5-3.9,11.2-5.1,17.1-6.9
		C207.4,18.3,209.9,18.4,211.7,16.8z M182.5,69.7c0-0.4,0-0.7,0-1.1c-6.5,0-13.1,0-19.6,0c0,0.4,0,0.7,0,1.1
		C169.4,69.7,176,69.7,182.5,69.7z M183.2,66.2c3.7,2.4,6.3,1.9,8.9,0C189.6,66.2,187,66.2,183.2,66.2z M197.5,63
		c-1,0.7-1.4,1-1.8,1.3c0.3,0.4,0.5,1,0.9,1.1c0.7,0.2,1.6,0.1,1.5-0.9C198.1,63.9,197.7,63.5,197.5,63z"/>
	<path class="st15" d="M188,26c0.2,2.3,3.3,3.4,2.5,6.1c-0.8,2.2-2.5,2.7-4.6,2.4c-2.8-0.7-5.1-1.9-5.1-5.2c0.8-0.9,2.8-1.1,2.2-3.1
		c1,0.1,2,1.4,2.8-0.3C186.5,25.9,187.3,25.9,188,26z"/>
	<path class="st8" d="M95.9,247c3.6-4.5,5-10.3,9-14.5c0.8,3.9,4,2.6,6.4,3c0.8,0.7,1.6,1.4,2.4,2c-7.4,0.5-9,2-7.3,7.1
		c-0.6,2.5-1.2,4.9-1.7,7.4c-0.8,3.3,2.3,5.1,3.1,7.8c0.1,1.8-2.6,4-0.3,5.1c2.4,1.2,3.4-1.7,4.6-3.2c0.7-0.9,0.1-3.4,2.3-2.2
		c5.8,3.2,6.4-1.1,7.7-4.7c1.5-1.1,2.9-2.2,4.4-3.3c3.5,5.4,5.4,0.8,6.7-1.4c1-1.7,1.4-3.3,3.9-3.2c3.2,0.2,5.6-1.7,5.6-4.5
		c0-4-3.8-1.9-5.9-2.5c-0.4-0.1-0.8-0.1-1.2-0.1c0-0.6,0-1.3,0-1.9c2-0.3,4-0.3,5.7-2.1c2.8-3.2,2.4-4.9-2-5.3
		c0.2-1.4,0.1-2.9,1.2-4.1c-0.3-2.8,7.6-7.3-2-8.3c1.8-2.4,3-4.9,1.2-8.1c-4.4,2.8-7,6.1-6.1,11.3c-0.8-0.7-1.5-1.4-2.3-2.2
		c-0.5-2,0.5-4.2-0.8-6.2c-4.2,3.2-4,7.8-4.4,12.3c-1.2-1.2-0.6-5.4-4.3-2.6c-6.5-2.5-6.9-2.1-7.2,5.7c-2.8,0-5.5,0.1-8.3,0.1
		c0.9-1.6,1.9-3.2,2.8-4.8c1.9,0.1,2.8-1.4,3.7-2.5c4.5-5.7,9.9-10.4,15.7-14.8c1-1.2,2.1-2.4,3.1-3.6c5.7-0.7,10.4-4.5,16.3-4.9
		c9.1,0.7,12.1,4.6,13.2,13.6c1,7.9-2.9,14.2-5.2,21.1c-3.1,9.6-8.6,18.2-15.5,25.8c-1.8,1.8-4.1,3.3-4.6,6c0,0,0-0.1,0-0.1
		c-1.1-0.2-1.5,0.2-1.2,1.2c0,0,0,0,0,0c-1.1-0.2-1.5,0.2-1.2,1.2c0,0,0,0,0,0c-1.1-0.2-1.5,0.2-1.2,1.2c0,0,0.1,0,0.1,0
		c-2.8,0.6-4.6,2.4-5.9,4.8c0,0,0.2,0,0.2,0c-0.4,0.2-0.7,0.4-1.1,0.6c-5.9,5.2-12.7,8.8-20.5,10.1c-7.6,1.3-12.7-2-14.1-9.4
		C89.1,264.4,92.6,255.7,95.9,247z M114.9,272.7c1.3-0.3,3.1,0.6,3.9-1.1c0.1-0.2-0.5-0.9-0.9-1c-1.7-0.5-2.9,0.2-3.2,2
		c-1.3,0.3-3.1-0.7-3.9,1.1c-0.1,0.2,0.5,0.9,0.9,1C113.5,275.2,114.7,274.6,114.9,272.7z"/>
	<path class="st11" d="M148,198c-5.8,0.3-10.5,4.2-16.3,4.9c4.8-3.7,9.2-8.2,16.2-6.9C147.9,196.7,148,197.3,148,198z"/>
	<path class="st3" d="M126.5,272.6c1.3-2.4,3.1-4.2,5.9-4.8C131.2,270.3,129.4,272.2,126.5,272.6z"/>
	<path class="st3" d="M136,264.4c0.5-2.8,2.8-4.2,4.6-6C140.5,261.5,138.4,263.1,136,264.4z"/>
	<path class="st3" d="M125.6,273.2c0.4-0.2,0.7-0.4,1.1-0.6C126.3,272.8,126,273,125.6,273.2z"/>
	<path class="st3" d="M134.8,265.6c-0.2-1,0.2-1.4,1.2-1.2C136,265.2,135.6,265.6,134.8,265.6z"/>
	<path class="st3" d="M133.6,266.7c-0.2-1,0.2-1.4,1.2-1.2C134.8,266.3,134.4,266.7,133.6,266.7z"/>
	<path class="st3" d="M132.4,267.9c-0.2-1,0.2-1.4,1.2-1.2C133.6,267.5,133.2,267.9,132.4,267.9z"/>
	<path class="st3" d="M391.6,239.8c0.6-5,5.9-9.9,10-9.4c2.8,0.3,2.9,2.1,2.7,4.1c-0.5,4.8-6.2,10.6-9.8,10
		C391.7,244.1,391.3,242.2,391.6,239.8z"/>
	<path class="st3" d="M106.6,325.2c0,1.5,0.2,3.1,0,4.5c-0.3,1.8-1.2,3.3-3.3,3.5c-2.1,0.3-3.3-0.9-4-2.7c-0.5-1.2-1-2.5-1.1-3.8
		c-0.5-4.4-0.2-8.7,4.9-10.5C105,315.6,106.2,318.9,106.6,325.2z"/>
	<path class="st9" d="M459.2,345.7c-2.9,1.2-5.8,4.1-8.2-0.8c-0.8-1.6-2.6-1.5-4.2-0.7c-1.3,0.7-2.6,1.7-2.1,3.1
		c2.7,7-3.2,5.8-6.6,6.6c-2,0.5-4.3,0-6.5,0c0-0.7,0-1.4,0-2c3.3-1.4,0.6-2.5-0.2-3.6c-2.5-2.3-4.1-0.6-5.6,1.3
		c-4.9,3.4-7,2.7-8.5-2.7c-0.8-2.8-1.8-5.5-5.6-3.1c-1.5,1-2.8,1.3-3.9-0.5c-1-1.6-0.5-2.7,0.5-4.1c3.4-5,2.8-6.1-3.6-6.2
		c-1.9,0-2.1-0.5-2-2.3c0.5-8.8,7.9-13.4,17.8-10.9c4.4,1.1,8.7,2.3,13.1,3.5c6.6,1.8,12.3,1,17.1-4.4c3.5-4.1,8.1-6.3,13.6-3.6
		c1.7,0.9,4.7,2.3,0,4.4c-3.5,1.5-3.4,4.7,0.1,7.1c4.8,3.3,4.3,7.7-1,11.4c-2.2-1-3.5-5.2-6.7-2.7c-3.1,2.4-0.2,4.8,0.9,7.1
		c0.2,0.3,0.2,0.7,0.3,1.1c0.4,0.4,0.8,0.9,1.2,1.3C459,345,459.1,345.4,459.2,345.7z"/>
	<path class="st14" d="M433.2,316.8c2.5-2.8,6.4-2.1,9.4-3.6c5.7-2.9,11.6-5.5,17.4-8.2c4.5-2,8.8-0.9,11.8,2.5
		c3.1,3.7,5.7,8,3.9,14.1c-2.1-2.2-1.8-4.4-2.4-6.3c-2.5-8.8-7.1-10.8-15.3-6.9c-7.2,3.4-14.3,7.1-22.1,9
		C435,317.7,434.1,318.1,433.2,316.8z"/>
	<path class="st13" d="M457.8,343.4c-0.1-0.4-0.1-0.8-0.3-1.1c-1.1-2.3-4-4.7-0.9-7.1c3.3-2.5,4.5,1.7,6.7,2.7
		c0.6,0.7,1.2,1.5,1.9,2.2c1.8,1.6,2.5,3.7,1.4,5.7c-1.3,2.3-3.4,0.7-5.2,0.3c-0.7-0.2-1.5-0.2-2.3-0.3c-0.1-0.4-0.1-0.7-0.2-1.1
		C458.5,344.2,458.2,343.8,457.8,343.4z"/>
	<path class="st13" d="M431.8,351.8c0,0.7,0,1.4,0,2c-0.1,1.5-0.2,3-0.3,4.5c-0.1,2.5-1.9,2.4-3.7,2.5c-2.2,0.1-3.3-0.9-3.1-3
		c0.3-2.8,0.8-5.6,1.2-8.4c1.5-1.9,3.1-3.6,5.6-1.3C431.6,349.4,431.7,350.6,431.8,351.8z"/>
	<path class="st14" d="M403.9,318.7c-2.1,3.2-3.7,6.6-4.7,10.5C396.6,325,398.2,321.5,403.9,318.7z"/>
	<path class="st14" d="M395,319c1.8,3.1-0.7,4.2-1.1,6c-0.3,1.6,0,3.5-2.1,5.5C390.6,325.8,392.2,322.6,395,319z"/>
	<path class="st5" d="M349.1,331.9c1.2,1,0.8,2.3,0.8,3.6C346.6,335,348.2,333.4,349.1,331.9z"/>
	<path class="st3" d="M395,118c-4.9,1-6.9-1.6-7.2-5.9c-0.3-4.5,2.8-7.3,8.1-7c4.2,0.2,6.4,3,6.2,7C402,116.3,400,119,395,118z"/>
	<path class="st5" d="M282.8,207.6c-0.1,0.9-0.3,1.9-1.4,2.3C281.5,208.8,281.7,207.9,282.8,207.6z"/>
	<path class="st9" d="M109.3,223.8c-0.9,1.6-1.9,3.2-2.8,4.8c-0.7,0.7-1.5,1.4-2.2,2.1c-1.2,0.1-2.3,0.2-3.5,0.3
		c-4.4-23.5-0.3-45.4,13.8-65c5.4-7.5,11-14.8,19.9-18.8c-0.5,5.2-5.5,9.1-4.5,14.8c-2.2,1.6-4.3,3-2.5,6.3c0.7,1.2,0.5,3-0.9,4.2
		c-2.1,1.8-3.6,3.7-1.4,6.6c0.5,0.7,0.1,2.1-0.9,2.5c-4.6,2-4.4,6.2-5,10.2c-1.1,6.8-2.5,13.5-2.1,20.5c-1.4,3.1-4.5,4.8-6.3,7.4
		C110.3,220.7,106.6,221.3,109.3,223.8z"/>
	<path class="st3" d="M130.1,162c-1-5.7,4-9.6,4.5-14.8c0.3-1.1,1.2-1.6,2.3-1.8C135.9,151.5,132.8,156.7,130.1,162z"/>
	<path class="st12" d="M109.3,223.8c-2.7-2.5,1-3.1,1.7-4.1c1.8-2.6,4.9-4.3,6.3-7.4c2.7-0.8,4.5-3,6.3-4.8c1.8-1.9,3.4-1.2,5.1-0.9
		c-5.7,4.4-11.2,9.1-15.7,14.8C112,222.4,111.2,223.9,109.3,223.8z"/>
	<path class="st14" d="M158.7,187.9c-3.7-0.9-7.6,0.4-12.7-1.5C151.6,184.9,155.5,184.6,158.7,187.9z"/>
	<path class="st6" d="M149.2,192.7c4.1-1.8,6.5-1.8,9.7,0C155.7,194,153.3,193.6,149.2,192.7z"/>
	<path class="st6" d="M162.3,195.1c-0.8,0.1-1.4,0.4-1.8,0.2c-0.3-0.2-0.4-0.9-0.5-1.3c0.3-0.1,0.8-0.4,1-0.2
		C161.4,194,161.7,194.5,162.3,195.1z"/>
	<path class="st6" d="M104.3,230.7c0.7-0.7,1.5-1.4,2.2-2.1c2.8,0,5.5-0.1,8.3-0.1c0,0.8,0,1.6,0.1,2.4c0.1,2.5-0.9,4.1-3.4,4.7
		c-2.4-0.4-5.7,0.8-6.4-3C104.7,231.9,104.5,231.3,104.3,230.7z"/>
	<path class="st8" d="M535.7,234.1c0.9-1.2,2.1-1.5,3.1-0.3c0.5,0.6-0.2,1.2-1,1.4C537.4,234.2,536.4,234.4,535.7,234.1z"/>
	<path class="st12" d="M185.9,34.5c2.1,0.3,3.9-0.2,4.6-2.4c0.8-0.1,1.5-0.1,2.3-0.2c3.6,3.4,4.9,2.9,7.3-3.1c1.6,0,3.5-1.4,4.7,0.9
		c-0.5,1-1.9,2-0.8,3c1.3,1.2,3.3,0.9,4.2-0.4c2.3-3.1,3.3-0.2,4.7,0.7c0.7,0.3,1.4,0.7,2.1,1c-5.4,2.3-5.4,2.3-5.7,5.1
		c1.2,1.4,2.5,0.9,3.7,0.1c0.4-0.1,0.8-0.2,1.1-0.3c1.3,1.2-0.5,2.2-0.2,3.3c-2.2,0.6-4.1,1.7-6.5,1.5c-1.6-0.1-3.5,0.9-2.5,2.7
		c1.9,3.4-1.9,2.9-2.6,4.4c-0.8,0.4-1.7,0.8-2.5,1.1c-4.5-2.9-5.5-2.4-8.4,4.2c-1.7,0.1-3.4,0.3-5.1,0.4c0.2-1.8,3-3.4,1.2-5.1
		c-1.4-1.3-3.2,0.5-4.7,1.1c-2,0.9-3.4-2-5.5-0.8c-0.1-0.1-0.3-0.3-0.4-0.4c0-0.1,0.1-0.4,0.2-0.5c1-0.5,2.1-0.9,3.1-1.4
		c1.6-0.7,3.5-1.5,2.9-3.6c-0.6-1.9-2.6-0.8-4-1c-2.8-0.3-4.8,2.5-7.6,2c2.1-3.5,4.4-6.7,9.3-5.7c2.6,0.4,5.2-0.1,6.5-2.2
		c0.9-1.4-1.8-2.1-2.2-3.5C185.4,35.1,185.7,34.8,185.9,34.5z"/>
	<path class="st15" d="M177.5,51.7c2-1.1,3.4,1.7,5.5,0.8c1.5-0.7,3.3-2.5,4.7-1.1c1.8,1.8-0.9,3.3-1.2,5.1
		c-2.6,1.4-4.5,8.8-8.4,0.9c-0.2-0.3-3.7,0.9-5.7,1.5c-1.3,0.4-2.7,1.4-3.8,0.1c-1.1-1.3,0.2-2.5,0.8-3.7
		C171.6,53.2,175,53.4,177.5,51.7z"/>
	<path class="st15" d="M202.4,50.8c0.7-1.5,4.5-1,2.6-4.4c-1-1.7,0.9-2.8,2.5-2.7c2.4,0.1,4.4-1,6.5-1.5c1.9,3.2,2.4,6-2.2,7.1
		c-1.5,0.4-2.5,1-2.4,2.7c0.2,2.9-0.5,5.3-3.9,5C201.6,56.7,202.2,53.5,202.4,50.8z"/>
	<path class="st15" d="M212.9,32.9c-1.5-0.9-2.5-3.7-4.7-0.7c-0.9,1.3-2.9,1.6-4.2,0.4c-1.1-1,0.3-2.1,0.8-3
		c1.2-1.2,2.4-2.5,3.7-3.7c1.1-1,2.1-2.5,4-1.9c2.5,0.7,1.3,2.8,1.6,4.4c-0.3,0.3-0.6,0.7-0.9,1c0.2,0.2,0.4,0.3,0.6,0.5
		c0.1-0.5,0.3-0.9,0.4-1.4c2-1.1,4.1-2.1,6.1-3.2c1-0.5,2-1.7,3-0.3c0.7,1,0.3,2.1-0.5,3.2C220.3,31.5,215.8,30.5,212.9,32.9z"/>
	<path class="st6" d="M177.5,51.7c-2.4,1.8-5.8,1.5-8.1,3.7c0.7-2.8,1.5-5.6,2.2-8.4c2.9,0.4,4.8-2.4,7.6-2c1.4,0.2,3.5-0.9,4,1
		c0.6,2.1-1.3,2.8-2.9,3.6c-1,0.5-2.1,0.9-3.1,1.4c-0.1,0.1-0.2,0.3-0.2,0.5C177.1,51.4,177.3,51.5,177.5,51.7z"/>
	<path class="st15" d="M200.1,28.7c-2.4,6-3.7,6.6-7.3,3.1c0-1.2-0.1-2.3,0.1-3.5c0.5-2.6,2.7-4.1,5-4.2
		C200.9,24.1,199.6,27.1,200.1,28.7z"/>
	<path class="st15" d="M185.2,35.5c0.5,1.4,3.1,2,2.2,3.5c-1.3,2.2-3.9,2.7-6.5,2.2c-0.9-1.9-5.6-0.3-4.3-4.1
		c0.9-2.7,3.7-1.3,5.7-1.6C183.2,35.3,184.2,35.5,185.2,35.5z"/>
	<path class="st15" d="M191.5,56.1c2.9-6.6,3.9-7.1,8.4-4.2c0.5,3.1-1.1,5.2-3.7,6.4C194,59.4,192.4,58.1,191.5,56.1z"/>
	<path class="st15" d="M182.5,69.7c-6.5,0-13.1,0-19.6,0c0-0.4,0-0.7,0-1.1c6.5,0,13.1,0,19.6,0C182.5,69,182.5,69.4,182.5,69.7z"/>
	<path class="st15" d="M214.2,38.9c-0.4,0.1-0.8,0.2-1.1,0.3c-1.2,0-2.5-0.1-3.7-0.1c0.3-2.9,0.3-2.9,5.7-5.1
		c0.9-0.2,1.9-0.5,2.8-0.6c1.1-0.2,2.5-0.4,3,0.9c0.7,1.7-0.9,2.2-2,2.9C217.5,38.2,215.3,37.1,214.2,38.9z"/>
	<path class="st15" d="M183.2,66.2c3.8,0,6.4,0,8.9,0C189.4,68.1,186.8,68.6,183.2,66.2z"/>
	<path class="st15" d="M197.5,63c0.2,0.5,0.6,1,0.6,1.4c0,1-0.8,1.1-1.5,0.9c-0.4-0.1-0.6-0.7-0.9-1.1C196.1,64,196.5,63.7,197.5,63
		z"/>
	<path class="st12" d="M111.4,235.6c2.5-0.6,3.6-2.3,3.4-4.7c7,1.2,7.3-3.2,7.2-8.1c3.7-2.8,3.1,1.4,4.3,2.6
		c4.3,0.1,4.7-3.1,5.2-6.1c0.8,0.7,1.5,1.4,2.3,2.2c1.1,0.3,3.3,0.1,1.4,2.1c-1.2,1.3-2.6,3.1-1.4,4.4c1.7,1.8,3.3-0.1,4.8-1.3
		c0.5-0.4,1.4-0.1,2.1-0.1c-1.1,1.2-1.1,2.7-1.2,4.1c-2,0.3-3.6,1.6-4.8,2.9c-1.5,1.6-2.5,3.8,1.1,4.5c0,0.6,0,1.3,0,1.9
		c-2.7,0.8-2.3,5.5-4,5.1c-7.8-1.9-4.4,3.8-5.1,6.6c-1.5,1.1-2.9,2.2-4.4,3.3c-0.4-1.8,1.1-4.5-0.9-5.2c-2.5-0.9-3.1,2-4.2,3.6
		c-0.6,0.8-1.2,2.2-2.5,0.8c-1.6-1.1-2-2.2-0.5-3.8c0.9-1,1.5-2.6,0.4-3.6c-1.4-1.3-2.8,0.3-4,0.9c-2.1,1.2-3.1,3.9-5.7,4.6
		c0.6-2.5,1.2-4.9,1.8-7.4c6.6-1.7,7.9-3,7.3-7.1C113,236.9,112.2,236.3,111.4,235.6z"/>
	<path class="st15" d="M126.6,251.6c0.8-2.8-2.6-8.5,5.1-6.6c1.7,0.4,1.3-4.3,4-5.1c0.4,0,0.8,0,1.2,0.1c2.1,0.7,5.9-1.4,5.9,2.5
		c0,2.8-2.4,4.7-5.6,4.5c-2.5-0.2-2.8,1.5-3.9,3.2C131.9,252.4,130,257,126.6,251.6z"/>
	<path class="st15" d="M140.7,226.5c-0.7,0-1.6-0.2-2.1,0.1c-1.5,1.2-3.1,3-4.8,1.3c-1.2-1.2,0.2-3,1.4-4.4c1.9-2.1-0.3-1.8-1.4-2.1
		c-0.9-5.2,1.8-8.5,6.1-11.3c1.8,3.2,0.6,5.7-1.2,8.1C148.3,219.2,140.3,223.7,140.7,226.5z"/>
	<path class="st15" d="M114.5,254.1c1.4,1.4,2,0,2.5-0.8c1.2-1.6,1.7-4.5,4.2-3.6c2,0.7,0.4,3.4,0.9,5.2c-1.3,3.6-1.9,7.9-7.7,4.7
		c-2.2-1.2-1.6,1.3-2.3,2.2c-1.2,1.6-2.2,4.4-4.6,3.2c-2.3-1.2,0.3-3.4,0.3-5.1C110.5,258.4,111.3,254.9,114.5,254.1z"/>
	<path class="st6" d="M114.5,254.1c-3.3,0.8-4.1,4.3-6.7,5.8c-0.8-2.7-3.9-4.5-3.1-7.8c2.6-0.7,3.6-3.4,5.7-4.6
		c1.2-0.7,2.6-2.2,4-0.9c1.1,1,0.5,2.7-0.4,3.6C112.6,251.9,113,253,114.5,254.1z"/>
	<path class="st15" d="M122,222.7c0.2,4.9-0.2,9.3-7.2,8.1c0-0.8,0-1.6-0.1-2.4C115,220.6,115.5,220.2,122,222.7z"/>
	<path class="st15" d="M135.8,238c-3.6-0.7-2.6-2.9-1.1-4.5c1.2-1.3,2.8-2.7,4.8-2.9c4.4,0.4,4.8,2.1,2,5.3
		C139.8,237.7,137.8,237.7,135.8,238z"/>
	<path class="st15" d="M113.8,237.6c0.6,4.1-0.8,5.4-7.3,7.1C104.8,239.6,106.5,238.1,113.8,237.6z"/>
	<path class="st15" d="M131.5,219.2c-0.5,3-0.9,6.2-5.2,6.1c0.4-4.4,0.2-9,4.4-12.3C132.1,215.1,131,217.3,131.5,219.2z"/>
	<path class="st6" d="M114.7,272.6c0.3-1.9,1.4-2.5,3.2-2c0.4,0.1,1,0.9,0.9,1c-0.9,1.7-2.6,0.8-3.9,1.1L114.7,272.6z"/>
	<path class="st6" d="M114.9,272.7c-0.2,1.9-1.4,2.5-3.1,2c-0.4-0.1-1-0.9-0.9-1c0.8-1.8,2.6-0.8,3.9-1.1
		C114.7,272.6,114.9,272.7,114.9,272.7z"/>
	<path class="st5" d="M431.8,351.8c-0.1-1.2-0.1-2.4-0.2-3.6C432.4,349.4,435.1,350.4,431.8,351.8z"/>
	<path class="st5" d="M457.8,343.4c0.4,0.4,0.8,0.9,1.2,1.3C458.5,344.2,458.2,343.8,457.8,343.4z"/>
	<path class="st8" d="M209.3,39.1c1.2,0,2.5,0.1,3.7,0.1C211.8,40,210.5,40.4,209.3,39.1z"/>
	<path class="st8" d="M214.1,28.5c-0.1,0.5-0.3,0.9-0.4,1.4c-0.2-0.2-0.4-0.3-0.6-0.5C213.4,29.1,213.7,28.8,214.1,28.5
		C214.1,28.4,214.1,28.5,214.1,28.5z"/>
	<path class="st3" d="M237.2,592.5c89.6,10.2,175.1-1.3,256.7-39.6c8.5,11.5,5.8,23.1-7.9,29.5c-60,28-123.1,40.9-189.5,37.6
		c-13.3-0.7-26.7-2.1-40-3.6C241.3,614.8,234.4,605.8,237.2,592.5z"/>
	<path class="st3" d="M163.7,381.3c7.7,2.8,15.2,5.9,23,8.3c4.7,1.4,9.7,1.7,14.5,3.7c-2.2,0-4.3,0-6.5,0c0,0.4-0.1,0.8-0.1,1.1
		c11.7,1.1,23.3,2.3,35,3c1.2,0.1,3.9-2.7,3.8-3.9c-0.9-9.1-6.8-13.9-16.1-14.5c-4.6-0.3-9.2-1.3-13.7-2c0.1-0.6,0.2-1.1,0.3-1.7
		c5.9,0.6,11.8,1.1,17.7,1.8c7.1,0.9,10.5,6.2,13.5,12.5c4.8-14.6-3.3-26.6-5-39.5c-1.8-13.3-9.6-24-12.8-36.2
		c3.9,1.9,4.1,2.1,6.7,10.6c1.3,4.1,2.7,8.2,4.2,12.9c7.1-8.8,13.6-16.5,19.4-24.5c5.2-7.2,5.4-15.2-0.3-21.4
		c-11.6-12.5-9.1-23.4,2.9-36c1.9-2,4.1-3.8,6.1-5.7c0.4,0.3,0.8,0.7,1.1,1c-2.5,2.7-5.1,5.4-7.4,8.2c-10.9,13-10.3,19.9-1.8,30.4
		c2.9,3.6,4.6,8.3,6.9,12.7c7.4-3.3,15.6-7,23.8-10.7c0.2,0.3,0.4,0.5,0.6,0.8c-2.9,2-5.6,4.9-8.9,5.8c-10.1,2.7-17.3,8-22.2,17.3
		c-2.6,4.9-7.2,8.7-10.8,13c-6.7,7.9-7.3,16.8-4.5,26.2c1.9,6.5,3.9,12.9,5.5,18.1c6.1-2.8,12-6.7,18.5-8.2
		c9.7-2.2,18-5.1,21.7-15.3c1,5.5-2,9.3-5.9,11.4c-5.6,2.9-11.8,4.9-18,6.6c-9.5,2.5-15.5,7.6-16.4,17.8c-0.4,4.3-1.9,8.6-3.1,13.6
		c12.2,0,24,0,36.1,0c-1.1-1-2.3-2.1-3.5-3.2c-4.3-4.1-5.3-9.9-2.5-14.8c2.8-5,8.1-7,14.3-5.1c4.7,1.5,9.1,3.7,13.8,4.9
		c2.4,0.6,5.6,0.5,7.8-0.7c1.8-0.9,3.4-3.7,3.4-5.7c0-1.2-3-3-5-3.5c-4.6-1.1-9.5-0.9-13.8-2.5c-2.3-0.8-5-4.5-4.8-6.6
		c0.2-2,3.7-4.7,6.2-5.2c3-0.6,6.6,0.3,9.7,1.4c4.9,1.7,9.4,2,13.6-1.4c0.4,0.4,0.9,0.9,1.3,1.3c-1.3,1.3-2.6,3.6-3.9,3.6
		c-4-0.1-8-1-12-1.7c-2.5-0.4-5-1.5-7.5-1.4c-1.8,0.1-3.5,1.7-5.3,2.6c1.2,1.8,2.2,4.6,3.8,5c4.3,1.2,9,1,13.2,2.2
		c2.7,0.8,6.2,2.7,7.1,4.9c0.8,2.3-0.3,6.9-2.1,8.1c-3,1.8-7.4,2.4-11,2c-3.8-0.4-7.4-2.4-11-3.9c-4.7-2-10-3.7-13.6,0.6
		c-2.1,2.5-2.8,7.3-1.9,10.5c1.4,5.3,6.6,7.5,11.9,7.9c4.9,0.4,9.9,0.2,14.8-0.2c1.6-0.1,2.9-1.9,4.5-2.7c1-0.6,2.2-0.8,3.4-1.2
		c-0.3,1.2-0.6,2.4-0.9,3.7c7.3,1.6,10.8-4.4,15.8-8.3c1.2,2.5,2.4,4.8,3.9,7.8c17.3-2.7,34.7-5.5,52.3-8.2c0.2-3.5,0.4-6.4,0.6-9.4
		c0.2,0,0.4,0,0.6,0c0.3,2.6,0.6,5.2,1,8c6.7-0.8,12.9-1.5,17.7-9c-4.2-0.4-7.4-0.7-10.1-0.9c0.6-5.6-5.5-5.2-8.7-8.3
		c-0.5,2-0.7,3.2-1.1,4.6c-0.2-0.3-0.6-0.5-0.6-0.7c0.4-3.9-1.2-6.6-4.3-9.4c-4.6-4.1-8.3-9.3-12.6-13.8c-2.1-2.2-4.8-3.8-7.3-5.6
		c-0.4,0.3-0.9,0.6-1.3,0.9c1.2-0.4,2.3-0.8,4.1-1.4c-1.6-3.7-3.2-7.3-4.7-10.9c0.2-0.3,0.4-0.6,0.6-0.9c2.2,1.5,4.5,2.9,6.7,4.5
		c24,17.9,51.1,28,80.9,30.8c16.1,1.5,30.2-5.7,42.8-14.2c19.9-13.6,31.5-33.6,39-55.9c0.6-1.8,1.2-3.5,1.8-5.2
		c0.6,0.1,1.2,0.3,1.8,0.4c-0.8,3.2-1.4,6.6-2.5,9.7c-1.2,3.2-1.3,5.4,1.6,8.1c4.8,4.3,5.2,9.4,2.1,15.3
		c-4.4,8.5-12.1,13.6-19.9,18.5c-29.4,18.5-62,29.5-95.4,38c-26.6,6.8-53.8,11.1-80.8,16c-9.4,1.7-19.2,2.2-28.8,2.5
		c-32.3,1.2-64.6,3.4-96.7-1c-15.3-2.1-30.4-6.1-45.5-9.3c-0.8-0.2-1.4-1-1.8-2.7c7.7,1,15.3,2.1,23.4,3.2c-4.7-3.1-8.8-6-13-8.8
		L163.7,381.3z M425.6,369c-14.9-4.5-30.7-9.3-46.8-14.1C394,362.9,409.6,368.7,425.6,369z"/>
	<path class="st3" d="M413.3,65.7c18,16.3,24.8,36.4,19.1,59.8c-6.7,27.2-24.1,40.9-59.5,47.7c-6,42.7-28.2,71.4-72.5,80.8
		c0.3-5.5,0.6-10.7,1-16.6c5.8-1.7,12.3-3.7,18.7-5.6c-0.1-0.2-0.1-0.5-0.2-0.7c-9.8,2-19.7,3.9-29.5,5.9c-0.1-0.7-0.3-1.3-0.4-2
		c5.6-1.1,11.3-2.3,16.9-3.2c34.9-5.8,52.4-28.6,59.3-60.4c2.8-12.7,2-26.1,2.8-39.2c0.1-1.8,0-3.7,0-5.5c0.5,0,1-0.1,1.4-0.1
		c1.3,14.5,2.6,29,3.9,43.3c8.6,1,11.2-0.3,11.8-5.1c4.5,5.9,7.5-0.9,12-0.6c-1.3-2.4-2.1-3.8-2.9-5.3c0.2-0.2,0.5-0.4,0.7-0.7
		c0.9,1.5,1.8,2.9,2.5,4.1c10-4.2,19.3-13.9,18.8-16.8c3.2-4.3,5.7-7.6,8.4-11.2c-2.7-1.6-4.5-2.6-6.3-3.6c0.1-0.3,0.2-0.5,0.3-0.8
		c1.9,0.6,3.7,1.3,6.5,2.3c1.3-4.7,2.5-9.3,4-14.6c-3.1,0-5.2,0-7.3,0c0-0.3,0-0.6-0.1-1c2.3-0.3,4.7-0.6,7.5-1
		c0.6-9.7-0.1-19.2-3.8-28.2C423.3,79.6,419.8,71.8,413.3,65.7z"/>
	<path class="st3" d="M539.3,346.4c-57.1,37.2-119.6,61.4-186.4,74.7c-63.8,12.6-128,14.7-192.5,3.4
		C296,441.6,422.2,415.6,539.3,346.4z"/>
	<path class="st17" d="M225.3,51.4c-17.4,15.7-38,23.7-61.4,25.1"/>
	<path class="st3" d="M163.4,381.5c-6.9-2.7-10.5-8-10.9-15c-0.4-5.8,3.9-12,9.3-13.4c2.8-0.7,6,0.4,9,0.1c4.6-0.4,4.1,2.8,5.5,5.5
		c1.3,2.7,4.8,5.2,7.7,5.9c1.9,0.5,6.3-2.1,6.7-3.9c0.7-3.2,0.3-8.2-1.8-9.9c-3.7-3-8.8-5-13.6-5.8c-6.5-1.2-10.2-4.9-10.6-10.6
		c-0.2-3.2,2.1-8.3,4.6-9.4c4-1.7,9.3-1.4,13.9-0.8c3.1,0.4,5.9,2.9,8.9,4.2c5.2,2.3,10.7-0.5,10.9-6c0.2-3.5-1.5-7.1-2-10.7
		c-0.4-2.9-0.1-5.8-0.1-9.3c-16.2,11.6-31.6,12.6-36.5,4.3c6.5,0.4,14,1.9,21.1,1.1c7.7-1,13.3-6.3,16.2-13.1c1.8-0.2,3.4,0,4.7-0.6
		c6.7-3.2,10.6-1.8,12.9,5.4c1.3,4,2.1,8.5,7.8,7.2c5.3-1.2,8.2-5.1,6.9-10.4c-1.2-5.3-3.3-10.6-5.6-15.6c-3-6.5-6.9-12.7-3.9-20.3
		c0.3-0.8,1-1.5,2.3-2.2c-4.1,12.3,4.2,20.9,8.5,30.7c2.4,5.6,2.6,11.2-1.1,16.6c-2.4,3.4-5.6,5.5-9.3,3.9c-2.9-1.2-5.8-4-7-6.7
		c-1.7-3.8-2-8.2-7.9-7c-3.8,0.7-6.6,5.9-5.9,10.8c0.6,4.2,1.9,8.4,2,12.6c0.3,11.6-7.4,16.2-17.9,11.1c-3.9-1.9-8.2-3.4-12.5-4.3
		c-4.5-0.9-7.6,1.7-8.3,6.2c-0.8,4.8,1,8.5,5.8,10c3.2,1,6.5,1.4,9.8,2.3c9.6,2.5,14.5,13.2,9.1,19.7c-3.8,4.6-9.4,5.2-14,1.3
		c-1.6-1.4-3-3.1-4.2-4.8c-3.1-4.7-7.2-6.5-12.6-4.3c-4.6,2-7.6,8-5.6,13.3c1.7,4.3,5,7.9,7.7,11.9
		C163.7,381.3,163.4,381.5,163.4,381.5z"/>
	<path class="st3" d="M239.5,247c1.5-1.1,2.9-2.1,4.6-3.2c-5.6-4.4-11-8.5-16.4-12.7c0.1-0.5,0.3-1,0.4-1.5
		c6.8,1.3,13.7,2.6,21.2,4.1c-1,2.8-1.9,5.2-2.6,7.1c4.5,1.1,9.2,1.4,12.9,3.4c10.1,5.3,10.7,14.3,1.8,21.2
		c-1.4,1.1-2.8,2.1-4.1,3.3c-3.8,3.8-2.7,9.2,2.6,10.4c4.3,0.9,9,1,13.4,0.3c6.8-1,11.9,1,15.8,6.3c4.3,5.9,5.9,12.1,3.3,19.6
		c-1.9,5.3-6,6.8-10.2,8.9c-3,1.5-6.1,2.7-8.8,4.5c-4.7,3-5.8,8.8-3,14.4c2.3,4.7,7.4,6.7,12.8,5c6.2-1.9,12.2-4.2,18.5-5.6
		c6.2-1.4,11,1.3,14.8,6.3c1.1,1.5,2.9,2.4,4.8,3.9c-1.2,1.1-2.9,2.7-4.9,4.5c-4.2-12.6-9.4-14.9-21.6-10.3c-3.5,1.3-7,2.6-10.6,3.6
		c-6.9,2-13.9-0.8-16.5-6.5c-3.3-7.1-1.4-14,5.3-18.1c3.6-2.2,7.7-3.9,11.3-6.2c6.5-4.1,8.6-10.4,6.3-17c-2.5-7-8.3-10.9-15.8-10.6
		c-4.1,0.2-8.2,0.7-12.3,0.3c-4.3-0.5-8.4-2-9.6-7.1c-1.3-5.7,2.5-9.5,6.2-11.9c4.2-2.7,6.9-5.4,5.5-10c-1.5-5.2-5.6-8.7-11.2-8.6
		C248.9,244.6,244.3,246.1,239.5,247z"/>
	<path class="st3" d="M378.3,321.6c-12,2.7-23.2,5.1-34.4,7.8c-1.8,0.4-3.3,2.1-5.2,2.6c-2,0.5-4.8,1-6,0.1
		c-1.2-0.9-1.6-3.9-1.1-5.7c1.6-6.2,5.2-11.3,11.2-14.1c1.9-0.9,4.8-0.4,7.1,0.2c8.8,2.4,17.6,5.1,26.3,7.7
		C376.7,320.2,377.1,320.7,378.3,321.6z"/>
	<path class="st3" d="M352.6,55.7c4.5,0,8.2,0,12.4,0c0.2-2.1,0.4-3.9,0.6-5.7c0.2,0,0.5,0,0.7-0.1c0.3,1.7,0.6,3.5,0.9,5.4
		c2.2,0.3,4.3,0.5,6.4,0.7c-46.7-1.1-76.8,53.7-42.5,92.6c-4.9-4.8-9.7-9.5-12.7-16c-3-6.5-5.1-13-5.4-20.3
		c-2.3-0.3-4.1-0.6-7.6-1.1c3.2-0.6,5-0.9,7.1-1.3c0.2-2.9,0.4-6,0.7-9.3c-2-0.4-3.6-0.7-5.8-1.1c1-0.4,1.5-0.9,1.9-0.8
		c3.4,0.5,4.9-0.8,5.6-4.1c1.8-8.3,6.1-15.4,12-21.7c3.8-4.1,8.1-7.4,12.9-10.2c1.3-0.7,2.2-2.3,3.4-3.7
		C346.2,60.7,351.2,59,352.6,55.7z"/>
	<path class="st3" d="M121.1,222.8c3.8,5.7,4.3,5.6,10-1c-0.1,2.2-0.1,3.3-0.3,4.4c-0.1,1.1-0.4,2.1-0.7,3.6c2,0.1,3.5,0.2,5.7,0.3
		c-3,3-7.3,5.2-4.2,10.1c0.3,0.5-1,2.8-1.6,2.8c-6.1,0.4-6.6,5-7.6,10.6c-4-9.5-6.5-2-10.1,0.6c0.4-3.2,0.7-5.6,1.2-9.7
		c-4.2,2.7-6.9,4.4-9.5,6.1c-0.3-0.2-0.6-0.5-0.9-0.7c1.4-1.4,2.5-3.1,4.1-4.3c3.1-2.3,8.5-3.1,4.4-8.9c-0.5-0.7,1.5-4.3,2-4.2
		C120.8,233.3,119.8,227.7,121.1,222.8z"/>
	<path class="st3" d="M73.5,144.6c-0.7-0.9-1.9-2.3-3-3.7c0.2-0.2,0.4-0.4,0.6-0.6c1.5,1.1,2.9,2.2,4.1,3.1c6-2.7,11.8-5.2,17.4-8.1
		c1.4-0.7,2.2-2.5,3.1-3.6c3.2,4.4,7.4,0.8,11.6,1c0.2-2.1,0.4-4,0.6-6.3c2.5,2.3-1.4,8.2,5.7,6.8c-23.6,2.5-41.3,12.6-50.5,34
		c-9.1,21.2-4.2,40.6,10.1,58.4c-11-9.5-16.9-21.5-18.2-35.9c-2.3-0.1-4.2-0.3-7.6-0.5c3.2-0.7,5.1-1.1,7.2-1.6
		c0.3-3.1,0.6-6.1,0.9-9.5c-1.9-0.6-3.7-1.1-6.8-2.1c3.2-0.2,5-0.2,6.2-0.3c2.6-5.8,4.6-11.4,7.6-16.5
		C65.6,154.1,69.6,149.7,73.5,144.6z"/>
	<path class="st3" d="M434.6,290.8c16.8,1.4,33,2.8,49.2,4.2c0,0.7,0.1,1.4,0.1,2.1c-2.7,0.5-5.3,1.1-8,1.6c-11,2.2-22,4.3-32.9,6.6
		c-3.9,0.8-5.9,0.2-6-4.3C436.9,298.1,435.7,295.2,434.6,290.8z"/>
	<path class="st3" d="M393.1,119.5c-4.5-0.6-7.3-2.8-7.2-7.1c0.1-4.3,2.7-6.8,7.1-6.7c4.4,0.1,7,2.6,6.9,6.9
		C400,117,397,119,393.1,119.5z"/>
	<path class="st3" d="M117.2,96.4c0.5-4.3,2.9-6.9,7.3-6.8c4.4,0.1,6.9,2.8,6.8,7.1c-0.1,4.2-2.9,6.9-7.2,6.7
		C119.7,103.3,117.4,100.6,117.2,96.4z"/>
	<path class="st3" d="M73.8,288.8c-0.5,3.9-2.5,6.6-7,6.6c-4.5,0-7-2.6-7.1-6.8c0-4.2,2.6-6.9,7-6.9C71,281.8,73.4,284.3,73.8,288.8
		z"/>
	<path class="st3" d="M402.6,233.7c-0.4,6-6.6,12.3-10.1,11.4c-1.3-0.4-2.9-2.7-2.9-4.1c-0.1-4.7,5.8-10.8,9.6-10
		C400.8,231.2,402,233.2,402.6,233.7z"/>
	<path class="st3" d="M107.5,326.3c-2.9,3.2-5,5.4-7.1,7.7c-1.6-3-4.3-5.9-4.4-8.9c-0.1-2.5,2.8-5.1,4.4-7.7
		C102.5,320,104.6,322.6,107.5,326.3z"/>
	<path class="st3" d="M144.2,360.2c6.3,7.8-2.3,13.1-2.5,20.1C134.8,374.1,136,365.7,144.2,360.2z"/>
	<path class="st3" d="M493.4,127.2c-1.4-5.2-2-10.8-4.3-15.6c-2.4-4.9-5.4-9.3-3.6-15.6c2.9,6.9,5.9,13.3,8.1,19.9
		c1.2,3.5,1,7.4,1.4,11.1C494.4,127.1,493.9,127.1,493.4,127.2z"/>
	<path class="st3" d="M43.9,178c-3.1,2.1-5.2,4.5-6.5,4.1c-1.9-0.5-3.1-3-4.7-4.7c1.6-1.4,3.1-3.7,4.8-3.8
		C39.2,173.5,40.9,175.8,43.9,178z"/>
	<path class="st3" d="M317.4,282.5c-4.1,7.2-7.6,13.1-11,19.1C304.3,296.4,308.8,287.8,317.4,282.5z"/>
	<path class="st3" d="M213.4,445.5c-8.3-1.3-16.5-2.7-24.8-4c0.1-0.8,0.3-1.5,0.4-2.3c8.3,1.3,16.5,2.5,24.8,3.8
		C213.6,443.8,213.5,444.7,213.4,445.5z"/>
	<path class="st3" d="M342.1,282.3c-4,5.1-7.2,9.1-10.4,13.2c-0.4-0.3-0.8-0.6-1.2-1C332.1,289.1,336.5,286,342.1,282.3z"/>
	<path class="st3" d="M148.8,343.1c-4.8,2.5-9.7,5-14.2,7.3C135.5,343.8,143.1,339.9,148.8,343.1z"/>
	<path class="st3" d="M489.1,218.5c8.9,0,17.8,0,26.7,0c0,0.1,0,0.2,0,0.4c-8.8,0-17.6,0-26.4,0
		C489.3,218.7,489.2,218.6,489.1,218.5z"/>
	<path class="st17" d="M311,24.5"/>
	<path class="st17" d="M469.5,254.6c10.1,3.9,18.9,6.3,25.3,7.7c14.2,3.1,29.6,6.3,46.8,1.1c2.3-0.7,4.1-1.4,5.3-1.9"/>
</g>
</svg>
